<svg version="1.1" xmlns="http://www.w3.org/2000/svg" viewBox="0 0 721.0000000000001 387.9150579752365" width="1442.0000000000002" height="775.830115950473">
  <!-- svg-source:excalidraw -->
  
  <defs>
    <style class="style-fonts">
      @font-face {
        font-family: "Virgil";
        src: url("https://excalidraw.com/Virgil.woff2");
      }
      @font-face {
        font-family: "Cascadia";
        src: url("https://excalidraw.com/Cascadia.woff2");
      }
    </style>
  </defs>
  <rect x="0" y="0" width="721.0000000000001" height="387.9150579752365" fill="#ffffff"></rect><g stroke-linecap="round" transform="translate(51 62.19999999999999) rotate(0 330.00000000000006 135)"><path d="M31.34 -1.77 L628.65 1.64 L643.84 0.96 L647.25 4.15 L655.44 13.12 L656.8 17.09 L659.8 31.38 L659.65 239.7 L658.5 253 L655.59 257.27 L647.51 264.35 L641.8 266.22 L629.22 269.87 L30.37 270.54 L19.92 266.61 L9.28 260.83 L2.8 251.2 L2.44 245.26 L-0.53 33.39 L1.65 16.63 L8.44 6.5 L19.63 3.3 L33.12 -0.56" stroke="none" stroke-width="0" fill="#fab00533"></path><path d="M32 0 M32 0 C240.12 -0.29, 448.66 0.92, 628 0 M32 0 C166.39 -0.05, 300.55 -0.08, 628 0 M628 0 C648.33 1.8, 661.41 9.52, 660 32 M628 0 C650.71 1.76, 659.09 11.75, 660 32 M660 32 C658.76 99.43, 659.62 169.99, 660 238 M660 32 C661.55 97.52, 661.27 164.08, 660 238 M660 238 C659.82 259.28, 650.85 270.04, 628 270 M660 238 C659.93 259.25, 651.23 272.04, 628 270 M628 270 C461.6 270.87, 295.95 271.91, 32 270 M628 270 C435.24 270.57, 243.45 270.66, 32 270 M32 270 C11.22 271.01, -0.43 258.91, 0 238 M32 270 C11.42 271.2, 0.85 260.38, 0 238 M0 238 C-0.99 184.5, -1.52 130.06, 0 32 M0 238 C-0.2 155.8, 1.11 75.19, 0 32 M0 32 C1.85 10.03, 12.46 -0.76, 32 0 M0 32 C0.8 12.36, 11.28 -0.87, 32 0" stroke="#e67700" stroke-width="1" fill="none"></path></g><g transform="translate(301.5 353.8) rotate(359.8962637780171 63.55992889404297 12)"><text x="0" y="0" font-family="Virgil, Segoe UI Emoji" font-size="20px" fill="#e6770033" text-anchor="start" style="white-space: pre;" direction="ltr" dominant-baseline="text-before-edge">@hemashushu</text></g><g stroke-linecap="round" transform="translate(89 95.19999999999999) rotate(0 70.5 15)"><path d="M9.24 -0.2 L137.23 2.4 L139.16 3.17 L138.91 24.33 L138.14 28.45 L134.81 28.61 L5.87 28.79 L0.7 24.26 L-0.77 7.14 L0.89 1.97 L7.83 -0.03" stroke="none" stroke-width="0" fill="#fff"></path><path d="M7.5 0 M7.5 0 C47.57 0.61, 89.32 -0.66, 133.5 0 M133.5 0 C137.95 1.04, 141.88 1.77, 141 7.5 M141 7.5 C141.23 12.08, 139.66 13.08, 141 22.5 M141 22.5 C141.74 29.4, 139.22 30.69, 133.5 30 M133.5 30 C106.8 30.13, 81.39 31.47, 7.5 30 M7.5 30 C2.73 29.67, 0.6 29.24, 0 22.5 M0 22.5 C-1.43 20.33, -0.47 16.46, 0 7.5 M0 7.5 C1.14 3.53, 3.88 1.28, 7.5 0" stroke="#e67700" stroke-width="1.5" fill="none" stroke-dasharray="8 9"></path></g><g transform="translate(123.70792388916016 100.59999999999997) rotate(0 35.792076110839844 9.599999999999994)"><text x="35.792076110839844" y="0" font-family="Virgil, Segoe UI Emoji" font-size="16px" fill="#e67700" text-anchor="middle" style="white-space: pre;" direction="ltr" dominant-baseline="text-before-edge">free item</text></g><g transform="translate(273 10) rotate(0 77.77031707763672 16.80000000000001)"><text x="0" y="0" font-family="Virgil, Segoe UI Emoji" font-size="28px" fill="#e67700" text-anchor="start" style="white-space: pre;" direction="ltr" dominant-baseline="text-before-edge">Data Page</text></g><g stroke-linecap="round" transform="translate(281.5 171.2) rotate(0 70.5 15)"><path d="M8.48 -0.14 L135.02 -1.33 L140.12 5.58 L140.14 24.65 L137.61 29.89 L131.74 31.44 L5.07 27.99 L0.98 27.15 L1.76 6.97 L1.59 3.56 L5.71 1.36" stroke="none" stroke-width="0" fill="#fff"></path><path d="M7.5 0 M7.5 0 C32.33 1.17, 60.15 -0.18, 133.5 0 M133.5 0 C139.68 1.42, 140.42 3.87, 141 7.5 M141 7.5 C139.65 11.84, 139.86 17.97, 141 22.5 M141 22.5 C142.85 26.06, 139.5 29.37, 133.5 30 M133.5 30 C102.48 29.76, 66.33 30.24, 7.5 30 M7.5 30 C0.53 31.71, -0.24 27.59, 0 22.5 M0 22.5 C0.79 15.33, -0.53 10.84, 0 7.5 M0 7.5 C0.82 4.42, 1.93 -0.99, 7.5 0" stroke="#e67700" stroke-width="1.5" fill="none" stroke-dasharray="8 9"></path></g><g transform="translate(316.20792388916016 176.59999999999997) rotate(0 35.792076110839844 9.599999999999994)"><text x="35.792076110839844" y="0" font-family="Virgil, Segoe UI Emoji" font-size="16px" fill="#e67700" text-anchor="middle" style="white-space: pre;" direction="ltr" dominant-baseline="text-before-edge">free item</text></g><g stroke-linecap="round" transform="translate(470 94.69999999999999) rotate(0 70.5 15)"><path d="M6.76 1.18 L138.2 -0.12 L141.9 5.47 L141.92 27.45 L137.18 26.65 L131.84 29.45 L6.07 28.09 L1.47 25.15 L-0.82 7.02 L0.87 3.51 L7.89 -1.87" stroke="none" stroke-width="0" fill="#fff"></path><path d="M7.5 0 M7.5 0 C50.59 -0.99, 96.12 -1.77, 133.5 0 M133.5 0 C138.83 0.98, 139.4 1.72, 141 7.5 M141 7.5 C140.63 11.54, 140.88 16.09, 141 22.5 M141 22.5 C140.78 27.47, 137.38 30.5, 133.5 30 M133.5 30 C93.94 30.81, 55.67 27.33, 7.5 30 M7.5 30 C0.69 29.07, 0.8 27.14, 0 22.5 M0 22.5 C-1.18 19.05, 0.64 13.48, 0 7.5 M0 7.5 C-1.87 2.62, 0.52 1.28, 7.5 0" stroke="#e67700" stroke-width="1.5" fill="none" stroke-dasharray="8 9"></path></g><g transform="translate(504.70792388916016 100.09999999999997) rotate(0 35.792076110839844 9.599999999999994)"><text x="35.792076110839844" y="0" font-family="Virgil, Segoe UI Emoji" font-size="16px" fill="#e67700" text-anchor="middle" style="white-space: pre;" direction="ltr" dominant-baseline="text-before-edge">free item</text></g><g stroke-linecap="round" transform="translate(278.5 95.19999999999999) rotate(0 70.5 15)"><path d="M7.4 0.2 L136.23 1.65 L140.09 3.32 L141.46 25.03 L140.18 27.47 L131.83 30.32 L2.51 28.66 L2.24 25.38 L-0.92 8.72 L0.12 3.81 L6.63 -1" stroke="none" stroke-width="0" fill="#fff"></path><path d="M7.5 0 M7.5 0 C54.26 -1.16, 103.19 -0.66, 133.5 0 M133.5 0 C138.59 -0.41, 142.43 3.04, 141 7.5 M141 7.5 C140.03 13.76, 141.61 18.07, 141 22.5 M141 22.5 C140.61 28.34, 140.12 29.14, 133.5 30 M133.5 30 C96.04 29.96, 57.63 30.74, 7.5 30 M7.5 30 C2.11 29.37, -1.27 27.91, 0 22.5 M0 22.5 C-1.25 17.2, 0.52 14.36, 0 7.5 M0 7.5 C1.87 1.28, 3.13 1.1, 7.5 0" stroke="#2b8a3e" stroke-width="1.5" fill="none" stroke-dasharray="8 9"></path></g><g transform="translate(292.51187896728516 100.59999999999997) rotate(0 56.488121032714844 9.599999999999994)"><text x="56.488121032714844" y="0" font-family="Virgil, Segoe UI Emoji" font-size="16px" fill="#2b8a3e" text-anchor="middle" style="white-space: pre;" direction="ltr" dominant-baseline="text-before-edge">allocated item</text></g><g stroke-linecap="round" transform="translate(89 170.7) rotate(0 70.5 15)"><path d="M7.25 -0.06 L137.64 2.28 L139.77 4.87 L140.6 26.96 L139.8 29.42 L134.9 28.26 L2.55 30.43 L-1.37 25.57 L-0.98 6.93 L3.11 2.3 L7.7 -0.28" stroke="none" stroke-width="0" fill="#fff"></path><path d="M7.5 0 M7.5 0 C53.87 1.94, 98.3 -1.22, 133.5 0 M133.5 0 C138.05 -0.84, 141.05 4.39, 141 7.5 M141 7.5 C141.79 14.02, 140.9 18.76, 141 22.5 M141 22.5 C142.14 26.5, 137.44 28, 133.5 30 M133.5 30 C90.45 29.89, 51.29 32.49, 7.5 30 M7.5 30 C2.8 29.25, -0.85 28.26, 0 22.5 M0 22.5 C-1.06 20.09, 0.78 16.69, 0 7.5 M0 7.5 C-0.43 0.8, 0.55 -1.22, 7.5 0" stroke="#2b8a3e" stroke-width="1.5" fill="none" stroke-dasharray="8 9"></path></g><g transform="translate(103.01187896728516 176.09999999999997) rotate(0 56.488121032714844 9.599999999999994)"><text x="56.488121032714844" y="0" font-family="Virgil, Segoe UI Emoji" font-size="16px" fill="#2b8a3e" text-anchor="middle" style="white-space: pre;" direction="ltr" dominant-baseline="text-before-edge">allocated item</text></g><g stroke-linecap="round" transform="translate(474 172.7) rotate(0 70.5 15)"><path d="M6.99 1.05 L135.81 0.09 L140.8 5.69 L141.19 25.31 L139.96 29.05 L132.89 31.13 L5.92 29.72 L-0.77 26.68 L-0.05 8.47 L1.78 1.12 L6.78 -0.14" stroke="none" stroke-width="0" fill="#fff"></path><path d="M7.5 0 M7.5 0 C40.97 0.1, 78.47 0.89, 133.5 0 M133.5 0 C139.45 -0.66, 139.33 3.95, 141 7.5 M141 7.5 C140.92 11.44, 140.91 18.6, 141 22.5 M141 22.5 C139.56 26.13, 139.3 28.01, 133.5 30 M133.5 30 C103.84 29.01, 71.12 29.95, 7.5 30 M7.5 30 C2.31 28.75, -1.36 28.74, 0 22.5 M0 22.5 C-0.36 17.61, 0.76 10.57, 0 7.5 M0 7.5 C1.2 4.12, 1.69 -0.99, 7.5 0" stroke="#2b8a3e" stroke-width="1.5" fill="none" stroke-dasharray="8 9"></path></g><g transform="translate(488.01187896728516 178.09999999999997) rotate(0 56.488121032714844 9.599999999999994)"><text x="56.488121032714844" y="0" font-family="Virgil, Segoe UI Emoji" font-size="16px" fill="#2b8a3e" text-anchor="middle" style="white-space: pre;" direction="ltr" dominant-baseline="text-before-edge">allocated item</text></g><g stroke-linecap="round"><g transform="translate(234 112.69999999999999) rotate(0 21.5 36.75)"><path d="M0 0 C2.33 1.5, 10.75 -0.75, 14 9 C17.25 18.75, 14.67 47.75, 19.5 58.5 C24.33 69.25, 39.08 71, 43 73.5" stroke="#e67700" stroke-width="1.5" fill="none" stroke-dasharray="8 9"></path></g><g transform="translate(234 112.69999999999999) rotate(0 21.5 36.75)"><path d="M29.06 73.15 C32.95 73.25, 36.83 73.35, 43 73.5" stroke="#e67700" stroke-width="1.5" fill="none"></path></g><g transform="translate(234 112.69999999999999) rotate(0 21.5 36.75)"><path d="M32.55 64.28 C35.46 66.85, 38.37 69.41, 43 73.5" stroke="#e67700" stroke-width="1.5" fill="none"></path></g></g><mask></mask><g stroke-linecap="round"><g transform="translate(627.5 260.05) rotate(0 -72.52469955263979 -75)"><path d="M0 0 C4.83 -2.89, 24.75 -2.29, 29 -17.35 C33.25 -32.41, 33 -75.08, 25.5 -90.35 C18 -105.63, 15.92 -104.98, -16 -109 C-47.92 -113.02, -141.17 -107.67, -166 -114.5 C-190.83 -121.33, -165.17 -144.08, -165 -150" stroke="#e67700" stroke-width="1.5" fill="none" stroke-dasharray="8 9"></path></g><g transform="translate(627.5 260.05) rotate(0 -72.52469955263979 -75)"><path d="M-167.78 -132.46 C-166.89 -138.09, -165.99 -143.73, -165 -150" stroke="#e67700" stroke-width="1.5" fill="none"></path></g><g transform="translate(627.5 260.05) rotate(0 -72.52469955263979 -75)"><path d="M-178.4 -138.35 C-174.1 -142.09, -169.79 -145.83, -165 -150" stroke="#e67700" stroke-width="1.5" fill="none"></path></g></g><mask></mask><g stroke-linecap="round" transform="translate(97.5 243.95) rotate(0 70.5 15)"><path d="M7.21 1.49 L135.41 -1.25 L141.33 6.17 L140.67 25.4 L140.45 28.91 L133.44 30.21 L4.91 28.21 L2.08 27.59 L0.21 8.41 L3.56 1.61 L8.59 -0.66" stroke="none" stroke-width="0" fill="#fff"></path><path d="M7.5 0 M7.5 0 C40.95 0.54, 79.31 0.29, 133.5 0 M133.5 0 C139.81 0.92, 139.61 3.1, 141 7.5 M141 7.5 C140.36 11.26, 140.34 14.49, 141 22.5 M141 22.5 C142.76 27.33, 137.51 31.17, 133.5 30 M133.5 30 C102.32 28.35, 70.72 29.34, 7.5 30 M7.5 30 C2.41 29.65, -0.82 28.01, 0 22.5 M0 22.5 C1.27 18.57, 0.16 12.87, 0 7.5 M0 7.5 C-0.95 1.54, 1.95 -1.78, 7.5 0" stroke="#e67700" stroke-width="1.5" fill="none" stroke-dasharray="8 9"></path></g><g transform="translate(132.20792388916016 249.34999999999997) rotate(0 35.792076110839844 9.600000000000023)"><text x="35.792076110839844" y="0" font-family="Virgil, Segoe UI Emoji" font-size="16px" fill="#e67700" text-anchor="middle" style="white-space: pre;" direction="ltr" dominant-baseline="text-before-edge">free item</text></g><g stroke-linecap="round" transform="translate(478.5 243.45) rotate(0 70.5 15)"><path d="M6.12 -1.72 L137.58 2.42 L140.67 3.83 L141.85 26.57 L139.06 28.34 L134.19 28.68 L5.83 31.34 L0.68 26.69 L1.68 7.23 L2.96 1.22 L7.05 0.9" stroke="none" stroke-width="0" fill="#fff"></path><path d="M7.5 0 M7.5 0 C37.33 -0.41, 64.83 1.2, 133.5 0 M133.5 0 C137.11 0.6, 140.56 2.27, 141 7.5 M141 7.5 C140.3 11.38, 142.26 17.83, 141 22.5 M141 22.5 C140.01 28.67, 137.51 28.12, 133.5 30 M133.5 30 C107.42 30.15, 80.52 29.32, 7.5 30 M7.5 30 C1.68 30.51, -0.58 29.36, 0 22.5 M0 22.5 C0.16 16.66, -0.85 13.09, 0 7.5 M0 7.5 C-0.55 0.72, 1.91 -1.54, 7.5 0" stroke="#e67700" stroke-width="1.5" fill="none" stroke-dasharray="8 9"></path></g><g transform="translate(513.2079238891602 248.84999999999997) rotate(0 35.792076110839844 9.600000000000023)"><text x="35.792076110839844" y="0" font-family="Virgil, Segoe UI Emoji" font-size="16px" fill="#e67700" text-anchor="middle" style="white-space: pre;" direction="ltr" dominant-baseline="text-before-edge">free item</text></g><g stroke-linecap="round" transform="translate(277.5 241.7) rotate(0 70.5 15)"><path d="M6.66 -0.63 L138.58 1.42 L141.71 4.74 L141.5 26.64 L140.01 28.18 L133.01 31.67 L3.28 28.5 L0.72 26.86 L-0.92 8.68 L3.51 0.58 L8.41 -0.49" stroke="none" stroke-width="0" fill="#fff"></path><path d="M7.5 0 M7.5 0 C44.79 2.48, 79.32 1.4, 133.5 0 M133.5 0 C138.86 1.64, 140.7 2.35, 141 7.5 M141 7.5 C139.82 9.94, 139.62 15.26, 141 22.5 M141 22.5 C142.64 28.68, 137.93 31.96, 133.5 30 M133.5 30 C103.25 27.63, 70.39 28.9, 7.5 30 M7.5 30 C1.51 30.74, 0.19 26.04, 0 22.5 M0 22.5 C-0.15 18.18, -0.01 12.18, 0 7.5 M0 7.5 C1.78 2.83, 2.02 1.32, 7.5 0" stroke="#e67700" stroke-width="1.5" fill="none" stroke-dasharray="8 9"></path></g><g transform="translate(312.20792388916016 247.09999999999997) rotate(0 35.792076110839844 9.600000000000023)"><text x="35.792076110839844" y="0" font-family="Virgil, Segoe UI Emoji" font-size="16px" fill="#e67700" text-anchor="middle" style="white-space: pre;" direction="ltr" dominant-baseline="text-before-edge">free item</text></g><g stroke-linecap="round"><g transform="translate(428.4749694824219 181.4000152587891) rotate(0 21.5 36.75)"><path d="M0 0 C2.33 1.5, 10.75 -0.75, 14 9 C17.25 18.75, 14.67 47.75, 19.5 58.5 C24.33 69.25, 39.08 71, 43 73.5" stroke="#e67700" stroke-width="1.5" fill="none" stroke-dasharray="8 9"></path></g><g transform="translate(428.4749694824219 181.4000152587891) rotate(0 21.5 36.75)"><path d="M29.06 73.15 C34.07 73.28, 39.07 73.4, 43 73.5" stroke="#e67700" stroke-width="1.5" fill="none"></path></g><g transform="translate(428.4749694824219 181.4000152587891) rotate(0 21.5 36.75)"><path d="M32.55 64.28 C36.3 67.59, 40.06 70.9, 43 73.5" stroke="#e67700" stroke-width="1.5" fill="none"></path></g></g><mask></mask><g stroke-linecap="round"><g transform="translate(621.5 114.30908467550506) rotate(0 -245.52191158778868 95.71483616978219)"><path d="M0 0 C9.17 4.34, 46.67 -1.26, 55 26.02 C63.33 53.3, 67 136.53, 50 163.67 C33 190.82, 44.5 184.86, -47 188.89 C-138.5 192.92, -415.5 191.83, -499 187.86 C-582.5 183.89, -543 171.64, -548 165.05 C-553 158.46, -532.17 151.11, -529 148.32" stroke="#e67700" stroke-width="1.5" fill="none" stroke-dasharray="8 9"></path></g><g transform="translate(621.5 114.30908467550506) rotate(0 -245.52191158778868 95.71483616978219)"><path d="M-537.28 157.9 C-534.35 154.52, -531.43 151.14, -529 148.32" stroke="#e67700" stroke-width="1.5" fill="none"></path></g><g transform="translate(621.5 114.30908467550506) rotate(0 -245.52191158778868 95.71483616978219)"><path d="M-541.5 150.34 C-537.08 149.63, -532.67 148.92, -529 148.32" stroke="#e67700" stroke-width="1.5" fill="none"></path></g></g><mask></mask><g stroke-linecap="round"><g transform="translate(242 260.2) rotate(0 17 0.25)"><path d="M0 0 C5.67 0.08, 28.33 0.42, 34 0.5" stroke="#e67700" stroke-width="1.5" fill="none" stroke-dasharray="8 9"></path></g><g transform="translate(242 260.2) rotate(0 17 0.25)"><path d="M17.94 6.08 C23.76 4.06, 29.57 2.04, 34 0.5" stroke="#e67700" stroke-width="1.5" fill="none"></path></g><g transform="translate(242 260.2) rotate(0 17 0.25)"><path d="M18.11 -5.55 C23.87 -3.36, 29.62 -1.17, 34 0.5" stroke="#e67700" stroke-width="1.5" fill="none"></path></g></g><mask></mask><g stroke-linecap="round"><g transform="translate(12.19876944962634 53.599999999999966) rotate(0 44.15061527518683 16.475319057014957)"><path d="M0 0 C10.22 0.43, 46.58 -3, 61.3 2.6 C76.02 8.2, 83.8 28.43, 88.3 33.6" stroke="#e67700" stroke-width="1.5" fill="none" stroke-dasharray="8 9"></path></g><g transform="translate(12.19876944962634 53.599999999999966) rotate(0 44.15061527518683 16.475319057014957)"><path d="M72 21.08 C77.85 25.57, 83.71 30.07, 88.3 33.6" stroke="#e67700" stroke-width="1.5" fill="none"></path></g><g transform="translate(12.19876944962634 53.599999999999966) rotate(0 44.15061527518683 16.475319057014957)"><path d="M83.87 13.53 C85.46 20.74, 87.05 27.94, 88.3 33.6" stroke="#e67700" stroke-width="1.5" fill="none"></path></g></g><mask></mask><g transform="translate(10 20.899999999999977) rotate(0 67.37614440917969 9.599999999999994)"><text x="0" y="0" font-family="Virgil, Segoe UI Emoji" font-size="16px" fill="#e67700" text-anchor="start" style="white-space: pre;" direction="ltr" dominant-baseline="text-before-edge">head item offset</text></g></svg>