<svg version="1.1" xmlns="http://www.w3.org/2000/svg" viewBox="0 0 735.5000000000001 216.8944175338337" width="1471.0000000000002" height="433.7888350676674">
  <!-- svg-source:excalidraw -->
  
  <defs>
    <style class="style-fonts">
      @font-face {
        font-family: "Virgil";
        src: url("https://excalidraw.com/Virgil.woff2");
      }
      @font-face {
        font-family: "Cascadia";
        src: url("https://excalidraw.com/Cascadia.woff2");
      }
    </style>
  </defs>
  <rect x="0" y="0" width="735.5000000000001" height="216.8944175338337" fill="#ffffff"></rect><g stroke-linecap="round" transform="translate(10 13.179359558597184) rotate(0 357.75000000000006 73.75)"><path d="M35.59 -3.36 L689.19 -1.13 L711.38 4.84 L716.22 24.47 L711.7 125.44 L707.92 141.5 L697.14 149.43 L683.97 144.84 L25.97 146.61 L11.26 140.2 L-1.33 122.6 L3.85 28.61 L-1.11 15.81 L10.46 7.38 L21.96 1.99 L32.56 1.17" stroke="none" stroke-width="0" fill="#40c05733"></path><path d="M32 0 M32 0 C177.1 4.43, 323.17 3.78, 683.5 0 M32 0 C284.06 4.3, 534.23 4.16, 683.5 0 M683.5 0 C706.73 0.78, 717.21 12.74, 715.5 32 M683.5 0 C700.73 -0.88, 718.47 13.01, 715.5 32 M715.5 32 C717.89 55.32, 719.8 80.17, 715.5 115.5 M715.5 32 C718.31 64.93, 714.54 94.82, 715.5 115.5 M715.5 115.5 C711.82 132.93, 701.95 143.88, 683.5 147.5 M715.5 115.5 C712.55 140.22, 709.11 146.56, 683.5 147.5 M683.5 147.5 C429.15 146.47, 175.73 146.09, 32 147.5 M683.5 147.5 C441.32 143.79, 201.18 143.67, 32 147.5 M32 147.5 C8.54 149.12, -1.55 138.03, 0 115.5 M32 147.5 C10.24 145.39, -1.82 135.6, 0 115.5 M0 115.5 C4.88 86.92, -2.62 57.1, 0 32 M0 115.5 C-0.19 94.29, 0.66 71.79, 0 32 M0 32 C-1.2 13.07, 8.27 -3.03, 32 0 M0 32 C-2.94 15.13, 8.99 2.18, 32 0" stroke="#fff" stroke-width="1" fill="none"></path></g><g transform="translate(331.5 182.7793595585972) rotate(359.8962637780171 63.55992889404297 12)"><text x="0" y="0" font-family="Virgil, Segoe UI Emoji" font-size="20px" fill="#e6770033" text-anchor="start" style="white-space: pre;" direction="ltr" dominant-baseline="text-before-edge">@hemashushu</text></g><g stroke-linecap="round"><g transform="translate(24 10.679359558597184) rotate(0 345.4201314308774 0.44972385398295955)"><path d="M0.04 -0.68 C115.51 -0.39, 576.75 1.14, 692.23 1.07 M-1.39 1.58 C113.98 1.61, 575.74 -0.17, 691.41 -0.49" stroke="#2b8a3e" stroke-width="1" fill="none"></path></g></g><mask></mask><g stroke-linecap="round"><g transform="translate(28.579868569122652 163.38541245451194) rotate(0 339.11207613009486 0.10718372952192112)"><path d="M-1.09 -0.63 C111.6 -0.71, 563.89 0.28, 677.23 0.45 M0.54 1.66 C113.48 1.13, 566.33 -0.87, 679.32 -1.44" stroke="#2b8a3e" stroke-width="1" fill="none"></path></g></g><mask></mask><g stroke-linecap="round" transform="translate(41.75 36.42935955859707) rotate(0 91.05303030303031 52.75)"><path d="M26.42 0.49 L154.58 0.59 L173.58 2.12 L177.22 8.31 L182.4 20.03 L181.18 78.7 L179.11 96.15 L171.5 100.31 L155.34 104.03 L28.08 107.18 L9.42 101.75 L4.72 94.66 L-0.75 86.5 L-1.15 20.08 L2.01 11.11 L12.02 2.27 L25.33 1.94" stroke="none" stroke-width="0" fill="#fff"></path><path d="M26.37 0 M26.37 0 C60.12 0.48, 96.23 0.25, 155.73 0 M26.37 0 C68.02 0.43, 109.6 0.8, 155.73 0 M155.73 0 C173.97 1.61, 181.85 8.31, 182.11 26.37 M155.73 0 C172.59 -1.74, 181.12 9.6, 182.11 26.37 M182.11 26.37 C180.2 42.88, 180.48 58.33, 182.11 79.12 M182.11 26.37 C180.97 41.79, 181.67 57.76, 182.11 79.12 M182.11 79.12 C180.38 97.01, 173.31 105.31, 155.73 105.5 M182.11 79.12 C183.4 96.32, 172.44 107.53, 155.73 105.5 M155.73 105.5 C110.29 104.63, 62.29 105.54, 26.37 105.5 M155.73 105.5 C120.3 107.59, 83.35 106.09, 26.37 105.5 M26.37 105.5 C9.05 105.74, 0.23 97.44, 0 79.12 M26.37 105.5 C10.95 104.74, -0.61 94.41, 0 79.12 M0 79.12 C1.41 67.18, 1.81 53.21, 0 26.37 M0 79.12 C-0.44 58.71, -0.68 39.57, 0 26.37 M0 26.37 C1.68 7.98, 7.7 -1.36, 26.37 0 M0 26.37 C-1.08 10.98, 10.85 1.46, 26.37 0" stroke="#e67700" stroke-width="1" fill="none"></path></g><g transform="translate(73.51490621855766 50.77935955859704) rotate(0 59.288124084472656 38.400000000000006)"><text x="59.288124084472656" y="0" font-family="Virgil, Segoe UI Emoji" font-size="16px" fill="#e67700" text-anchor="middle" style="white-space: pre;" direction="ltr" dominant-baseline="text-before-edge">allocated block</text><text x="59.288124084472656" y="19.2" font-family="Virgil, Segoe UI Emoji" font-size="16px" fill="#e67700" text-anchor="middle" style="white-space: pre;" direction="ltr" dominant-baseline="text-before-edge"></text><text x="59.288124084472656" y="38.4" font-family="Virgil, Segoe UI Emoji" font-size="16px" fill="#e67700" text-anchor="middle" style="white-space: pre;" direction="ltr" dominant-baseline="text-before-edge"></text><text x="59.288124084472656" y="57.599999999999994" font-family="Virgil, Segoe UI Emoji" font-size="16px" fill="#e67700" text-anchor="middle" style="white-space: pre;" direction="ltr" dominant-baseline="text-before-edge"></text></g><g stroke-linecap="round" transform="translate(51.623737373737356 82.35612723536474) rotate(0 81.5 24)"><path d="M12 0 L151 0 L156.25 0.75 L160 3 L162.81 9.19 L163 36 L162.25 41.25 L161.31 43.31 L158.31 46.31 L151 48 L12 48 L6.75 47.25 L3 45 L0.19 38.81 L0.19 9.19 L3 3 L6.75 0.75 L12 0" stroke="none" stroke-width="0" fill="#e6498033"></path><path d="M12 0 M12 0 C42.21 0, 72.42 0, 151 0 M151 0 C159 0, 163 4, 163 12 M163 12 C163 19.98, 163 27.97, 163 36 M163 36 C163 44, 159 48, 151 48 M151 48 C123.04 48, 95.08 48, 12 48 M12 48 C4 48, 0 44, 0 36 M0 36 C0 30.87, 0 25.73, 0 12 M0 12 C0 4, 4 0, 12 0" stroke="#a61e4d" stroke-width="1.5" fill="none" stroke-dasharray="8 9"></path></g><g transform="translate(94.44982532539751 97.35612723536474) rotate(0 38.673912048339844 9)"><text x="38.673912048339844" y="0" font-family="Virgil, Segoe UI Emoji" font-size="15.265202633623687px" fill="#a61e4d" text-anchor="middle" style="white-space: pre;" direction="ltr" dominant-baseline="text-before-edge">index page</text></g><g stroke-linecap="round" transform="translate(241.44696969696975 36.429359558597184) rotate(0 70.5 53)"><path d="M25.49 0.13 L113.03 1.08 L128.01 3.31 L135.75 6.82 L141.13 16.5 L141.78 26.6 L139.62 85.82 L139.71 90.09 L136.37 99.31 L124.78 103.04 L115.43 106.44 L25.67 104.57 L16.87 103.88 L6.81 100.99 L4.9 95.41 L1.39 86.11 L-1.07 18.53 L3.46 9.45 L10.2 4.42 L26 -0.52" stroke="none" stroke-width="0" fill="#fff"></path><path d="M26.5 0 M26.5 0 C47.21 0.28, 69.48 -0.31, 114.5 0 M26.5 0 C53.8 -0.87, 82.47 0.69, 114.5 0 M114.5 0 C134.15 0.82, 142.35 7.02, 141 26.5 M114.5 0 C132.93 -0.2, 141.77 10.87, 141 26.5 M141 26.5 C143.13 46.15, 141.09 67.8, 141 79.5 M141 26.5 C141.39 46.11, 140.99 65.18, 141 79.5 M141 79.5 C140.22 99.1, 133.42 105.12, 114.5 106 M141 79.5 C139.92 98.57, 132.4 106.21, 114.5 106 M114.5 106 C97.27 106.6, 79.09 106.55, 26.5 106 M114.5 106 C87.24 106.39, 58.96 104.74, 26.5 106 M26.5 106 C9.62 104.86, -1.49 95.78, 0 79.5 M26.5 106 C6.75 104.26, -1.28 97.92, 0 79.5 M0 79.5 C-0.8 59.73, -1.16 40.35, 0 26.5 M0 79.5 C0.41 67.24, 1.05 53.46, 0 26.5 M0 26.5 C0.82 8.73, 9.8 -1.74, 26.5 0 M0 26.5 C1.33 11.05, 7.28 -0.45, 26.5 0" stroke="#e67700" stroke-width="1" fill="none"></path></g><g transform="translate(261.10685891816115 51.02935955859721) rotate(0 50.840110778808594 38.400000000000006)"><text x="50.840110778808594" y="0" font-family="Virgil, Segoe UI Emoji" font-size="16px" fill="#e67700" text-anchor="middle" style="white-space: pre;" direction="ltr" dominant-baseline="text-before-edge">allocated blk</text><text x="50.840110778808594" y="19.2" font-family="Virgil, Segoe UI Emoji" font-size="16px" fill="#e67700" text-anchor="middle" style="white-space: pre;" direction="ltr" dominant-baseline="text-before-edge"></text><text x="50.840110778808594" y="38.4" font-family="Virgil, Segoe UI Emoji" font-size="16px" fill="#e67700" text-anchor="middle" style="white-space: pre;" direction="ltr" dominant-baseline="text-before-edge"></text><text x="50.840110778808594" y="57.599999999999994" font-family="Virgil, Segoe UI Emoji" font-size="16px" fill="#e67700" text-anchor="middle" style="white-space: pre;" direction="ltr" dominant-baseline="text-before-edge"></text></g><g stroke-linecap="round" transform="translate(251.32070707070704 82.35612723536485) rotate(0 59.5 24)"><path d="M12 0 L107 0 L112.25 0.75 L116 3 L118.81 9.19 L119 36 L118.25 41.25 L117.31 43.31 L114.31 46.31 L107 48 L12 48 L6.75 47.25 L3 45 L0.19 38.81 L0.19 9.19 L3 3 L6.75 0.75 L12 0" stroke="none" stroke-width="0" fill="#fab00533"></path><path d="M12 0 M12 0 C38.14 0, 64.29 0, 107 0 M107 0 C115 0, 119 4, 119 12 M119 12 C119 19.15, 119 26.3, 119 36 M119 36 C119 44, 115 48, 107 48 M107 48 C75.3 48, 43.6 48, 12 48 M12 48 C4 48, 0 44, 0 36 M0 36 C0 28.21, 0 20.41, 0 12 M0 12 C0 4, 4 0, 12 0" stroke="#e67700" stroke-width="1.5" fill="none" stroke-dasharray="8 9"></path></g><g transform="translate(265.4749429105508 97.35612723536485) rotate(0 45.34576416015625 9)"><text x="45.34576416015625" y="0" font-family="Virgil, Segoe UI Emoji" font-size="15.265202633623687px" fill="#e67700" text-anchor="middle" style="white-space: pre;" direction="ltr" dominant-baseline="text-before-edge">data page 1</text></g><g stroke-linecap="round" transform="translate(399 35.179359558597184) rotate(0 70.5 53)"><path d="M26.65 1.56 L113.26 -0.69 L127.01 0.77 L134.91 5.93 L139.84 14.48 L142.45 27.71 L141.27 86.9 L140.19 91.57 L135.23 97.48 L126.74 103.79 L114.51 104.37 L25.9 107.4 L13.63 106.3 L4.84 99.87 L4.89 94.38 L-0.78 85.51 L1.5 18.75 L5.22 11.64 L10.21 4.56 L25.68 -0.15" stroke="none" stroke-width="0" fill="#fff"></path><path d="M26.5 0 M26.5 0 C56.08 1.63, 84.89 -1.58, 114.5 0 M26.5 0 C53.14 -0.45, 81.76 0.89, 114.5 0 M114.5 0 C130.97 -1.77, 140.53 7.45, 141 26.5 M114.5 0 C134.28 1.31, 142.32 9.87, 141 26.5 M141 26.5 C142.36 46.77, 141.8 69.14, 141 79.5 M141 26.5 C142.27 46.1, 140.57 68.44, 141 79.5 M141 79.5 C141.47 95.9, 132.76 104.98, 114.5 106 M141 79.5 C143.3 97.53, 130.79 107.03, 114.5 106 M114.5 106 C93.76 108.01, 71.12 104.86, 26.5 106 M114.5 106 C86.66 107.03, 56.99 107.73, 26.5 106 M26.5 106 C9.35 107.45, 0.9 95.79, 0 79.5 M26.5 106 C10.83 107.08, 0.21 95.2, 0 79.5 M0 79.5 C1.05 67.86, 1.61 59.18, 0 26.5 M0 79.5 C-0.9 68.54, 0.43 57.05, 0 26.5 M0 26.5 C-0.12 9.04, 7.79 -0.67, 26.5 0 M0 26.5 C-1.62 6.87, 10.31 1.68, 26.5 0" stroke="#e67700" stroke-width="1" fill="none"></path></g><g transform="translate(418.6598892211914 49.77935955859721) rotate(0 50.840110778808594 38.400000000000006)"><text x="50.840110778808594" y="0" font-family="Virgil, Segoe UI Emoji" font-size="16px" fill="#e67700" text-anchor="middle" style="white-space: pre;" direction="ltr" dominant-baseline="text-before-edge">allocated blk</text><text x="50.840110778808594" y="19.2" font-family="Virgil, Segoe UI Emoji" font-size="16px" fill="#e67700" text-anchor="middle" style="white-space: pre;" direction="ltr" dominant-baseline="text-before-edge"></text><text x="50.840110778808594" y="38.4" font-family="Virgil, Segoe UI Emoji" font-size="16px" fill="#e67700" text-anchor="middle" style="white-space: pre;" direction="ltr" dominant-baseline="text-before-edge"></text><text x="50.840110778808594" y="57.599999999999994" font-family="Virgil, Segoe UI Emoji" font-size="16px" fill="#e67700" text-anchor="middle" style="white-space: pre;" direction="ltr" dominant-baseline="text-before-edge"></text></g><g stroke-linecap="round" transform="translate(408.8737373737373 81.10612723536485) rotate(0 59.5 24)"><path d="M12 0 L107 0 L112.25 0.75 L116 3 L118.81 9.19 L119 36 L118.25 41.25 L117.31 43.31 L114.31 46.31 L107 48 L12 48 L6.75 47.25 L3 45 L0.19 38.81 L0.19 9.19 L3 3 L6.75 0.75 L12 0" stroke="none" stroke-width="0" fill="#fab00533"></path><path d="M12 0 M12 0 C36.63 0, 61.25 0, 107 0 M107 0 C115 0, 119 4, 119 12 M119 12 C119 18.26, 119 24.52, 119 36 M119 36 C119 44, 115 48, 107 48 M107 48 C73.03 48, 39.06 48, 12 48 M12 48 C4 48, 0 44, 0 36 M0 36 C0 28.63, 0 21.26, 0 12 M0 12 C0 4, 4 0, 12 0" stroke="#e67700" stroke-width="1.5" fill="none" stroke-dasharray="8 9"></path></g><g transform="translate(419.66535572090527 96.10612723536485) rotate(0 48.70838165283203 9)"><text x="48.70838165283203" y="0" font-family="Virgil, Segoe UI Emoji" font-size="15.265202633623687px" fill="#e67700" text-anchor="middle" style="white-space: pre;" direction="ltr" dominant-baseline="text-before-edge">data page 2</text></g><g stroke-linecap="round" transform="translate(554.5 33.179359558597184) rotate(0 70.5 53)"><path d="M28.24 -0.2 L114.95 1.93 L124.73 0.6 L132.75 5.17 L138.36 15.24 L142.31 25.11 L142.24 84.97 L139.57 89.57 L133.6 99.01 L125.11 104.44 L114.83 105.97 L26.97 107.01 L14.36 103.69 L6.9 99.73 L2.73 95.1 L1.45 86.59 L-0.32 18.85 L2 9.24 L10.83 5.28 L24.89 -1.68" stroke="none" stroke-width="0" fill="#fff"></path><path d="M26.5 0 M26.5 0 C56.86 -2.22, 85.51 -0.84, 114.5 0 M26.5 0 C49.8 0.35, 71.13 0.53, 114.5 0 M114.5 0 C133.91 -1.59, 142.48 7.73, 141 26.5 M114.5 0 C130.14 1.74, 140.46 9.72, 141 26.5 M141 26.5 C142.55 46.64, 139.29 62.85, 141 79.5 M141 26.5 C141.15 37.79, 141.25 48.22, 141 79.5 M141 79.5 C140.89 96.89, 131.8 104.59, 114.5 106 M141 79.5 C141.73 95.89, 132.27 103.89, 114.5 106 M114.5 106 C79.79 105.25, 47.9 104.5, 26.5 106 M114.5 106 C87.15 106.46, 59.68 106.23, 26.5 106 M26.5 106 C6.87 104.57, 1.43 96.79, 0 79.5 M26.5 106 C9.2 104.09, -2.01 99.02, 0 79.5 M0 79.5 C-0.74 61.83, 0.75 41.8, 0 26.5 M0 79.5 C-0.27 61.36, 1.03 41.9, 0 26.5 M0 26.5 C-1.32 10.28, 7.82 -0.11, 26.5 0 M0 26.5 C0.61 9.52, 8.77 0.12, 26.5 0" stroke="#e67700" stroke-width="1" fill="none"></path></g><g transform="translate(574.1598892211914 47.77935955859721) rotate(0 50.840110778808594 38.400000000000006)"><text x="50.840110778808594" y="0" font-family="Virgil, Segoe UI Emoji" font-size="16px" fill="#e67700" text-anchor="middle" style="white-space: pre;" direction="ltr" dominant-baseline="text-before-edge">allocated blk</text><text x="50.840110778808594" y="19.2" font-family="Virgil, Segoe UI Emoji" font-size="16px" fill="#e67700" text-anchor="middle" style="white-space: pre;" direction="ltr" dominant-baseline="text-before-edge"></text><text x="50.840110778808594" y="38.4" font-family="Virgil, Segoe UI Emoji" font-size="16px" fill="#e67700" text-anchor="middle" style="white-space: pre;" direction="ltr" dominant-baseline="text-before-edge"></text><text x="50.840110778808594" y="57.599999999999994" font-family="Virgil, Segoe UI Emoji" font-size="16px" fill="#e67700" text-anchor="middle" style="white-space: pre;" direction="ltr" dominant-baseline="text-before-edge"></text></g><g stroke-linecap="round" transform="translate(563.8737373737374 79.10612723536485) rotate(0 59.5 24)"><path d="M12 0 L107 0 L112.25 0.75 L116 3 L118.81 9.19 L119 36 L118.25 41.25 L117.31 43.31 L114.31 46.31 L107 48 L12 48 L6.75 47.25 L3 45 L0.19 38.81 L0.19 9.19 L3 3 L6.75 0.75 L12 0" stroke="none" stroke-width="0" fill="#fab00533"></path><path d="M12 0 M12 0 C32.85 0, 53.7 0, 107 0 M107 0 C115 0, 119 4, 119 12 M119 12 C119 18.56, 119 25.13, 119 36 M119 36 C119 44, 115 48, 107 48 M107 48 C80.75 48, 54.49 48, 12 48 M12 48 C4 48, 0 44, 0 36 M0 36 C0 27.39, 0 18.79, 0 12 M0 12 C0 4, 4 0, 12 0" stroke="#e67700" stroke-width="1.5" fill="none" stroke-dasharray="8 9"></path></g><g transform="translate(575.1838493732491 94.10612723536485) rotate(0 48.18988800048828 9)"><text x="48.18988800048828" y="0" font-family="Virgil, Segoe UI Emoji" font-size="15.265202633623687px" fill="#e67700" text-anchor="middle" style="white-space: pre;" direction="ltr" dominant-baseline="text-before-edge">data page N</text></g></svg>