<svg version="1.1" xmlns="http://www.w3.org/2000/svg" viewBox="0 0 799.0000000000001 266.91505797523655" width="1598.0000000000002" height="533.8301159504731">
  <!-- svg-source:excalidraw -->
  
  <defs>
    <style class="style-fonts">
      @font-face {
        font-family: "Virgil";
        src: url("https://excalidraw.com/Virgil.woff2");
      }
      @font-face {
        font-family: "Cascadia";
        src: url("https://excalidraw.com/Cascadia.woff2");
      }
    </style>
  </defs>
  <rect x="0" y="0" width="799.0000000000001" height="266.91505797523655" fill="#ffffff"></rect><g stroke-linecap="round" transform="translate(12 96.20000000000002) rotate(0 388.50000000000006 37)"><path d="M22.09 -3.36 L761.03 -1.34 L773.66 -0.56 L777.06 10.38 L773.41 62.27 L774.81 68.77 L769.41 75.33 L758.97 71.34 L15.64 73.32 L10.49 72.1 L-0.67 63.19 L3.85 15.11 L1.51 2.44 L20.96 -0.62" stroke="none" stroke-width="0" fill="#40c05733"></path><path d="M18.5 0 M18.5 0 C314.14 -2.06, 610.32 -2.13, 758.5 0 M18.5 0 C238.98 -2.67, 460.42 -3.97, 758.5 0 M758.5 0 C774.66 1.25, 775.18 6.73, 777 18.5 M758.5 0 C773.02 0.9, 778.97 8.55, 777 18.5 M777 18.5 C778.89 26.29, 780.48 35.54, 777 55.5 M777 18.5 C775.75 31.83, 777.84 44, 777 55.5 M777 55.5 C780.69 71.78, 766.99 75.8, 758.5 74 M777 55.5 C772.77 63.34, 767.52 69.84, 758.5 74 M758.5 74 C583.65 80.95, 411.06 79.35, 18.5 74 M758.5 74 C534.35 78.27, 310.62 77.23, 18.5 74 M18.5 74 C2.22 70.89, 2.32 64.12, 0 55.5 M18.5 74 C3.72 75.86, -1.78 69.21, 0 55.5 M0 55.5 C-0.74 47.67, -2.18 31.93, 0 18.5 M0 55.5 C1.48 39.9, -1.18 24.86, 0 18.5 M0 18.5 C-1.55 5.84, 6.31 -3.23, 18.5 0 M0 18.5 C-1.38 8.93, 3.41 -3.49, 18.5 0" stroke="#2b8a3e" stroke-width="1" fill="none"></path></g><g transform="translate(313.5 10) rotate(0 73.90630340576172 16.799999999999997)"><text x="0" y="0" font-family="Virgil, Segoe UI Emoji" font-size="28px" fill="#087f5b" text-anchor="start" style="white-space: pre;" direction="ltr" dominant-baseline="text-before-edge">data area</text></g><g transform="translate(323 232.80000000000004) rotate(359.8962637780171 63.55992889404297 12)"><text x="0" y="0" font-family="Virgil, Segoe UI Emoji" font-size="20px" fill="#e6770033" text-anchor="start" style="white-space: pre;" direction="ltr" dominant-baseline="text-before-edge">@hemashushu</text></g><g stroke-linecap="round" transform="translate(28 117.70000000000002) rotate(0 56 18)"><path d="M9 0 L103 0 L106.94 0.56 L109.75 2.25 L111.44 5.06 L112 9 L111.44 30.94 L109.75 33.75 L106.94 35.44 L103 36 L9 36 L5.06 35.44 L2.25 33.75 L0.56 30.94 L0 9 L0.56 5.06 L2.25 2.25 L5.06 0.56 L9 0" stroke="none" stroke-width="0" fill="#ffffff"></path><path d="M9 0 M9 0 C29.77 0, 50.54 0, 103 0 M103 0 C109 0, 112 3, 112 9 M112 9 C112 15.06, 112 21.13, 112 27 M112 27 C112 33, 109 36, 103 36 M103 36 C76.25 36, 49.5 36, 9 36 M9 36 C3 36, 0 33, 0 27 M0 27 C0 22.13, 0 17.25, 0 9 M0 9 C0 3, 3 0, 9 0" stroke="#e67700" stroke-width="1.5" fill="none" stroke-dasharray="1.5 7"></path></g><g transform="translate(47.22392272949219 126.1) rotate(0 36.77607727050781 9.599999999999994)"><text x="36.77607727050781" y="0" font-family="Virgil, Segoe UI Emoji" font-size="16px" fill="#e67700" text-anchor="middle" style="white-space: pre;" direction="ltr" dominant-baseline="text-before-edge">allocated</text></g><g stroke-linecap="round" transform="translate(256 117.70000000000002) rotate(0 34 17)"><path d="M8.5 0 L63.22 0.53 L65.88 2.13 L67.47 4.78 L68 8.5 L67.47 29.22 L65.88 31.88 L63.22 33.47 L59.5 34 L4.78 33.47 L2.12 31.88 L0.53 29.22 L0 8.5 L0.53 4.78 L2.13 2.12 L4.78 0.53 L8.5 0" stroke="none" stroke-width="0" fill="#ffffff"></path><path d="M8.5 0 M8.5 0 C19.77 0, 31.04 0, 59.5 0 M59.5 0 C65.17 0, 68 2.83, 68 8.5 M68 8.5 C68 14.23, 68 19.95, 68 25.5 M68 25.5 C68 31.17, 65.17 34, 59.5 34 M59.5 34 C44.99 34, 30.48 34, 8.5 34 M8.5 34 C2.83 34, 0 31.17, 0 25.5 M0 25.5 C0 20.9, 0 16.29, 0 8.5 M0 8.5 C0 2.83, 2.83 0, 8.5 0" stroke="#364fc7" stroke-width="1.5" fill="none" stroke-dasharray="8 9"></path></g><g transform="translate(273.9199676513672 125.1) rotate(0 16.080032348632812 9.599999999999994)"><text x="16.080032348632812" y="0" font-family="Virgil, Segoe UI Emoji" font-size="16px" fill="#364fc7" text-anchor="middle" style="white-space: pre;" direction="ltr" dominant-baseline="text-before-edge">free</text></g><g stroke-linecap="round" transform="translate(154.5 117.70000000000002) rotate(0 43 17.5)"><path d="M8.75 0 L77.25 0 L81.08 0.55 L83.81 2.19 L85.45 4.92 L86 8.75 L85.45 30.08 L83.81 32.81 L81.08 34.45 L77.25 35 L8.75 35 L4.92 34.45 L2.19 32.81 L0.55 30.08 L0 8.75 L0.55 4.92 L2.19 2.19 L4.92 0.55 L8.75 0" stroke="none" stroke-width="0" fill="#ffffff"></path><path d="M8.75 0 M8.75 0 C29.26 0, 49.78 0, 77.25 0 M77.25 0 C83.08 0, 86 2.92, 86 8.75 M86 8.75 C86 13.33, 86 17.92, 86 26.25 M86 26.25 C86 32.08, 83.08 35, 77.25 35 M77.25 35 C53.29 35, 29.34 35, 8.75 35 M8.75 35 C2.92 35, 0 32.08, 0 26.25 M0 26.25 C0 22.73, 0 19.22, 0 8.75 M0 8.75 C0 2.92, 2.92 0, 8.75 0" stroke="#e67700" stroke-width="1.5" fill="none" stroke-dasharray="1.5 7"></path></g><g transform="translate(160.7239227294922 125.6) rotate(0 36.77607727050781 9.599999999999994)"><text x="36.77607727050781" y="0" font-family="Virgil, Segoe UI Emoji" font-size="16px" fill="#e67700" text-anchor="middle" style="white-space: pre;" direction="ltr" dominant-baseline="text-before-edge">allocated</text></g><g stroke-linecap="round" transform="translate(340 117.70000000000002) rotate(0 43 17.5)"><path d="M8.75 0 L77.25 0 L81.08 0.55 L83.81 2.19 L85.45 4.92 L86 8.75 L85.45 30.08 L83.81 32.81 L81.08 34.45 L77.25 35 L8.75 35 L4.92 34.45 L2.19 32.81 L0.55 30.08 L0 8.75 L0.55 4.92 L2.19 2.19 L4.92 0.55 L8.75 0" stroke="none" stroke-width="0" fill="#ffffff"></path><path d="M8.75 0 M8.75 0 C26.93 0, 45.12 0, 77.25 0 M77.25 0 C83.08 0, 86 2.92, 86 8.75 M86 8.75 C86 12.44, 86 16.13, 86 26.25 M86 26.25 C86 32.08, 83.08 35, 77.25 35 M77.25 35 C50.57 35, 23.89 35, 8.75 35 M8.75 35 C2.92 35, 0 32.08, 0 26.25 M0 26.25 C0 22.08, 0 17.91, 0 8.75 M0 8.75 C0 2.92, 2.92 0, 8.75 0" stroke="#e67700" stroke-width="1.5" fill="none" stroke-dasharray="1.5 7"></path></g><g transform="translate(346.2239227294922 125.6) rotate(0 36.77607727050781 9.599999999999994)"><text x="36.77607727050781" y="0" font-family="Virgil, Segoe UI Emoji" font-size="16px" fill="#e67700" text-anchor="middle" style="white-space: pre;" direction="ltr" dominant-baseline="text-before-edge">allocated</text></g><g stroke-linecap="round" transform="translate(441.5 117.70000000000002) rotate(0 49 16.5)"><path d="M8.25 0 L93.36 0.52 L95.94 2.06 L97.48 4.64 L98 8.25 L97.48 28.36 L95.94 30.94 L93.36 32.48 L89.75 33 L4.64 32.48 L2.06 30.94 L0.52 28.36 L0 8.25 L0.52 4.64 L2.06 2.06 L4.64 0.52 L8.25 0" stroke="none" stroke-width="0" fill="#ffffff"></path><path d="M8.25 0 M8.25 0 C38.28 0, 68.3 0, 89.75 0 M89.75 0 C95.25 0, 98 2.75, 98 8.25 M98 8.25 C98 13.6, 98 18.94, 98 24.75 M98 24.75 C98 30.25, 95.25 33, 89.75 33 M89.75 33 C63.3 33, 36.86 33, 8.25 33 M8.25 33 C2.75 33, 0 30.25, 0 24.75 M0 24.75 C0 18.45, 0 12.15, 0 8.25 M0 8.25 C0 2.75, 2.75 0, 8.25 0" stroke="#364fc7" stroke-width="1.5" fill="none" stroke-dasharray="8 9"></path></g><g transform="translate(474.4199676513672 124.6) rotate(0 16.080032348632812 9.599999999999994)"><text x="16.080032348632812" y="0" font-family="Virgil, Segoe UI Emoji" font-size="16px" fill="#364fc7" text-anchor="middle" style="white-space: pre;" direction="ltr" dominant-baseline="text-before-edge">free</text></g><g stroke-linecap="round" transform="translate(553 117.70000000000002) rotate(0 43 17.5)"><path d="M8.75 0 L77.25 0 L81.08 0.55 L83.81 2.19 L85.45 4.92 L86 8.75 L85.45 30.08 L83.81 32.81 L81.08 34.45 L77.25 35 L8.75 35 L4.92 34.45 L2.19 32.81 L0.55 30.08 L0 8.75 L0.55 4.92 L2.19 2.19 L4.92 0.55 L8.75 0" stroke="none" stroke-width="0" fill="#ffffff"></path><path d="M8.75 0 M8.75 0 C26.24 0, 43.74 0, 77.25 0 M77.25 0 C83.08 0, 86 2.92, 86 8.75 M86 8.75 C86 12.3, 86 15.85, 86 26.25 M86 26.25 C86 32.08, 83.08 35, 77.25 35 M77.25 35 C58.68 35, 40.11 35, 8.75 35 M8.75 35 C2.92 35, 0 32.08, 0 26.25 M0 26.25 C0 21.08, 0 15.91, 0 8.75 M0 8.75 C0 2.92, 2.92 0, 8.75 0" stroke="#e67700" stroke-width="1.5" fill="none" stroke-dasharray="1.5 7"></path></g><g transform="translate(559.2239227294922 125.6) rotate(0 36.77607727050781 9.599999999999994)"><text x="36.77607727050781" y="0" font-family="Virgil, Segoe UI Emoji" font-size="16px" fill="#e67700" text-anchor="middle" style="white-space: pre;" direction="ltr" dominant-baseline="text-before-edge">allocated</text></g><g stroke-linecap="round" transform="translate(651 117.70000000000002) rotate(0 61.5 16.5)"><path d="M8.25 0 L118.36 0.52 L120.94 2.06 L122.48 4.64 L123 8.25 L122.48 28.36 L120.94 30.94 L118.36 32.48 L114.75 33 L4.64 32.48 L2.06 30.94 L0.52 28.36 L0 8.25 L0.52 4.64 L2.06 2.06 L4.64 0.52 L8.25 0" stroke="none" stroke-width="0" fill="#ffffff"></path><path d="M8.25 0 M8.25 0 C33.01 0, 57.76 0, 114.75 0 M114.75 0 C120.25 0, 123 2.75, 123 8.25 M123 8.25 C123 12.3, 123 16.35, 123 24.75 M123 24.75 C123 30.25, 120.25 33, 114.75 33 M114.75 33 C79.52 33, 44.3 33, 8.25 33 M8.25 33 C2.75 33, 0 30.25, 0 24.75 M0 24.75 C0 19.02, 0 13.28, 0 8.25 M0 8.25 C0 2.75, 2.75 0, 8.25 0" stroke="#364fc7" stroke-width="1.5" fill="none" stroke-dasharray="8 9"></path></g><g transform="translate(696.4199676513672 124.6) rotate(0 16.080032348632812 9.599999999999994)"><text x="16.080032348632812" y="0" font-family="Virgil, Segoe UI Emoji" font-size="16px" fill="#364fc7" text-anchor="middle" style="white-space: pre;" direction="ltr" dominant-baseline="text-before-edge">free</text></g><g stroke-linecap="round"><g transform="translate(176.00410726132588 63.92827430804746) rotate(0 39.74533441381726 22.201040420986516)"><path d="M0 0 C8.51 0.77, 37.84 -2.84, 51.09 4.6 C64.34 12.04, 74.76 37.95, 79.49 44.62" stroke="#1864ab" stroke-width="1.5" fill="none" stroke-dasharray="8 9"></path></g><g transform="translate(176.00410726132588 63.92827430804746) rotate(0 39.74533441381726 22.201040420986516)"><path d="M60.88 28.63 C66.2 33.19, 71.51 37.76, 79.49 44.62" stroke="#1864ab" stroke-width="1.5" fill="none"></path></g><g transform="translate(176.00410726132588 63.92827430804746) rotate(0 39.74533441381726 22.201040420986516)"><path d="M75.51 20.41 C76.65 27.32, 77.79 34.24, 79.49 44.62" stroke="#1864ab" stroke-width="1.5" fill="none"></path></g></g><mask></mask><g stroke-linecap="round"><g transform="translate(328.42096582662623 107.78411399920836) rotate(0 58.71240122009732 -16.310112709478915)"><path d="M0 0 C5.43 -4.85, 18.32 -24.15, 32.58 -29.08 C46.84 -34.01, 71.44 -34.5, 85.58 -29.58 C99.72 -24.67, 112.12 -4.58, 117.42 0.42" stroke="#1864ab" stroke-width="1.5" fill="none" stroke-dasharray="8 9"></path></g><g transform="translate(328.42096582662623 107.78411399920836) rotate(0 58.71240122009732 -16.310112709478915)"><path d="M98.45 -10.47 C102.67 -8.05, 106.89 -5.63, 117.42 0.42" stroke="#1864ab" stroke-width="1.5" fill="none"></path></g><g transform="translate(328.42096582662623 107.78411399920836) rotate(0 58.71240122009732 -16.310112709478915)"><path d="M109.88 -20.12 C111.56 -15.55, 113.24 -10.98, 117.42 0.42" stroke="#1864ab" stroke-width="1.5" fill="none"></path></g></g><mask></mask><g stroke-linecap="round"><g transform="translate(540.9781014673081 107.19690175995103) rotate(0 57.12525506151633 -15.412576996793746)"><path d="M0 0 C4.88 -4.9, 14.71 -24.58, 29.25 -29.4 C43.79 -34.22, 73.08 -34.15, 87.25 -28.9 C101.42 -23.65, 109.75 -3.07, 114.25 2.1" stroke="#1864ab" stroke-width="1.5" fill="none" stroke-dasharray="8 9"></path></g><g transform="translate(540.9781014673081 107.19690175995103) rotate(0 57.12525506151633 -15.412576996793746)"><path d="M97.88 -10.33 C104.17 -5.56, 110.45 -0.79, 114.25 2.1" stroke="#1864ab" stroke-width="1.5" fill="none"></path></g><g transform="translate(540.9781014673081 107.19690175995103) rotate(0 57.12525506151633 -15.412576996793746)"><path d="M109.71 -17.94 C111.45 -10.25, 113.19 -2.56, 114.25 2.1" stroke="#1864ab" stroke-width="1.5" fill="none"></path></g></g><mask></mask><g transform="translate(10 51.70000000000002) rotate(0 77.25616455078125 9.599999999999994)"><text x="0" y="0" font-family="Virgil, Segoe UI Emoji" font-size="16px" fill="#1864ab" text-anchor="start" style="white-space: pre;" direction="ltr" dominant-baseline="text-before-edge">first free block pos</text></g><g stroke-linecap="round"><g transform="translate(760.5 158.14480730460556) rotate(0 -117.23465280197564 18.571549120633932)"><path d="M-0.03 0.91 C-8.51 6.54, -18.31 28.25, -49.98 33.7 C-81.64 39.15, -159.3 39.33, -190.04 33.6 C-220.79 27.87, -226.91 4.86, -234.44 -0.7" stroke="#5c940d" stroke-width="1.5" fill="none" stroke-dasharray="8 9"></path></g><g transform="translate(760.5 158.14480730460556) rotate(0 -117.23465280197564 18.571549120633932)"><path d="M-208.83 13.84 C-219.38 8.31, -226.66 4.74, -234.87 -0.19" stroke="#5c940d" stroke-width="1.5" fill="none"></path></g><g transform="translate(760.5 158.14480730460556) rotate(0 -117.23465280197564 18.571549120633932)"><path d="M-223.78 25.93 C-228.74 15.9, -230.44 7.82, -234.87 -0.19" stroke="#5c940d" stroke-width="1.5" fill="none"></path></g></g><mask></mask><g stroke-linecap="round"><g transform="translate(446.7346528019756 165.297628693004) rotate(0 -62.94277101685694 12.642685842941432)"><path d="M-0.31 -1.01 C-4.75 3.33, -11.06 21.4, -27.78 25.69 C-44.5 29.97, -84.35 29.52, -100.64 24.68 C-116.94 19.85, -121.55 1.61, -125.58 -3.34" stroke="#5c940d" stroke-width="1.5" fill="none" stroke-dasharray="8 9"></path></g><g transform="translate(446.7346528019756 165.297628693004) rotate(0 -62.94277101685694 12.642685842941432)"><path d="M-112.69 7.53 C-115.38 7.57, -118.72 3.09, -123.94 -3.03" stroke="#5c940d" stroke-width="1.5" fill="none"></path></g><g transform="translate(446.7346528019756 165.297628693004) rotate(0 -62.94277101685694 12.642685842941432)"><path d="M-124.15 13.92 C-124.46 12.68, -125.45 6.88, -123.94 -3.03" stroke="#5c940d" stroke-width="1.5" fill="none"></path></g></g><mask></mask></svg>