<svg version="1.1" xmlns="http://www.w3.org/2000/svg" viewBox="0 0 675.6176785209152 324.75752898761823" width="1351.2353570418304" height="649.5150579752365">
  <!-- svg-source:excalidraw -->
  
  <defs>
    <style class="style-fonts">
      @font-face {
        font-family: "Virgil";
        src: url("https://excalidraw.com/Virgil.woff2");
      }
      @font-face {
        font-family: "Cascadia";
        src: url("https://excalidraw.com/Cascadia.woff2");
      }
    </style>
  </defs>
  <rect x="0" y="0" width="675.6176785209152" height="324.75752898761823" fill="#ffffff"></rect><g stroke-linecap="round" transform="translate(382.99999999999983 10) rotate(0 116.5 25)"><path d="M11.84 -1.77 L224.08 1.83 L231.71 2.09 L231.97 6.68 L232.74 41.05 L228.67 45.97 L220.3 49.38 L9.22 51.5 L5.38 49.24 L0.88 42.74 L0.01 11.35 L2.93 1.35 L13.72 -0.13" stroke="none" stroke-width="0" fill="#fab00533"></path><path d="M12.5 0 M12.5 0 C56.68 -0.63, 102.29 -1.06, 220.5 0 M12.5 0 C66.37 0.83, 120.57 -0.39, 220.5 0 M220.5 0 C229.27 -1.5, 234.63 5.47, 233 12.5 M220.5 0 C230.12 -0.64, 234.15 2.15, 233 12.5 M233 12.5 C231.36 21.6, 231.34 28.98, 233 37.5 M233 12.5 C233.75 18.87, 232.65 27.85, 233 37.5 M233 37.5 C234.41 44.69, 230.03 51.53, 220.5 50 M233 37.5 C232.09 46.92, 229.56 47.8, 220.5 50 M220.5 50 C147.74 50.59, 72.58 50.15, 12.5 50 M220.5 50 C141.84 50.25, 62.68 49.58, 12.5 50 M12.5 50 C5.68 50.04, -0.06 45.76, 0 37.5 M12.5 50 C6.06 52.04, -0.5 46.42, 0 37.5 M0 37.5 C-0.55 29.81, 0.62 20.78, 0 12.5 M0 37.5 C0.71 29.83, 0.52 21.92, 0 12.5 M0 12.5 C-0.43 3.74, 4.82 1.04, 12.5 0 M0 12.5 C0.85 5.22, 3.23 0.47, 12.5 0" stroke="#e67700" stroke-width="1" fill="none"></path></g><g transform="translate(424.44383239746077 25.399999999999977) rotate(0 75.05616760253906 9.599999999999994)"><text x="75.05616760253906" y="0" font-family="Virgil, Segoe UI Emoji" font-size="16px" fill="#e67700" text-anchor="middle" style="white-space: pre;" direction="ltr" dominant-baseline="text-before-edge">class 0 data page</text></g><g transform="translate(68.99999999999997 277.6) rotate(359.8962637780171 63.559928894042955 12)"><text x="0" y="0" font-family="Virgil, Segoe UI Emoji" font-size="20px" fill="#e6770033" text-anchor="start" style="white-space: pre;" direction="ltr" dominant-baseline="text-before-edge">@hemashushu</text></g><g stroke-linecap="round"><g transform="translate(634.3367663189317 115.39999999999998) rotate(0 -128.39475127509004 49.06456843112568)"><path d="M0 0 C4.53 2.73, 26.97 8.96, 27.16 16.36 C27.36 23.75, 46.33 38.98, 1.16 44.36 C-44 49.73, -195.67 42.93, -243.84 48.6 C-292 54.27, -284.93 70.1, -287.84 78.36 C-290.74 86.61, -265.69 94.83, -261.26 98.13" stroke="#e67700" stroke-width="1.5" fill="none" stroke-dasharray="8 9"></path></g><g transform="translate(634.3367663189317 115.39999999999998) rotate(0 -128.39475127509004 49.06456843112568)"><path d="M-277.71 96.17 C-271.8 96.87, -265.9 97.58, -261.26 98.13" stroke="#e67700" stroke-width="1.5" fill="none"></path></g><g transform="translate(634.3367663189317 115.39999999999998) rotate(0 -128.39475127509004 49.06456843112568)"><path d="M-272.6 86.06 C-268.53 90.39, -264.46 94.73, -261.26 98.13" stroke="#e67700" stroke-width="1.5" fill="none"></path></g></g><mask></mask><g stroke-linecap="round" transform="translate(10 21.25752898761823) rotate(0 128.5 95)"><path d="M31.17 0.72 L226.42 0.63 L237.46 2.48 L247.25 6.41 L253.36 16.08 L255.18 31.51 L258.06 157.89 L253.57 172.38 L249.63 180.93 L238.73 189.08 L226.08 190.79 L30.84 189.24 L16.29 189.65 L8.02 182.09 L0.09 170.29 L0.26 156.46 L-1.33 22.58 L1.5 18.76 L6.16 9 L16.54 1.03 L33.59 1.61" stroke="none" stroke-width="0" fill="#e6498033"></path><path d="M32 0 M32 0 C99.69 -1.96, 168.73 -1.44, 225 0 M32 0 C81.16 0.41, 130.48 0.24, 225 0 M225 0 C247.19 -1.14, 256.06 12.38, 257 32 M225 0 C245.23 1.24, 258.1 12.11, 257 32 M257 32 C257.73 66.96, 257.05 107.28, 257 158 M257 32 C257.15 63.59, 257.51 96.24, 257 158 M257 158 C256.15 181.13, 247.5 188.22, 225 190 M257 158 C256.43 177.38, 244.26 187.91, 225 190 M225 190 C165.89 191.48, 104.37 191.42, 32 190 M225 190 C161.88 188.09, 98.36 190, 32 190 M32 190 C9.78 189.11, 0.29 181.29, 0 158 M32 190 C11.09 189.38, 2.25 179.27, 0 158 M0 158 C-1.24 115.95, -0.32 74.41, 0 32 M0 158 C1.05 117.9, 1.05 76.13, 0 32 M0 32 C-0.75 10.93, 11.85 0.06, 32 0 M0 32 C0.26 9.34, 8.6 -0.69, 32 0" stroke="#a61e4d" stroke-width="1" fill="none"></path></g><g transform="translate(97.92391204833984 26.25752898761823) rotate(0 40.576087951660156 9.599999999999994)"><text x="40.576087951660156" y="0" font-family="Virgil, Segoe UI Emoji" font-size="16px" fill="#a61e4d" text-anchor="middle" style="white-space: pre;" direction="ltr" dominant-baseline="text-before-edge">index page</text></g><g stroke-linecap="round" transform="translate(22 54.75752898761823) rotate(0 117 15)"><path d="M6.78 0.79 L227.08 0.04 L228.2 -0.95 L232.73 3.27 L234.51 23.59 L233.44 26.23 L224.62 30.11 L6.68 28.53 L2.55 29.16 L0.93 22.79 L1.02 5.06 L4.85 0.35 L6.48 -1.9" stroke="none" stroke-width="0" fill="#e6498033"></path><path d="M7.5 0 M7.5 0 C75.07 -0.45, 145.85 0.83, 226.5 0 M226.5 0 C230.8 -1.41, 235.98 4.38, 234 7.5 M234 7.5 C233.38 11.58, 235.25 15.31, 234 22.5 M234 22.5 C235.17 27.6, 230.61 30.78, 226.5 30 M226.5 30 C156.84 28.24, 89.75 28.44, 7.5 30 M7.5 30 C1.24 31.05, -0.02 26.03, 0 22.5 M0 22.5 C0.23 17.89, 1.23 16.47, 0 7.5 M0 7.5 C0.22 3.85, 2.99 -1.25, 7.5 0" stroke="#a61e4d" stroke-width="1.5" fill="none" stroke-dasharray="8 9"></path></g><g transform="translate(41.975791931152344 60.15752898761821) rotate(0 97.02420806884766 9.599999999999994)"><text x="97.02420806884766" y="0" font-family="Virgil, Segoe UI Emoji" font-size="16px" fill="#a61e4d" text-anchor="middle" style="white-space: pre;" direction="ltr" dominant-baseline="text-before-edge">class 0 head itemoffset</text></g><g stroke-linecap="round" transform="translate(23 93.75752898761823) rotate(0 117 15)"><path d="M5.88 0.55 L227.61 0.42 L231.55 -0.59 L233.05 6.16 L233.86 21.58 L232.9 28.81 L227.41 30.55 L9.32 30.75 L1.96 26.62 L1.54 21.37 L1.92 5.92 L2.93 -1.18 L7.49 -1.48" stroke="none" stroke-width="0" fill="#e6498033"></path><path d="M7.5 0 M7.5 0 C50.36 0.39, 94.76 -0.45, 226.5 0 M226.5 0 C231.9 -0.78, 232.96 0.53, 234 7.5 M234 7.5 C233.23 9.77, 234.44 14.91, 234 22.5 M234 22.5 C235.96 26.41, 231.14 30.01, 226.5 30 M226.5 30 C151.4 29.92, 75.43 29.09, 7.5 30 M7.5 30 C2.89 28.97, 0.04 27.2, 0 22.5 M0 22.5 C1.02 17.86, -0.69 14.67, 0 7.5 M0 7.5 C0.72 2.16, 2.72 -0.29, 7.5 0" stroke="#a61e4d" stroke-width="1.5" fill="none" stroke-dasharray="8 9"></path></g><g transform="translate(46.311798095703125 99.1575289876182) rotate(0 93.68820190429688 9.599999999999994)"><text x="93.68820190429688" y="0" font-family="Virgil, Segoe UI Emoji" font-size="16px" fill="#a61e4d" text-anchor="middle" style="white-space: pre;" direction="ltr" dominant-baseline="text-before-edge">class 1 head itemoffset</text></g><g stroke-linecap="round" transform="translate(22.999999999999943 163.25752898761823) rotate(0 117 15)"><path d="M8.63 -0.72 L227.42 1.72 L227.86 1.5 L234.16 3.12 L232.12 21.35 L232.56 28.49 L225.14 29.12 L7.28 31.18 L1.53 27.27 L1.71 20.85 L2.23 5.32 L3.08 1.25 L7.62 -1.89" stroke="none" stroke-width="0" fill="#e6498033"></path><path d="M7.5 0 M7.5 0 C67.66 2.59, 127.99 0.85, 226.5 0 M226.5 0 C231.71 1.99, 235.21 4.1, 234 7.5 M234 7.5 C233.1 12.31, 233.25 17.09, 234 22.5 M234 22.5 C235.05 26.38, 229.65 30.33, 226.5 30 M226.5 30 C148.65 32.01, 70.5 30.6, 7.5 30 M7.5 30 C1.01 28.96, -0.75 26.3, 0 22.5 M0 22.5 C-0.09 19.4, 1.41 14.86, 0 7.5 M0 7.5 C0.63 2.46, 3.89 0.85, 7.5 0" stroke="#a61e4d" stroke-width="1.5" fill="none" stroke-dasharray="8 9"></path></g><g transform="translate(40.863784790039006 168.6575289876182) rotate(0 99.13621520996094 9.600000000000023)"><text x="99.13621520996094" y="0" font-family="Virgil, Segoe UI Emoji" font-size="16px" fill="#a61e4d" text-anchor="middle" style="white-space: pre;" direction="ltr" dominant-baseline="text-before-edge">class 31 head itemoffset</text></g><g transform="translate(120.5 131.75752898761823) rotate(0 13.152008056640625 9.599999999999994)"><text x="0" y="0" font-family="Virgil, Segoe UI Emoji" font-size="16px" fill="#a61e4d" text-anchor="start" style="white-space: pre;" direction="ltr" dominant-baseline="text-before-edge">......</text></g><g stroke-linecap="round" transform="translate(381.00000000000006 89.75752898761823) rotate(0 119.5 25)"><path d="M13.32 -0.2 L229.82 0.48 L236.77 1.84 L239.29 6.87 L236.92 40.72 L236.4 47.63 L225.4 50.16 L8.31 49.66 L4.15 50.07 L-0.97 43.83 L-1.19 11.24 L1.36 3.54 L11.25 0.23" stroke="none" stroke-width="0" fill="#fab00533"></path><path d="M12.5 0 M12.5 0 C82.56 -0.61, 148.38 0.62, 226.5 0 M12.5 0 C95.62 -1.09, 179.19 -0.05, 226.5 0 M226.5 0 C233.05 -0.58, 240.06 2.17, 239 12.5 M226.5 0 C237.02 0.66, 238.22 5.2, 239 12.5 M239 12.5 C239.2 19.16, 238.51 25.42, 239 37.5 M239 12.5 C238.48 18.67, 239.24 26.58, 239 37.5 M239 37.5 C237.11 45.3, 234.26 48.06, 226.5 50 M239 37.5 C238.11 43.61, 235.71 51.56, 226.5 50 M226.5 50 C153.69 51.34, 77.62 51.78, 12.5 50 M226.5 50 C183.92 51.2, 140.52 51.25, 12.5 50 M12.5 50 C2.67 48.4, 0.65 47.48, 0 37.5 M12.5 50 C4.84 48.29, 0.62 47.76, 0 37.5 M0 37.5 C-1.56 28.96, 1.1 18.26, 0 12.5 M0 37.5 C-0.63 31.86, -1.05 26.9, 0 12.5 M0 12.5 C1.24 4.32, 2.79 1.21, 12.5 0 M0 12.5 C-0.77 2.36, 5.18 0.02, 12.5 0" stroke="#e67700" stroke-width="1" fill="none"></path></g><g transform="translate(422.6118240356446 105.1575289876182) rotate(0 77.88817596435547 9.599999999999994)"><text x="77.88817596435547" y="0" font-family="Virgil, Segoe UI Emoji" font-size="16px" fill="#e67700" text-anchor="middle" style="white-space: pre;" direction="ltr" dominant-baseline="text-before-edge">class 1 data page 1</text></g><g stroke-linecap="round" transform="translate(380.49999999999983 187.25752898761823) rotate(0 120 25)"><path d="M13.07 1.1 L229.64 1.45 L237.36 2.58 L240.93 7.52 L239.24 40.69 L235.15 48.84 L229.17 48.31 L10.28 49.49 L5.87 48.57 L0.16 41.53 L-1.16 11.42 L4.37 3.54 L10.71 -1.37" stroke="none" stroke-width="0" fill="#fab00533"></path><path d="M12.5 0 M12.5 0 C77.28 -0.38, 139.57 -0.24, 227.5 0 M12.5 0 C66.7 -2.35, 119.88 -0.79, 227.5 0 M227.5 0 C234.93 -0.29, 240.02 5.75, 240 12.5 M227.5 0 C234.84 1.76, 240.75 2.24, 240 12.5 M240 12.5 C240.38 20.94, 240.11 27.56, 240 37.5 M240 12.5 C239.81 19.45, 240.9 27.96, 240 37.5 M240 37.5 C241.31 45.45, 234.73 50.9, 227.5 50 M240 37.5 C237.75 45.46, 235.69 48.39, 227.5 50 M227.5 50 C164.43 48.55, 102.42 50.34, 12.5 50 M227.5 50 C167.35 50.92, 107.71 51.1, 12.5 50 M12.5 50 C3.4 50.89, 1.15 44.39, 0 37.5 M12.5 50 C5.95 51.35, 0.89 48.09, 0 37.5 M0 37.5 C0.21 31.63, -0.27 26.98, 0 12.5 M0 37.5 C-0.78 30.81, 1.17 21.96, 0 12.5 M0 12.5 C0.16 4.08, 4.51 1.19, 12.5 0 M0 12.5 C1.06 2.43, 6.19 0.31, 12.5 0" stroke="#e67700" stroke-width="1" fill="none"></path></g><g transform="translate(419.08381652832014 202.6575289876182) rotate(0 81.41618347167969 9.600000000000023)"><text x="81.41618347167969" y="0" font-family="Virgil, Segoe UI Emoji" font-size="16px" fill="#e67700" text-anchor="middle" style="white-space: pre;" direction="ltr" dominant-baseline="text-before-edge">class 1 data page 2</text></g><g stroke-linecap="round" transform="translate(378.49999999999994 264.75752898761823) rotate(0 120 25)"><path d="M13.09 -0.84 L230.38 1.14 L236.26 1.26 L239.39 6.39 L238.41 39.81 L235.01 48.85 L227.09 50.66 L10.93 51.39 L6.47 48.54 L-0.91 43.55 L-0.26 11.74 L3.46 4.07 L11.6 -0.99" stroke="none" stroke-width="0" fill="#fab00533"></path><path d="M12.5 0 M12.5 0 C73.49 -1, 134.65 -1.28, 227.5 0 M12.5 0 C57.86 -1.19, 101.76 -1.2, 227.5 0 M227.5 0 C236.39 1.82, 239.35 4.43, 240 12.5 M227.5 0 C236.48 1.72, 241.12 3.86, 240 12.5 M240 12.5 C239.03 21.89, 241.91 28.45, 240 37.5 M240 12.5 C240.54 22.24, 240.16 29.47, 240 37.5 M240 37.5 C239.24 47.48, 234.73 49.67, 227.5 50 M240 37.5 C239.49 47.86, 236.43 51.59, 227.5 50 M227.5 50 C164.88 50.08, 102.18 50.08, 12.5 50 M227.5 50 C156.02 51.75, 86.51 51.23, 12.5 50 M12.5 50 C2.83 50.73, -0.62 46.21, 0 37.5 M12.5 50 C4.86 48.14, -1.36 45.53, 0 37.5 M0 37.5 C-1.27 31.11, -1.01 23.54, 0 12.5 M0 37.5 C0.26 30.63, -0.18 23.21, 0 12.5 M0 12.5 C-1.21 3.9, 4.8 1.14, 12.5 0 M0 12.5 C-1.16 6.05, 4.38 0.03, 12.5 0" stroke="#e67700" stroke-width="1" fill="none"></path></g><g transform="translate(421.3318252563476 280.1575289876182) rotate(0 77.16817474365234 9.600000000000023)"><text x="77.16817474365234" y="0" font-family="Virgil, Segoe UI Emoji" font-size="16px" fill="#e67700" text-anchor="middle" style="white-space: pre;" direction="ltr" dominant-baseline="text-before-edge">class 31 data page</text></g><g stroke-linecap="round"><g transform="translate(263 68.75752898761823) rotate(0 56.51605205200613 -19.351397612318408)"><path d="M-0.6 -0.13 C9.66 -5.39, 41.59 -25.63, 60.63 -32.03 C79.67 -38.44, 104.95 -37.53, 113.64 -38.57" stroke="#e67700" stroke-width="1.5" fill="none" stroke-dasharray="8 9"></path></g><g transform="translate(263 68.75752898761823) rotate(0 56.51605205200613 -19.351397612318408)"><path d="M89.41 -28.88 C96.62 -29.38, 99.4 -33.16, 113.17 -37.8" stroke="#e67700" stroke-width="1.5" fill="none"></path></g><g transform="translate(263 68.75752898761823) rotate(0 56.51605205200613 -19.351397612318408)"><path d="M88.4 -46.72 C95.76 -43.25, 98.76 -43.06, 113.17 -37.8" stroke="#e67700" stroke-width="1.5" fill="none"></path></g></g><mask></mask><g stroke-linecap="round"><g transform="translate(262 109.75752898761823) rotate(0 54.00154495574532 -2.0234412167221194)"><path d="M-0.97 -1.17 C17.05 -1.48, 90.88 -2.83, 108.97 -2.88" stroke="#e67700" stroke-width="1.5" fill="none" stroke-dasharray="8 9"></path></g><g transform="translate(262 109.75752898761823) rotate(0 54.00154495574532 -2.0234412167221194)"><path d="M78.96 9.33 C89.94 3.29, 102.73 -0.08, 110.37 -4.02" stroke="#e67700" stroke-width="1.5" fill="none"></path></g><g transform="translate(262 109.75752898761823) rotate(0 54.00154495574532 -2.0234412167221194)"><path d="M78.72 -11.19 C89.62 -9.62, 102.5 -5.37, 110.37 -4.02" stroke="#e67700" stroke-width="1.5" fill="none"></path></g></g><mask></mask><g stroke-linecap="round"><g transform="translate(261.5 177.25752898761823) rotate(0 54.93403514884412 56.76066985465587)"><path d="M0.54 0.7 C6.39 3.61, 23.65 0.4, 36.01 17.1 C48.37 33.79, 62.5 84.92, 74.72 100.88 C86.94 116.83, 103.8 110.81, 109.33 112.82" stroke="#e67700" stroke-width="1.5" fill="none" stroke-dasharray="8 9"></path></g><g transform="translate(261.5 177.25752898761823) rotate(0 54.93403514884412 56.76066985465587)"><path d="M93.32 116.44 C97.35 115.51, 103.41 114.51, 109.8 111.16" stroke="#e67700" stroke-width="1.5" fill="none"></path></g><g transform="translate(261.5 177.25752898761823) rotate(0 54.93403514884412 56.76066985465587)"><path d="M94.04 104.29 C97.76 107.91, 103.55 111.46, 109.8 111.16" stroke="#e67700" stroke-width="1.5" fill="none"></path></g></g><mask></mask></svg>