<svg version="1.1" xmlns="http://www.w3.org/2000/svg" viewBox="0 0 594.5 210.8240029172972" width="1189" height="421.6480058345944">
  <!-- svg-source:excalidraw -->
  
  <defs>
    <style class="style-fonts">
      @font-face {
        font-family: "Virgil";
        src: url("https://excalidraw.com/Virgil.woff2");
      }
      @font-face {
        font-family: "Cascadia";
        src: url("https://excalidraw.com/Cascadia.woff2");
      }
    </style>
  </defs>
  <rect x="0" y="0" width="594.5" height="210.8240029172972" fill="#ffffff"></rect><g stroke-linecap="round" transform="translate(10 40.60000000000002) rotate(0 287.25 39)"><path d="M19.5 0 M19.5 0 C215 -0.19, 411.05 -0.53, 555 0 M19.5 0 C185.06 1.48, 350.7 1.27, 555 0 M555 0 C566.59 -0.38, 576.02 6.66, 574.5 19.5 M555 0 C567.85 -1.5, 575.16 6.46, 574.5 19.5 M574.5 19.5 C574.01 28.33, 575.62 41.12, 574.5 58.5 M574.5 19.5 C574.22 28.68, 574.56 38.99, 574.5 58.5 M574.5 58.5 C572.62 71.5, 568.4 79.18, 555 78 M574.5 58.5 C572.93 70.18, 567.67 77.48, 555 78 M555 78 C390.65 76.5, 228.43 77.08, 19.5 78 M555 78 C354.51 77.92, 154.67 77.77, 19.5 78 M19.5 78 C6.29 77.57, 0.23 72.14, 0 58.5 M19.5 78 C4.65 78.04, 1.65 70.12, 0 58.5 M0 58.5 C-1.34 43.18, -1.22 32.57, 0 19.5 M0 58.5 C0.84 50.52, -0.46 41.15, 0 19.5 M0 19.5 C-1.81 6.4, 6.93 0.8, 19.5 0 M0 19.5 C0.95 5.09, 7.81 0.08, 19.5 0" stroke="#087f5b" stroke-width="1" fill="none"></path></g><g stroke-linecap="round" transform="translate(20 46.60000000000002) rotate(0 25 32.25)"><path d="M12.5 0 M12.5 0 C22.44 -0.86, 30.69 -0.59, 37.5 0 M12.5 0 C19.83 -1.08, 25.05 0.36, 37.5 0 M37.5 0 C45.71 -0.86, 48.56 3.23, 50 12.5 M37.5 0 C44.78 0.45, 50.03 2.04, 50 12.5 M50 12.5 C48.75 22.42, 50.38 35.88, 50 52 M50 12.5 C50.57 19.88, 50.63 29.91, 50 52 M50 52 C49.2 62.19, 46.08 64.44, 37.5 64.5 M50 52 C49.67 61.68, 44.12 62.22, 37.5 64.5 M37.5 64.5 C32.79 65.97, 24.97 65.85, 12.5 64.5 M37.5 64.5 C29.49 64.43, 19.98 63.64, 12.5 64.5 M12.5 64.5 C4.57 66.45, 1.81 61.02, 0 52 M12.5 64.5 C5.97 63.99, -0.87 61.64, 0 52 M0 52 C0.97 45.26, -0.12 37.7, 0 12.5 M0 52 C0.81 38.13, -0.66 25.43, 0 12.5 M0 12.5 C1.97 6.07, 6.09 -0.88, 12.5 0 M0 12.5 C1.11 2.14, 3.74 -1.57, 12.5 0" stroke="#5c940d" stroke-width="1" fill="none"></path></g><g transform="translate(28.327964782714844 69.25) rotate(0 16.672035217285156 9.599999999999994)"><text x="16.672035217285156" y="0" font-family="Yozai_Light, Segoe UI Emoji" font-size="16px" fill="#5c940d" text-anchor="middle" style="white-space: pre;" direction="ltr" dominant-baseline="text-before-edge">.text</text></g><g stroke-linecap="round" transform="translate(76.5 46.60000000000002) rotate(0 32 32.5)"><path d="M16 0 M16 0 C26.97 -0.24, 40.94 -0.3, 48 0 M16 0 C24.89 0.26, 32.95 0.28, 48 0 M48 0 C58.51 1.74, 63.76 5.63, 64 16 M48 0 C57.1 -1.01, 63.25 4.3, 64 16 M64 16 C64.26 25.53, 63.52 29.8, 64 49 M64 16 C62.86 24.7, 63.97 31.96, 64 49 M64 49 C62.73 60.5, 57.8 65.97, 48 65 M64 49 C64.86 57.55, 57.36 66.91, 48 65 M48 65 C36.6 66.75, 23.42 64.1, 16 65 M48 65 C40.25 64.55, 33.2 65.66, 16 65 M16 65 C5.13 63.49, 0.64 59.3, 0 49 M16 65 C6.5 65.19, -1.24 60.1, 0 49 M0 49 C1.88 42.5, -1.17 36.78, 0 16 M0 49 C0.91 37.79, 0.1 25.47, 0 16 M0 16 C-0.92 5.92, 3.44 0.92, 16 0 M0 16 C-1.77 5.42, 6.68 -2.21, 16 0" stroke="#5c940d" stroke-width="1" fill="none"></path></g><g transform="translate(81.75594329833984 69.5) rotate(0 26.744056701660156 9.599999999999994)"><text x="26.744056701660156" y="0" font-family="Yozai_Light, Segoe UI Emoji" font-size="16px" fill="#5c940d" text-anchor="middle" style="white-space: pre;" direction="ltr" dominant-baseline="text-before-edge">.rodata</text></g><g stroke-linecap="round" transform="translate(146 46.60000000000002) rotate(0 25 32.5)"><path d="M12.5 0 M12.5 0 C18.02 -1.93, 24.13 -1.44, 37.5 0 M12.5 0 C19.71 -0.06, 25.1 0.23, 37.5 0 M37.5 0 C47.39 -0.75, 49.52 4.96, 50 12.5 M37.5 0 C45.81 -0.55, 48.66 3.5, 50 12.5 M50 12.5 C50.05 23.45, 51.1 31.71, 50 52.5 M50 12.5 C48.75 23.98, 48.9 34.52, 50 52.5 M50 52.5 C50.07 61.47, 46.24 64.57, 37.5 65 M50 52.5 C52.15 59.17, 47.69 62.78, 37.5 65 M37.5 65 C31.01 63.81, 24.62 66.2, 12.5 65 M37.5 65 C33.09 65.22, 26.18 64.65, 12.5 65 M12.5 65 C4.04 63.67, -1.53 60.06, 0 52.5 M12.5 65 C4.14 66.7, 1.71 59.28, 0 52.5 M0 52.5 C0.14 38.99, 2 22.22, 0 12.5 M0 52.5 C0.27 36.73, -0.81 22.01, 0 12.5 M0 12.5 C1.15 2.57, 2.68 -1.82, 12.5 0 M0 12.5 C-0.8 5.83, 5.61 0.61, 12.5 0" stroke="#5c940d" stroke-width="1" fill="none"></path></g><g transform="translate(152.1519546508789 69.5) rotate(0 18.848045349121094 9.599999999999994)"><text x="18.848045349121094" y="0" font-family="Yozai_Light, Segoe UI Emoji" font-size="16px" fill="#5c940d" text-anchor="middle" style="white-space: pre;" direction="ltr" dominant-baseline="text-before-edge">.data</text></g><g stroke-linecap="round" transform="translate(203 46.60000000000002) rotate(0 20.5 32.5)"><path d="M10.25 0 M10.25 0 C14.9 -1.66, 20.88 -1.6, 30.75 0 M10.25 0 C14.95 -1.09, 20.79 -0.86, 30.75 0 M30.75 0 C35.73 -0.65, 42.87 5.1, 41 10.25 M30.75 0 C38.85 -2.17, 40.07 4.97, 41 10.25 M41 10.25 C39.59 25.92, 39.36 40.11, 41 54.75 M41 10.25 C40.36 23.8, 41.63 36.44, 41 54.75 M41 54.75 C41.27 60.81, 36.87 63.87, 30.75 65 M41 54.75 C41.58 59.47, 35.94 66.38, 30.75 65 M30.75 65 C24.63 65.26, 21.33 64.97, 10.25 65 M30.75 65 C24.14 65.3, 15.82 65.19, 10.25 65 M10.25 65 C4.83 66.92, -0.31 61.53, 0 54.75 M10.25 65 C1.95 65.22, 1.32 62.17, 0 54.75 M0 54.75 C-0.57 39.36, 1.57 25.4, 0 10.25 M0 54.75 C0.09 45.82, 0.99 35.71, 0 10.25 M0 10.25 C-1.3 1.94, 1.85 0.75, 10.25 0 M0 10.25 C-1.3 3.74, 4.97 1.14, 10.25 0" stroke="#5c940d" stroke-width="1" fill="none"></path></g><g transform="translate(209.7399673461914 69.5) rotate(0 13.760032653808594 9.599999999999994)"><text x="13.760032653808594" y="0" font-family="Yozai_Light, Segoe UI Emoji" font-size="16px" fill="#5c940d" text-anchor="middle" style="white-space: pre;" direction="ltr" dominant-baseline="text-before-edge">.bss</text></g><g stroke-linecap="round" transform="translate(250.5 46.60000000000002) rotate(0 79 32.5)"><path d="M2.48 6.13 C2.48 6.13, 2.48 6.13, 2.48 6.13 M2.48 6.13 C2.48 6.13, 2.48 6.13, 2.48 6.13 M1.56 13.28 C4.1 11.08, 4.03 9.56, 8.78 4.98 M1.56 13.28 C4.3 10.11, 6.43 7.25, 8.78 4.98 M1.3 19.68 C5.77 14.7, 10.16 8.93, 17.7 0.81 M1.3 19.68 C5.25 15.14, 9.02 10.51, 17.7 0.81 M1.69 25.32 C9.29 17.53, 14.18 13.45, 22.69 1.17 M1.69 25.32 C8.46 18.02, 15.43 10.97, 22.69 1.17 M1.43 31.72 C7.89 23.16, 17.83 15.35, 28.33 0.78 M1.43 31.72 C10.08 22.12, 17.73 11.89, 28.33 0.78 M1.17 38.12 C10.78 25.23, 23.39 12.68, 33.32 1.14 M1.17 38.12 C13.3 24.99, 24.47 11.69, 33.32 1.14 M1.56 43.76 C14.49 26.84, 27.58 13.26, 38.3 1.5 M1.56 43.76 C9.62 35.24, 18.04 26.32, 38.3 1.5 M1.3 50.16 C15.99 32.26, 33.68 14.63, 43.95 1.1 M1.3 50.16 C16.33 33.49, 31.47 15.35, 43.95 1.1 M3.01 54.29 C16.31 38.6, 26.61 25.32, 48.93 1.46 M3.01 54.29 C19.48 35.78, 35.48 16.59, 48.93 1.46 M3.4 59.93 C20.62 38.38, 38.38 22.52, 54.58 1.07 M3.4 59.93 C24.27 36.94, 44.13 13.33, 54.58 1.07 M6.42 62.56 C20.18 45.04, 34.83 28.11, 59.56 1.43 M6.42 62.56 C24.37 42.74, 41.62 23.03, 59.56 1.43 M10.1 64.43 C30.26 43.39, 50.25 17.12, 64.55 1.79 M10.1 64.43 C23.57 49.28, 35.28 35.03, 64.55 1.79 M15.08 64.79 C35.17 38.92, 58.46 13.91, 70.19 1.39 M15.08 64.79 C35.36 42.52, 53.97 21.96, 70.19 1.39 M20.73 64.39 C41.84 39.51, 66.11 15.89, 75.18 1.75 M20.73 64.39 C36.41 44.7, 54.34 25.42, 75.18 1.75 M25.71 64.75 C46.07 40.6, 69.89 14.04, 80.82 1.36 M25.71 64.75 C45.92 40.11, 66.29 17.82, 80.82 1.36 M30.7 65.11 C48.29 45.48, 62.19 27.87, 85.81 1.72 M30.7 65.11 C43.21 50.26, 56.88 34.93, 85.81 1.72 M36.34 64.72 C54.32 46.47, 68.33 27.39, 91.45 1.32 M36.34 64.72 C47.31 51.18, 61.37 37.82, 91.45 1.32 M41.33 65.08 C60.35 40.91, 81.37 18.9, 96.44 1.68 M41.33 65.08 C59.35 43.46, 78.07 22.26, 96.44 1.68 M46.97 64.68 C66.03 42.25, 85.83 20.69, 101.43 2.04 M46.97 64.68 C60.93 48.09, 75.89 31.74, 101.43 2.04 M51.96 65.04 C66.42 52.58, 75.01 36.56, 107.07 1.65 M51.96 65.04 C70.3 42.45, 89.04 21.87, 107.07 1.65 M57.6 64.65 C73.12 48, 87.29 32.08, 112.06 2.01 M57.6 64.65 C71.11 47.7, 85.89 29.93, 112.06 2.01 M62.59 65.01 C79.34 42.82, 99.41 20.72, 117.7 1.61 M62.59 65.01 C76.35 49.37, 90.28 33.21, 117.7 1.61 M67.58 65.37 C84.87 44.14, 101.25 25.15, 122.69 1.97 M67.58 65.37 C79.43 51.54, 90.88 38.08, 122.69 1.97 M73.22 64.98 C90.06 44.08, 107.97 25.49, 128.33 1.58 M73.22 64.98 C88.06 49.02, 103.81 31.5, 128.33 1.58 M78.21 65.34 C93.46 49.6, 109.34 32.12, 133.32 1.94 M78.21 65.34 C94.13 47.31, 108.63 30.42, 133.32 1.94 M83.85 64.94 C99.83 45.46, 117.93 26.99, 138.3 2.3 M83.85 64.94 C101.58 44.16, 118.8 24.98, 138.3 2.3 M88.84 65.3 C105.5 47.45, 120.03 29.72, 143.95 1.91 M88.84 65.3 C101.37 51.96, 112.82 38.15, 143.95 1.91 M93.83 65.66 C110.94 42.14, 132.69 20.34, 149.59 1.51 M93.83 65.66 C109.43 48.18, 123.96 31.19, 149.59 1.51 M99.47 65.27 C118.22 42.88, 135.89 22.44, 152.61 4.14 M99.47 65.27 C119.38 42.65, 140.37 18.31, 152.61 4.14 M104.46 65.63 C123.87 46.73, 142.95 25.26, 155.63 6.76 M104.46 65.63 C122.41 45.72, 137.86 25.39, 155.63 6.76 M110.1 65.23 C125.43 46.8, 139.27 31.08, 157.34 10.89 M110.1 65.23 C125.38 47.89, 140.96 30.53, 157.34 10.89 M115.09 65.59 C128.64 50.21, 137.14 39.51, 159.7 14.27 M115.09 65.59 C128.64 50.89, 140.56 34.87, 159.7 14.27 M120.73 65.2 C130 55.28, 137.82 46.75, 159.44 20.67 M120.73 65.2 C129.99 54.5, 137.98 44.75, 159.44 20.67 M125.72 65.56 C137.05 49.63, 153.27 36.55, 159.83 26.31 M125.72 65.56 C133.2 56.69, 142.51 46.18, 159.83 26.31 M130.7 65.92 C142.92 54.23, 153.59 39.66, 159.57 32.71 M130.7 65.92 C140.89 52.58, 152.41 41.68, 159.57 32.71 M136.35 65.52 C141.31 61.29, 148.18 55.58, 159.31 39.11 M136.35 65.52 C142.94 59.58, 147.18 52.23, 159.31 39.11 M141.99 65.13 C147.71 58.84, 151.2 54.98, 159.05 45.51 M141.99 65.13 C147.26 58.32, 155.3 51.72, 159.05 45.51 M148.29 63.98 C150.72 60.11, 153.29 59.27, 158.79 51.9 M148.29 63.98 C151.25 60.72, 154.83 57.2, 158.79 51.9" stroke="#82c91e" stroke-width="0.5" fill="none"></path><path d="M16.25 0 M16.25 0 C52.84 -1.79, 93.52 0.88, 141.75 0 M16.25 0 C53.31 0.66, 90.1 0.36, 141.75 0 M141.75 0 C152.12 1.54, 159.84 5.59, 158 16.25 M141.75 0 C150.83 -1.25, 157.69 6.12, 158 16.25 M158 16.25 C156.23 26.89, 157.98 37.51, 158 48.75 M158 16.25 C158.26 24.63, 157.44 32.47, 158 48.75 M158 48.75 C157.72 61.34, 151.42 65.56, 141.75 65 M158 48.75 C156.48 58.7, 154.51 66.45, 141.75 65 M141.75 65 C115.33 63.27, 85.21 64.62, 16.25 65 M141.75 65 C94.93 64.38, 48.25 65.11, 16.25 65 M16.25 65 C5.12 63.73, -0.7 59.36, 0 48.75 M16.25 65 C4.62 65.89, 0.74 60.15, 0 48.75 M0 48.75 C-0.53 37.83, -0.58 23.76, 0 16.25 M0 48.75 C-0.32 36.28, -1.06 24.18, 0 16.25 M0 16.25 C1.1 4.3, 5.78 1.28, 16.25 0 M0 16.25 C0.56 4.89, 6.73 0.52, 16.25 0" stroke="#5c940d" stroke-width="1" fill="none"></path></g><g transform="translate(311.89196014404297 69.5) rotate(0 17.60803985595703 9.599999999999994)"><text x="17.60803985595703" y="0" font-family="Virgil, Segoe UI Emoji" font-size="16px" fill="#5c940d" text-anchor="middle" style="white-space: pre;" direction="ltr" dominant-baseline="text-before-edge">heap</text></g><g stroke-linecap="round" transform="translate(487.5 46.60000000000002) rotate(0 45 32.5)"><path d="M2.48 6.13 C2.48 6.13, 2.48 6.13, 2.48 6.13 M2.48 6.13 C2.48 6.13, 2.48 6.13, 2.48 6.13 M1.56 13.28 C5.34 10.46, 6.66 6.49, 8.78 4.98 M1.56 13.28 C4.06 10.55, 6.84 7.02, 8.78 4.98 M1.3 19.68 C6.31 13.7, 12.56 3.7, 17.7 0.81 M1.3 19.68 C5.66 14.42, 9.72 10.2, 17.7 0.81 M1.69 25.32 C8.42 20.99, 12.73 13.75, 22.69 1.17 M1.69 25.32 C9.02 15.84, 17.55 7.96, 22.69 1.17 M1.43 31.72 C9.37 22.06, 13.38 16.03, 28.33 0.78 M1.43 31.72 C12.08 20.7, 21.47 7.56, 28.33 0.78 M1.17 38.12 C13.32 24.57, 21.71 13.02, 33.32 1.14 M1.17 38.12 C9.42 27.68, 17.62 18.5, 33.32 1.14 M1.56 43.76 C12.14 31.22, 23.86 16.82, 38.96 0.74 M1.56 43.76 C16.35 26.65, 32.43 10.83, 38.96 0.74 M1.3 50.16 C9.6 41.37, 17.64 28.69, 43.95 1.1 M1.3 50.16 C10.77 40.97, 19.44 30.19, 43.95 1.1 M3.01 54.29 C20.24 37.01, 33.85 17.32, 49.59 0.71 M3.01 54.29 C14.31 41.36, 23.48 29.4, 49.59 0.71 M4.72 58.42 C17.98 44.38, 32.42 27.82, 54.58 1.07 M4.72 58.42 C18.29 42.99, 30.78 27.53, 54.58 1.07 M6.42 62.56 C21.22 49.12, 33.89 32.89, 59.56 1.43 M6.42 62.56 C22.27 44.1, 39.19 23.83, 59.56 1.43 M10.1 64.43 C30.17 38.75, 50.85 18.52, 65.21 1.03 M10.1 64.43 C26.14 43.97, 43.97 25.55, 65.21 1.03 M14.43 65.54 C33.35 44.17, 51.72 23.42, 70.19 1.39 M14.43 65.54 C28.09 48.63, 42.2 32.22, 70.19 1.39 M18.76 66.66 C32.27 50.97, 48.38 31.32, 75.18 1.75 M18.76 66.66 C39.26 43.35, 61.36 18.67, 75.18 1.75 M23.75 67.02 C41.48 48.2, 60.88 27.55, 80.82 1.36 M23.75 67.02 C45.86 42.76, 65.4 17.42, 80.82 1.36 M29.39 66.62 C47.44 46.46, 68.07 23.49, 84.5 3.23 M29.39 66.62 C44.66 49.12, 60.48 30.05, 84.5 3.23 M34.38 66.98 C46.29 52.18, 57.35 40.17, 87.52 5.85 M34.38 66.98 C51.2 46.87, 68.57 29.02, 87.52 5.85 M40.02 66.59 C58.62 46.18, 79.91 22.38, 89.22 9.99 M40.02 66.59 C52.16 52.5, 63.52 39.41, 89.22 9.99 M45.01 66.95 C57.59 49.52, 71.14 35.9, 90.27 14.87 M45.01 66.95 C54.88 54.87, 67.71 40.58, 90.27 14.87 M49.99 67.31 C58.25 57.68, 68.17 47.96, 92.64 18.25 M49.99 67.31 C58.29 56.6, 68.33 46.75, 92.64 18.25 M55.64 66.91 C63.16 57.42, 73.92 45.31, 92.38 24.65 M55.64 66.91 C67.55 53.85, 76.84 41.21, 92.38 24.65 M60.62 67.27 C71.67 55.23, 80.86 43.6, 92.11 31.05 M60.62 67.27 C72.62 54.56, 84.71 40.95, 92.11 31.05 M66.27 66.88 C75.42 54.62, 83.72 43.01, 92.51 36.69 M66.27 66.88 C74.34 57.84, 80.74 50.97, 92.51 36.69 M71.25 67.24 C78.53 56.46, 89.38 48.99, 92.25 43.09 M71.25 67.24 C77.42 60.17, 82.66 54.46, 92.25 43.09 M76.24 67.6 C80.68 61.32, 82.65 58.36, 91.99 49.49 M76.24 67.6 C82.49 60.08, 88.16 53.12, 91.99 49.49" stroke="#fab005" stroke-width="0.5" fill="none"></path><path d="M16.25 0 M16.25 0 C34.19 -1.5, 50.62 0.3, 73.75 0 M16.25 0 C37.91 0.63, 59.15 -0.5, 73.75 0 M73.75 0 C85.78 1.69, 89.9 6.7, 90 16.25 M73.75 0 C83.1 0.14, 89.65 5.09, 90 16.25 M90 16.25 C91.76 24.71, 88.4 31.74, 90 48.75 M90 16.25 C90.71 25.61, 89.11 34.44, 90 48.75 M90 48.75 C89.78 57.78, 83.52 66.87, 73.75 65 M90 48.75 C92.06 59.49, 85.43 63.01, 73.75 65 M73.75 65 C54.26 66.06, 35.77 64.74, 16.25 65 M73.75 65 C51.34 63.79, 30.3 64.16, 16.25 65 M16.25 65 C4.4 65.57, 1.53 61.49, 0 48.75 M16.25 65 C5.69 65.94, -1.76 61.8, 0 48.75 M0 48.75 C-0.66 38.92, -0.64 30.3, 0 16.25 M0 48.75 C0.4 38.55, -0.26 27.63, 0 16.25 M0 16.25 C-0.43 4.17, 7.08 1.11, 16.25 0 M0 16.25 C-1.4 5.09, 5.4 -2.03, 16.25 0" stroke="#e67700" stroke-width="1" fill="none"></path></g><g transform="translate(510.38794708251953 69.5) rotate(0 22.11205291748047 9.599999999999994)"><text x="22.11205291748047" y="0" font-family="Virgil, Segoe UI Emoji" font-size="16px" fill="#e67700" text-anchor="middle" style="white-space: pre;" direction="ltr" dominant-baseline="text-before-edge">stack</text></g><g transform="translate(17.5 12.600000000000023) rotate(0 32.016075134277344 9.599999999999994)"><text x="0" y="0" font-family="Virgil, Segoe UI Emoji" font-size="16px" fill="#5c940d" text-anchor="start" style="white-space: pre;" direction="ltr" dominant-baseline="text-before-edge">0x0000</text></g><g transform="translate(517.9839248657227 10) rotate(0 25.55205535888672 9.599999999999994)"><text x="0" y="0" font-family="Virgil, Segoe UI Emoji" font-size="16px" fill="#5c940d" text-anchor="start" style="white-space: pre;" direction="ltr" dominant-baseline="text-before-edge">0xffff</text></g><g stroke-linecap="round"><g transform="translate(253.5 179.60000000000002) rotate(0 0.5739456409048955 -26.36454946734011)"><path d="M-0.42 1.02 C-0.21 -7.9, 0.22 -44.85, 0.45 -53.75 M1.56 0.51 C1.72 -8.24, -0.12 -43.45, -0.25 -52.6" stroke="#087f5b" stroke-width="1" fill="none"></path></g><g transform="translate(253.5 179.60000000000002) rotate(0 0.5739456409048955 -26.36454946734011)"><path d="M11.36 -27.27 C6.15 -32.14, 6.08 -40.73, 1.67 -54.58 M10.22 -28.57 C6.04 -36.14, 4.2 -43.61, -0.38 -51.97" stroke="#087f5b" stroke-width="1" fill="none"></path></g><g transform="translate(253.5 179.60000000000002) rotate(0 0.5739456409048955 -26.36454946734011)"><path d="M-6.75 -26.64 C-7.72 -31.6, -3.54 -40.34, 1.67 -54.58 M-7.9 -27.94 C-6.34 -35.77, -2.44 -43.44, -0.38 -51.97" stroke="#087f5b" stroke-width="1" fill="none"></path></g></g><mask></mask><g transform="translate(213 181.10000000000002) rotate(0 43.768104553222656 9.599999999999994)"><text x="0" y="0" font-family="Virgil, Segoe UI Emoji" font-size="16px" fill="#087f5b" text-anchor="start" style="white-space: pre;" direction="ltr" dominant-baseline="text-before-edge">heap start</text></g><g stroke-linecap="round"><g transform="translate(403.73189544677734 180.12400291729722) rotate(0 -0.3696435646153873 -26.636973401531577)"><path d="M-1.16 0.51 C-1.16 -8.47, -0.26 -44.93, -0.02 -53.79 M0.43 -0.26 C0.27 -9.12, -0.86 -43.58, -0.97 -52.66" stroke="#087f5b" stroke-width="1" fill="none"></path></g><g transform="translate(403.73189544677734 180.12400291729722) rotate(0 -0.3696435646153873 -26.636973401531577)"><path d="M9.53 -28.01 C4.46 -34.89, 3.52 -42.93, 0.54 -53.21 M8.55 -28.92 C6.42 -32.97, 3.53 -40.96, -1.88 -53.64" stroke="#087f5b" stroke-width="1" fill="none"></path></g><g transform="translate(403.73189544677734 180.12400291729722) rotate(0 -0.3696435646153873 -26.636973401531577)"><path d="M-8.59 -27.58 C-8.25 -34.41, -3.79 -42.58, 0.54 -53.21 M-9.57 -28.49 C-7.24 -32.83, -5.66 -40.93, -1.88 -53.64" stroke="#087f5b" stroke-width="1" fill="none"></path></g></g><mask></mask><g transform="translate(392.73189544677734 181.62400291729722) rotate(0 11.400032043457031 9.599999999999994)"><text x="0" y="0" font-family="Virgil, Segoe UI Emoji" font-size="16px" fill="#087f5b" text-anchor="start" style="white-space: pre;" direction="ltr" dominant-baseline="text-before-edge">brk</text></g><g stroke-linecap="round"><g transform="translate(490.0432150847307 178.1437236679718) rotate(0 0.4513504477118886 -26.50497960709035)"><path d="M0.71 0.66 C1.09 -8.24, 1.3 -44.74, 1.27 -53.67 M-0.37 -0.04 C-0.07 -8.76, -0.25 -43.9, 0.32 -52.49" stroke="#e67700" stroke-width="1" fill="none"></path></g><g transform="translate(490.0432150847307 178.1437236679718) rotate(0 0.4513504477118886 -26.50497960709035)"><path d="M9.85 -27.36 C5.85 -34.04, 5.23 -39.49, 2.15 -53.43 M8 -27.25 C6.23 -37.83, 2.74 -45.89, 0.56 -53.18" stroke="#e67700" stroke-width="1" fill="none"></path></g><g transform="translate(490.0432150847307 178.1437236679718) rotate(0 0.4513504477118886 -26.50497960709035)"><path d="M-8.27 -27.82 C-8.31 -34.51, -4.96 -39.85, 2.15 -53.43 M-10.13 -27.71 C-4.94 -38, -1.46 -45.88, 0.56 -53.18" stroke="#e67700" stroke-width="1" fill="none"></path></g></g><mask></mask><g transform="translate(482.09996795654297 179.6437236679718) rotate(0 8.288017272949219 9.599999999999994)"><text x="0" y="0" font-family="Virgil, Segoe UI Emoji" font-size="16px" fill="#e67700" text-anchor="start" style="white-space: pre;" direction="ltr" dominant-baseline="text-before-edge">sp</text></g><g transform="translate(24.500000000000057 162.20000000000005) rotate(359.8962637780171 63.55992889404297 12)"><text x="0" y="0" font-family="Virgil, Segoe UI Emoji" font-size="20px" fill="#e6770033" text-anchor="start" style="white-space: pre;" direction="ltr" dominant-baseline="text-before-edge">@hemashushu</text></g></svg>