<svg version="1.1" xmlns="http://www.w3.org/2000/svg" viewBox="0 0 672.8106024389839 584.5150579752366" width="1345.6212048779678" height="1169.0301159504731">
  <!-- svg-source:excalidraw -->
  
  <defs>
    <style class="style-fonts">
      @font-face {
        font-family: "Virgil";
        src: url("https://excalidraw.com/Virgil.woff2");
      }
      @font-face {
        font-family: "Cascadia";
        src: url("https://excalidraw.com/Cascadia.woff2");
      }
    </style>
  </defs>
  <rect x="0" y="0" width="672.8106024389839" height="584.5150579752366" fill="#ffffff"></rect><g stroke-linecap="round" transform="translate(39.363360392752384 94.80000000000007) rotate(0 311.50000000000006 37)"><path d="M22.09 -3.36 L607.03 -1.34 L619.66 -0.56 L623.06 10.38 L619.41 62.27 L620.81 68.77 L615.41 75.33 L604.97 71.34 L15.64 73.32 L10.49 72.1 L-0.67 63.19 L3.85 15.11 L1.51 2.44 L20.96 -0.62" stroke="none" stroke-width="0" fill="#40c05733"></path><path d="M18.5 0 M18.5 0 C252.71 -1.89, 487.47 -1.95, 604.5 0 M18.5 0 C193.04 -1.97, 368.56 -3.28, 604.5 0 M604.5 0 C620.66 1.25, 621.18 6.73, 623 18.5 M604.5 0 C619.02 0.9, 624.97 8.55, 623 18.5 M623 18.5 C624.89 26.29, 626.48 35.54, 623 55.5 M623 18.5 C621.75 31.83, 623.84 44, 623 55.5 M623 55.5 C626.69 71.78, 612.99 75.8, 604.5 74 M623 55.5 C618.77 63.34, 613.52 69.84, 604.5 74 M604.5 74 C465.97 79.8, 329.69 78.2, 18.5 74 M604.5 74 C426.91 77.5, 249.73 76.46, 18.5 74 M18.5 74 C2.22 70.89, 2.32 64.12, 0 55.5 M18.5 74 C3.72 75.86, -1.78 69.21, 0 55.5 M0 55.5 C-0.74 47.67, -2.18 31.93, 0 18.5 M0 55.5 C1.48 39.9, -1.18 24.86, 0 18.5 M0 18.5 C-1.55 5.84, 6.31 -3.23, 18.5 0 M0 18.5 C-1.38 8.93, 3.41 -3.49, 18.5 0" stroke="#fff" stroke-width="1" fill="none"></path></g><g transform="translate(294.3633603927524 550.4000000000001) rotate(359.8962637780171 63.55992889404297 12)"><text x="0" y="0" font-family="Virgil, Segoe UI Emoji" font-size="20px" fill="#e6770033" text-anchor="start" style="white-space: pre;" direction="ltr" dominant-baseline="text-before-edge">@hemashushu</text></g><g stroke-linecap="round"><g transform="translate(36.863360392752384 93.30000000000007) rotate(0 310.4201314308774 0.44972385398295955)"><path d="M0.04 -0.68 C103.84 -0.39, 518.42 1.14, 622.23 1.07 M-1.39 1.58 C102.31 1.61, 517.4 -0.17, 621.41 -0.49" stroke="#2b8a3e" stroke-width="1" fill="none"></path></g></g><mask></mask><g stroke-linecap="round"><g transform="translate(41.443228961875036 170.00605289591482) rotate(0 307.36207613009486 0.10718372952192112)"><path d="M-1.09 -0.63 C101.02 -0.71, 510.97 0.28, 613.73 0.45 M0.54 1.66 C102.9 1.13, 513.42 -0.87, 615.82 -1.44" stroke="#2b8a3e" stroke-width="1" fill="none"></path></g></g><mask></mask><g stroke-linecap="round" transform="translate(249.61336039275238 108.55000000000007) rotate(0 102.75 24.75)"><path d="M10.43 -1.09 L196.34 -0.89 L200.66 2.28 L203.62 7.36 L206.56 40.88 L202.33 45.2 L193.69 49.97 L9.31 47.58 L6.4 49.34 L-0.26 44.11 L-1.2 14.36 L2.66 3.12 L12.07 1.08" stroke="none" stroke-width="0" fill="#fff"></path><path d="M12.38 0 M12.38 0 C66.32 0.88, 115.37 0.08, 193.13 0 M12.38 0 C73.37 0.28, 135.92 1.72, 193.13 0 M193.13 0 C202.07 -0.17, 205.91 2.45, 205.5 12.38 M193.13 0 C200.66 -1.21, 205.09 3.21, 205.5 12.38 M205.5 12.38 C204.59 22.3, 206.52 30.04, 205.5 37.13 M205.5 12.38 C204.71 18.05, 205.69 23.66, 205.5 37.13 M205.5 37.13 C203.95 43.85, 202.38 50.17, 193.13 49.5 M205.5 37.13 C203.65 45.53, 200.21 48.09, 193.13 49.5 M193.13 49.5 C144.84 48.63, 96.77 49.47, 12.38 49.5 M193.13 49.5 C138.83 49.57, 82.79 48.14, 12.38 49.5 M12.38 49.5 C3.07 48.36, -0.73 43.73, 0 37.13 M12.38 49.5 C2.84 47.54, 1.32 44.59, 0 37.13 M0 37.13 C1.14 28.83, 1.69 16.77, 0 12.38 M0 37.13 C0.94 30.86, 1.22 25.28, 0 12.38 M0 12.38 C-1.03 3.05, 5.34 -0.93, 12.38 0 M0 12.38 C1.85 2.21, 5.52 0.44, 12.38 0" stroke="#e67700" stroke-width="1" fill="none"></path></g><g stroke-linecap="round" transform="translate(289.1133603927524 116.05000000000007) rotate(0 63 17.5)"><path d="M8.75 0 L117.25 0 L121.08 0.55 L123.81 2.19 L125.45 4.92 L126 8.75 L125.45 30.08 L123.81 32.81 L121.08 34.45 L117.25 35 L8.75 35 L4.92 34.45 L2.19 32.81 L0.55 30.08 L0 8.75 L0.55 4.92 L2.19 2.19 L4.92 0.55 L8.75 0" stroke="none" stroke-width="0" fill="#ffffff"></path><path d="M8.75 0 M8.75 0 C47.43 0, 86.11 0, 117.25 0 M117.25 0 C123.08 0, 126 2.92, 126 8.75 M126 8.75 C126 15.24, 126 21.73, 126 26.25 M126 26.25 C126 32.08, 123.08 35, 117.25 35 M117.25 35 C86.18 35, 55.12 35, 8.75 35 M8.75 35 C2.92 35, 0 32.08, 0 26.25 M0 26.25 C0 20.4, 0 14.54, 0 8.75 M0 8.75 C0 2.92, 2.92 0, 8.75 0" stroke="#e67700" stroke-width="1.5" fill="none" stroke-dasharray="1.5 7"></path></g><g transform="translate(315.33728312224457 123.95000000000005) rotate(0 36.77607727050781 9.599999999999994)"><text x="36.77607727050781" y="0" font-family="Virgil, Segoe UI Emoji" font-size="16px" fill="#e67700" text-anchor="middle" style="white-space: pre;" direction="ltr" dominant-baseline="text-before-edge">allocated</text></g><g stroke-linecap="round" transform="translate(258.1133603927524 116.05000000000007) rotate(0 11.75 17.75)"><path d="M4.79 -0.01 L20.73 -0.74 L23.53 4.56 L24.35 29.55 L21.93 32.76 L20.66 34.97 L1.58 36.7 L1.95 31.16 L1.93 2.1 L5.29 -0.07 L5.9 -0.3" stroke="none" stroke-width="0" fill="#fff"></path><path d="M5.88 0 M5.88 0 C9.23 1.1, 13.98 -0.7, 17.63 0 M17.63 0 C20.38 0.83, 22.64 0.68, 23.5 5.88 M23.5 5.88 C24.42 11.91, 23.12 16.99, 23.5 29.63 M23.5 29.63 C21.82 32.92, 20.49 35.14, 17.63 35.5 M17.63 35.5 C15.4 34.99, 11.92 36.12, 5.88 35.5 M5.88 35.5 C1.18 34.11, -0.18 32.55, 0 29.63 M0 29.63 C-0.26 22.77, -1.52 20.02, 0 5.88 M0 5.88 C0.67 0.35, 2.1 -1.02, 5.88 0" stroke="#e67700" stroke-width="1.5" fill="none" stroke-dasharray="1.5 7"></path></g><g stroke-linecap="round" transform="translate(423.8633603927524 115.30000000000007) rotate(0 11.75 17.75)"><path d="M5.87 0.54 L19.09 0.76 L24.39 4.16 L23.43 28.42 L23.7 32.66 L20.03 33.4 L4.87 36.72 L-0.66 33.76 L-0.83 5.29 L2.87 0.39 L5.57 1.08" stroke="none" stroke-width="0" fill="#fff"></path><path d="M5.88 0 M5.88 0 C10.34 -0.13, 11.93 -0.6, 17.63 0 M17.63 0 C22.37 -0.86, 22.22 0.46, 23.5 5.88 M23.5 5.88 C24.21 10.74, 23.93 14.27, 23.5 29.63 M23.5 29.63 C22.88 32.49, 21.19 34.71, 17.63 35.5 M17.63 35.5 C12.82 36, 9.57 35.13, 5.88 35.5 M5.88 35.5 C0.57 35.32, -0.99 32.01, 0 29.63 M0 29.63 C-1.6 21.06, 0.95 16.23, 0 5.88 M0 5.88 C-1.61 2.1, 0.94 -1.23, 5.88 0" stroke="#e67700" stroke-width="1.5" fill="none" stroke-dasharray="1.5 7"></path></g><g stroke-linecap="round" transform="translate(472.6133603927524 106.05000000000007) rotate(0 87.75 24.75)"><path d="M12.22 0.55 L167.41 2.11 L171.84 4.55 L175.3 9.69 L176.19 42.35 L172.62 47.37 L164.75 49.73 L8.45 50.55 L3.3 46.61 L1.12 41.09 L0.27 9.63 L-0.07 6.3 L5.54 3.15 L13.17 -0.96" stroke="none" stroke-width="0" fill="#fff"></path><path d="M12.38 0 M12.38 0 C58.46 1.19, 106.74 0.15, 163.12 0 M12.38 0 C68.57 -1.52, 123.54 -0.55, 163.12 0 M163.12 0 C170 -1.69, 173.59 5.01, 175.5 12.38 M163.12 0 C171.84 -1.32, 177.01 4.64, 175.5 12.38 M175.5 12.38 C175.29 15.72, 176.73 23.39, 175.5 37.13 M175.5 12.38 C175.85 19.66, 175.22 27.96, 175.5 37.13 M175.5 37.13 C175.37 45.6, 172.35 51.4, 163.12 49.5 M175.5 37.13 C177.18 45.61, 171.4 50.93, 163.12 49.5 M163.12 49.5 C118.66 48.53, 75.51 48.49, 12.38 49.5 M163.12 49.5 C123.11 49.61, 84.17 50.02, 12.38 49.5 M12.38 49.5 C2.86 51.32, 0.19 46.88, 0 37.13 M12.38 49.5 C5.45 50.76, 1.73 44.52, 0 37.13 M0 37.13 C0.86 32.52, -0.45 26.98, 0 12.38 M0 37.13 C0.82 27.84, -0.78 19.46, 0 12.38 M0 12.38 C-1.81 2.91, 3.13 -0.34, 12.38 0 M0 12.38 C-1.82 5.63, 6.25 -0.4, 12.38 0" stroke="#e67700" stroke-width="1" fill="none"></path></g><g stroke-linecap="round" transform="translate(514.6133603927524 113.55000000000007) rotate(0 46.5 18)"><path d="M9 0 L84 0 L87.94 0.56 L90.75 2.25 L92.44 5.06 L93 9 L92.44 30.94 L90.75 33.75 L87.94 35.44 L84 36 L9 36 L5.06 35.44 L2.25 33.75 L0.56 30.94 L0 9 L0.56 5.06 L2.25 2.25 L5.06 0.56 L9 0" stroke="none" stroke-width="0" fill="#ffffff"></path><path d="M9 0 M9 0 C30.22 0, 51.44 0, 84 0 M84 0 C90 0, 93 3, 93 9 M93 9 C93 12.67, 93 16.33, 93 27 M93 27 C93 33, 90 36, 84 36 M84 36 C61.89 36, 39.77 36, 9 36 M9 36 C3 36, 0 33, 0 27 M0 27 C0 21.84, 0 16.68, 0 9 M0 9 C0 3, 3 0, 9 0" stroke="#e67700" stroke-width="1.5" fill="none" stroke-dasharray="1.5 7"></path></g><g transform="translate(524.3372831222446 121.95000000000005) rotate(0 36.77607727050781 9.599999999999994)"><text x="36.77607727050781" y="0" font-family="Virgil, Segoe UI Emoji" font-size="16px" fill="#e67700" text-anchor="middle" style="white-space: pre;" direction="ltr" dominant-baseline="text-before-edge">allocated</text></g><g stroke-linecap="round" transform="translate(483.6133603927524 113.55000000000007) rotate(0 11.75 17.75)"><path d="M7.21 -0.57 L21.65 0.36 L23.35 4.77 L23.32 31.58 L22.74 33.82 L20.42 36.62 L5.13 35.34 L0.57 33.13 L1.43 3.39 L3.46 -1.44 L7.34 0.71" stroke="none" stroke-width="0" fill="#fff"></path><path d="M5.88 0 M5.88 0 C10.32 0.17, 14.49 -0.11, 17.63 0 M17.63 0 C22.61 1.64, 23.53 3.3, 23.5 5.88 M23.5 5.88 C23.37 14.73, 25.3 20.41, 23.5 29.63 M23.5 29.63 C21.81 31.63, 22.43 35.9, 17.63 35.5 M17.63 35.5 C13.64 34.8, 10.86 35.49, 5.88 35.5 M5.88 35.5 C0.26 36.89, 0.94 33.47, 0 29.63 M0 29.63 C0.13 19.98, 2.06 12.02, 0 5.88 M0 5.88 C0.23 2.93, 3.86 1.46, 5.88 0" stroke="#e67700" stroke-width="1.5" fill="none" stroke-dasharray="1.5 7"></path></g><g stroke-linecap="round" transform="translate(614.8633603927524 112.80000000000007) rotate(0 11.75 17.75)"><path d="M5.3 1.46 L20.19 0.58 L24.59 3.12 L25.45 29.23 L24.76 32.42 L21.69 36.95 L3.52 35.34 L1.3 33.26 L0.45 3.46 L1.5 1.83 L6.58 1.41" stroke="none" stroke-width="0" fill="#fff"></path><path d="M5.88 0 M5.88 0 C9.98 -0.1, 13.69 0.62, 17.63 0 M17.63 0 C23.18 0.03, 24.84 2.66, 23.5 5.88 M23.5 5.88 C24.59 16.71, 22.32 22.68, 23.5 29.63 M23.5 29.63 C21.59 34.43, 21.94 34.36, 17.63 35.5 M17.63 35.5 C12.6 34.33, 8.99 34.39, 5.88 35.5 M5.88 35.5 C3.34 36.44, -0.07 34.9, 0 29.63 M0 29.63 C-0.95 26.68, -0.17 20.32, 0 5.88 M0 5.88 C0.97 3.86, 3.42 0.21, 5.88 0" stroke="#e67700" stroke-width="1.5" fill="none" stroke-dasharray="1.5 7"></path></g><g stroke-linecap="round" transform="translate(39.81060243898378 392.45798627323484) rotate(0 311.50000000000006 37)"><path d="M15.79 -3.83 L607.66 1.92 L614.03 4.31 L625.36 13.24 L623.16 61.69 L617.47 70.5 L615.85 74.47 L607.59 75.87 L17.32 72.73 L4.23 71.41 L-1.32 62.13 L-1.95 20.59 L1.44 2.27 L19.78 1.23" stroke="none" stroke-width="0" fill="#40c05733"></path><path d="M18.5 0 M18.5 0 C142.9 3.61, 268.6 3.49, 604.5 0 M18.5 0 C151.55 4.33, 285.44 3.56, 604.5 0 M604.5 0 C619.24 -3.68, 622.63 5.42, 623 18.5 M604.5 0 C616.51 3.59, 623.59 9.65, 623 18.5 M623 18.5 C627.35 25.05, 623.83 40.17, 623 55.5 M623 18.5 C621.63 29.88, 622.71 40.26, 623 55.5 M623 55.5 C621.37 71.65, 619.15 76.53, 604.5 74 M623 55.5 C626.14 72.41, 613.6 77.4, 604.5 74 M604.5 74 C471.88 73.74, 337.01 74.24, 18.5 74 M604.5 74 C402.49 74.73, 200.4 74.39, 18.5 74 M18.5 74 C9.54 73.64, -1.76 70.16, 0 55.5 M18.5 74 C5.31 75.46, 1.27 67.36, 0 55.5 M0 55.5 C-2.12 46.67, 0.33 32.68, 0 18.5 M0 55.5 C-0.27 48.03, 0.46 35.04, 0 18.5 M0 18.5 C-1.08 8.33, 3.59 -3.59, 18.5 0 M0 18.5 C3.41 5.07, 6.99 2.46, 18.5 0" stroke="#fff" stroke-width="1" fill="none"></path></g><g stroke-linecap="round"><g transform="translate(37.31060243898378 390.95798627323484) rotate(0 310.8994364209007 0.6451070735324151)"><path d="M0.49 -0.52 C104.43 -0.29, 518.79 0.95, 622.51 1.06 M-0.71 1.81 C103.22 1.77, 517.96 -0.46, 621.83 -0.51" stroke="#2b8a3e" stroke-width="1" fill="none"></path></g></g><mask></mask><g stroke-linecap="round"><g transform="translate(41.890471008106374 467.66403916914953) rotate(0 307.7260034636175 0.01077532092108413)"><path d="M-0.52 0.51 C102.2 0.57, 513.38 0.84, 615.98 0.85 M1.4 -0.26 C104.09 -0.58, 513.42 -0.62, 615.58 -0.83" stroke="#2b8a3e" stroke-width="1" fill="none"></path></g></g><mask></mask><g stroke-linecap="round" transform="translate(473.0606024389838 403.70798627323484) rotate(0 87.75 24.75)"><path d="M13.91 1.55 L169.47 2.35 L171.92 1.6 L175.31 8.24 L173.99 41.57 L171.71 46.17 L161.95 50.14 L7.57 46.98 L2.88 45.18 L0.06 40.94 L1.55 10.24 L0.28 4.78 L3.16 1.6 L13.37 1.8" stroke="none" stroke-width="0" fill="#fff"></path><path d="M12.38 0 M12.38 0 C50.54 1.01, 88.93 2.95, 163.12 0 M12.38 0 C60.18 1.06, 107.63 0.34, 163.12 0 M163.12 0 C171.55 1.98, 175.13 4.95, 175.5 12.38 M163.12 0 C170.69 -1.93, 176.62 3.44, 175.5 12.38 M175.5 12.38 C176.56 22.23, 176.77 31.54, 175.5 37.13 M175.5 12.38 C174.86 18.11, 176.31 23.43, 175.5 37.13 M175.5 37.13 C175.22 45.37, 172.28 50.81, 163.12 49.5 M175.5 37.13 C176 45.93, 170.53 50.4, 163.12 49.5 M163.12 49.5 C128.99 50.53, 96.24 50, 12.38 49.5 M163.12 49.5 C113.92 48.78, 63.87 50.35, 12.38 49.5 M12.38 49.5 C4.36 49.63, -0.9 44.1, 0 37.13 M12.38 49.5 C1.95 48.65, 2.26 45.36, 0 37.13 M0 37.13 C-1.22 29.85, 1.55 25.7, 0 12.38 M0 37.13 C-0.15 29.4, -0.51 20.68, 0 12.38 M0 12.38 C-1.33 5.91, 3.66 1.68, 12.38 0 M0 12.38 C-0.58 1.85, 5.68 -1.47, 12.38 0" stroke="#e67700" stroke-width="1" fill="none"></path></g><g stroke-linecap="round" transform="translate(515.0606024389838 411.20798627323484) rotate(0 46.5 18)"><path d="M9 0 L84 0 L87.94 0.56 L90.75 2.25 L92.44 5.06 L93 9 L92.44 30.94 L90.75 33.75 L87.94 35.44 L84 36 L9 36 L5.06 35.44 L2.25 33.75 L0.56 30.94 L0 9 L0.56 5.06 L2.25 2.25 L5.06 0.56 L9 0" stroke="none" stroke-width="0" fill="#ffffff"></path><path d="M9 0 M9 0 C32.58 0, 56.16 0, 84 0 M84 0 C90 0, 93 3, 93 9 M93 9 C93 15.25, 93 21.49, 93 27 M93 27 C93 33, 90 36, 84 36 M84 36 C61.11 36, 38.21 36, 9 36 M9 36 C3 36, 0 33, 0 27 M0 27 C0 23.03, 0 19.06, 0 9 M0 9 C0 3, 3 0, 9 0" stroke="#e67700" stroke-width="1.5" fill="none" stroke-dasharray="1.5 7"></path></g><g transform="translate(524.784525168476 419.6079862732348) rotate(0 36.77607727050781 9.600000000000023)"><text x="36.77607727050781" y="0" font-family="Virgil, Segoe UI Emoji" font-size="16px" fill="#e67700" text-anchor="middle" style="white-space: pre;" direction="ltr" dominant-baseline="text-before-edge">allocated</text></g><g stroke-linecap="round" transform="translate(484.0606024389838 411.20798627323484) rotate(0 11.75 17.75)"><path d="M7.45 -0.49 L18.7 0.37 L21.89 2.57 L22.53 30.67 L21.54 31.02 L20.83 35.75 L1.55 34.92 L-0.86 32.06 L1.28 4.66 L4.07 -1.09 L5.83 -1.68" stroke="none" stroke-width="0" fill="#fff"></path><path d="M5.88 0 M5.88 0 C8.78 0.6, 11.68 -0.22, 17.63 0 M17.63 0 C21.17 -0.14, 25.06 2.21, 23.5 5.88 M23.5 5.88 C23.64 16.73, 22.21 23.9, 23.5 29.63 M23.5 29.63 C25.48 33.17, 22.37 34.91, 17.63 35.5 M17.63 35.5 C15.64 34.99, 13.67 36.15, 5.88 35.5 M5.88 35.5 C3.22 36.87, 1.99 32.14, 0 29.63 M0 29.63 C0.28 22.01, -0.46 11.59, 0 5.88 M0 5.88 C0 2.86, 3.26 0.44, 5.88 0" stroke="#e67700" stroke-width="1.5" fill="none" stroke-dasharray="1.5 7"></path></g><g stroke-linecap="round" transform="translate(615.3106024389838 410.45798627323484) rotate(0 11.75 17.75)"><path d="M5.39 -1.5 L20.2 -0.87 L22.4 2.33 L24.55 28.03 L21.96 32.83 L20.81 33.38 L3.09 33.9 L0.23 33.11 L1.72 4.07 L1.85 0.32 L4.2 -0.14" stroke="none" stroke-width="0" fill="#fff"></path><path d="M5.88 0 M5.88 0 C10.69 -1.03, 13.99 -0.17, 17.63 0 M17.63 0 C21.4 1.56, 23.75 3.47, 23.5 5.88 M23.5 5.88 C25.59 10.41, 23.83 19.22, 23.5 29.63 M23.5 29.63 C23.13 34.37, 20.95 33.82, 17.63 35.5 M17.63 35.5 C13.05 36.68, 10.12 36.3, 5.88 35.5 M5.88 35.5 C3.33 37.49, -1.41 35.02, 0 29.63 M0 29.63 C1.46 23.58, -0.08 18.79, 0 5.88 M0 5.88 C0.9 3.26, 2.4 0.49, 5.88 0" stroke="#e67700" stroke-width="1.5" fill="none" stroke-dasharray="1.5 7"></path></g><g stroke-linecap="round" transform="translate(56.56060243898378 404.20798627323484) rotate(0 199.75 24.75)"><path d="M12.6 0.93 L388.56 2.06 L394.7 3.28 L400.27 7.9 L400.88 39.54 L394.91 46.41 L385.89 48.77 L8.5 50.35 L3.24 46.58 L1.41 43.15 L-1.75 12.16 L1.87 2.96 L13.29 1.35" stroke="none" stroke-width="0" fill="#fff"></path><path d="M12.38 0 M12.38 0 C138.09 -0.03, 266.45 1.15, 387.13 0 M12.38 0 C107.65 1.99, 202.99 2.57, 387.13 0 M387.13 0 C395.63 1.52, 398.28 5.45, 399.5 12.38 M387.13 0 C395.71 2.22, 398.18 4.32, 399.5 12.38 M399.5 12.38 C398.86 20.58, 400.42 31.54, 399.5 37.13 M399.5 12.38 C399.98 21.6, 400.08 30.54, 399.5 37.13 M399.5 37.13 C398.09 46.85, 393.94 47.85, 387.13 49.5 M399.5 37.13 C399.62 46.83, 394.65 49.18, 387.13 49.5 M387.13 49.5 C275.01 51.28, 161.92 51.47, 12.38 49.5 M387.13 49.5 C304.18 49.65, 221.67 49.49, 12.38 49.5 M12.38 49.5 C4.68 49.29, 0.24 45.73, 0 37.13 M12.38 49.5 C2.06 48.36, 1.56 45.64, 0 37.13 M0 37.13 C-1.78 28.8, 2.08 21.95, 0 12.38 M0 37.13 C-0.58 30.75, 0.81 25.94, 0 12.38 M0 12.38 C0.36 5.2, 5.12 -0.03, 12.38 0 M0 12.38 C0.33 3.26, 2.48 -1.53, 12.38 0" stroke="#1864ab" stroke-width="1" fill="none"></path></g><g stroke-linecap="round" transform="translate(129.06060243898378 412.95798627323484) rotate(0 131.5 15)"><path d="M7.5 0 L255.5 0 L258.78 0.47 L261.13 1.88 L262.53 4.22 L263 22.5 L262.53 25.78 L261.13 28.13 L258.78 29.53 L255.5 30 L7.5 30 L4.22 29.53 L1.88 28.13 L0.47 25.78 L0 22.5 L0.47 4.22 L1.88 1.88 L4.22 0.47 L7.5 0" stroke="none" stroke-width="0" fill="#ffffff"></path><path d="M7.5 0 M7.5 0 C101.27 0, 195.04 0, 255.5 0 M255.5 0 C260.5 0, 263 2.5, 263 7.5 M263 7.5 C263 12.62, 263 17.74, 263 22.5 M263 22.5 C263 27.5, 260.5 30, 255.5 30 M255.5 30 C156.43 30, 57.35 30, 7.5 30 M7.5 30 C2.5 30, 0 27.5, 0 22.5 M0 22.5 C0 17.02, 0 11.54, 0 7.5 M0 7.5 C0 2.5, 2.5 0, 7.5 0" stroke="#1864ab" stroke-width="1.5" fill="none" stroke-dasharray="1.5 7"></path></g><g transform="translate(244.48057009035097 418.3579862732348) rotate(0 16.080032348632812 9.600000000000023)"><text x="16.080032348632812" y="0" font-family="Virgil, Segoe UI Emoji" font-size="16px" fill="#1864ab" text-anchor="middle" style="white-space: pre;" direction="ltr" dominant-baseline="text-before-edge">free</text></g><g stroke-linecap="round" transform="translate(70.56060243898378 412.45798627323484) rotate(0 10.25 17.75)"><path d="M6.99 0.04 L19.15 1.87 L21.11 4.46 L20.01 28.88 L17.62 33.94 L2.15 34.21 L1.37 31.03 L-0.86 3.52 L5.74 -1.75" stroke="none" stroke-width="0" fill="#fff"></path><path d="M5.13 0 M5.13 0 C8.56 0.7, 11.44 -0.74, 15.38 0 M15.38 0 C18.74 -1.68, 20.36 2.71, 20.5 5.13 M20.5 5.13 C18.54 14.78, 20.01 24.68, 20.5 30.38 M20.5 30.38 C22.06 34.05, 20.31 34.28, 15.38 35.5 M15.38 35.5 C11.03 35.69, 8.88 35.41, 5.13 35.5 M5.13 35.5 C2.54 34.91, -1.68 34.76, 0 30.38 M0 30.38 C1.79 24.71, 1.15 18.1, 0 5.13 M0 5.13 C1.99 0.3, 3.19 -1.44, 5.13 0" stroke="#1864ab" stroke-width="1.5" fill="none" stroke-dasharray="1.5 7"></path></g><g stroke-linecap="round" transform="translate(429.8106024389838 412.95798627323484) rotate(0 9.25 17.5)"><path d="M4.66 1.54 L17.45 1.22 L19.79 2.11 L17 30.38 L14.66 33.98 L1.63 35.76 L-1.3 31.22 L0.64 5.24 L-0.59 0.94 L3.4 -0.14" stroke="none" stroke-width="0" fill="#fff"></path><path d="M4.63 0 M4.63 0 C7.15 -0.06, 10.25 -0.1, 13.88 0 M13.88 0 C17.96 1.8, 17.59 2.75, 18.5 4.63 M18.5 4.63 C18.34 11.54, 18.73 16.85, 18.5 30.38 M18.5 30.38 C17.28 34.79, 17.25 36.93, 13.88 35 M13.88 35 C11.46 35.47, 9.12 34.32, 4.63 35 M4.63 35 C2.51 34.4, 0.94 32.65, 0 30.38 M0 30.38 C1.22 22.18, -1.55 11.49, 0 4.63 M0 4.63 C-1.44 -0.11, 1.65 1.26, 4.63 0" stroke="#1864ab" stroke-width="1.5" fill="none" stroke-dasharray="1.5 7"></path></g><g stroke-linecap="round" transform="translate(97.11336039275238 412.45798627323484) rotate(0 10.25 17.75)"><path d="M4.93 0.04 L16.11 2.04 L21 3.28 L20.17 28.68 L18.79 33.95 L4.37 33.62 L1.93 34.08 L0.54 2.53 L5.57 -1.32" stroke="none" stroke-width="0" fill="#fff"></path><path d="M5.13 0 M5.13 0 C6.81 0.28, 9.88 -0.69, 15.38 0 M15.38 0 C19.9 -0.4, 20.81 2.26, 20.5 5.13 M20.5 5.13 C18.47 14.9, 19.28 22.8, 20.5 30.38 M20.5 30.38 C20.17 35.45, 17.09 35.38, 15.38 35.5 M15.38 35.5 C12.24 36.44, 10.37 35.82, 5.13 35.5 M5.13 35.5 C1.41 34.28, -1.81 33.83, 0 30.38 M0 30.38 C-0.19 18.51, 0.25 12.28, 0 5.13 M0 5.13 C-1 1.54, 2.71 0.18, 5.13 0" stroke="#1864ab" stroke-width="1.5" fill="none" stroke-dasharray="1.5 7"></path></g><g stroke-linecap="round" transform="translate(400.6133603927524 412.95798627323484) rotate(0 9.25 17.5)"><path d="M5.06 -1.31 L16.63 0.28 L18.4 3.54 L17.21 29.61 L15.16 34.43 L0.65 33.8 L1.02 33.2 L0.55 4.47 L-0.27 2.7 L6.5 -1.59" stroke="none" stroke-width="0" fill="#fff"></path><path d="M4.63 0 M4.63 0 C6.46 0.78, 10.54 0.51, 13.88 0 M13.88 0 C16.52 -0.26, 17.73 -0.23, 18.5 4.63 M18.5 4.63 C18.18 15.22, 16.49 21.74, 18.5 30.38 M18.5 30.38 C19.72 33.1, 15.46 34.73, 13.88 35 M13.88 35 C12.21 34.89, 8.62 34.61, 4.63 35 M4.63 35 C1.69 36.14, 0.67 32.54, 0 30.38 M0 30.38 C-0.91 18.76, -0.18 9.31, 0 4.63 M0 4.63 C0.57 0.54, -0.28 1.31, 4.63 0" stroke="#1864ab" stroke-width="1.5" fill="none" stroke-dasharray="1.5 7"></path></g><g transform="translate(10 508.20000000000005) rotate(0 76.44015502929688 9.600000000000023)"><text x="0" y="0" font-family="Virgil, Segoe UI Emoji" font-size="16px" fill="#1864ab" text-anchor="start" style="white-space: pre;" direction="ltr" dominant-baseline="text-before-edge">next free block pos</text></g><g stroke-linecap="round"><g transform="translate(111.54399084967451 457.3104902546462) rotate(0 171.84136496791518 23.596801349826023)"><path d="M0 0 C17.34 7.12, 46.77 35, 104.05 42.72 C161.33 50.43, 303.74 45.7, 343.68 46.3" stroke="#1864ab" stroke-width="1.5" fill="none" stroke-dasharray="8 9"></path></g><g transform="translate(111.54399084967451 457.3104902546462) rotate(0 171.84136496791518 23.596801349826023)"><path d="M315.57 56.76 C324.76 53.34, 333.96 49.91, 343.68 46.3" stroke="#1864ab" stroke-width="1.5" fill="none"></path></g><g transform="translate(111.54399084967451 457.3104902546462) rotate(0 171.84136496791518 23.596801349826023)"><path d="M315.42 36.24 C324.66 39.53, 333.91 42.82, 343.68 46.3" stroke="#1864ab" stroke-width="1.5" fill="none"></path></g></g><mask></mask><g transform="translate(478 493.20000000000005) rotate(0 76.44015502929688 9.600000000000023)"><text x="0" y="0" font-family="Virgil, Segoe UI Emoji" font-size="16px" fill="#1864ab" text-anchor="start" style="white-space: pre;" direction="ltr" dominant-baseline="text-before-edge">next free block pos</text></g><g stroke-linecap="round"><g transform="translate(345.3633603927524 251.30000000000007) rotate(0 0.9590346314385556 25.44098520427943)"><path d="M-1.29 1.07 C-1.18 8.85, 1 40.46, 1.16 48.93 M3.21 -0.82 C3.09 7.11, 0.92 43.71, 0.1 51.71" stroke="#862e9c" stroke-width="1" fill="none"></path></g><g transform="translate(345.3633603927524 251.30000000000007) rotate(0 0.9590346314385556 25.44098520427943)"><path d="M-5.2 30.48 C-6.41 36.17, 0 41.89, 3.5 55.17 M-8.52 28.81 C-3.52 36.88, 0.31 43.37, -1.89 51.64" stroke="#862e9c" stroke-width="1" fill="none"></path></g><g transform="translate(345.3633603927524 251.30000000000007) rotate(0 0.9590346314385556 25.44098520427943)"><path d="M12.03 31.78 C5.31 36.9, 6.23 42.2, 3.5 55.17 M8.71 30.12 C7.45 37.67, 5.04 43.69, -1.89 51.64" stroke="#862e9c" stroke-width="1" fill="none"></path></g></g><mask></mask><g stroke-linecap="round"><g transform="translate(404.69090977550684 399.30000000000007) rotate(0 -174.41377469137723 -26.644013326314905)"><path d="M0 0 C-9.72 -8.33, -0.19 -41.92, -58.33 -50 C-116.47 -58.08, -300.41 -48.75, -348.83 -48.5" stroke="#5c940d" stroke-width="1.5" fill="none" stroke-dasharray="8 9"></path></g><g transform="translate(404.69090977550684 399.30000000000007) rotate(0 -174.41377469137723 -26.644013326314905)"><path d="M-320.92 -59.51 C-328.31 -56.6, -335.69 -53.68, -348.83 -48.5" stroke="#5c940d" stroke-width="1.5" fill="none"></path></g><g transform="translate(404.69090977550684 399.30000000000007) rotate(0 -174.41377469137723 -26.644013326314905)"><path d="M-320.37 -39 C-327.9 -41.51, -335.44 -44.03, -348.83 -48.5" stroke="#5c940d" stroke-width="1.5" fill="none"></path></g></g><mask></mask><g transform="translate(55.92320536345551 315.70000000000005) rotate(0 90.32817840576172 9.599999999999994)"><text x="0" y="0" font-family="Virgil, Segoe UI Emoji" font-size="16px" fill="#5c940d" text-anchor="start" style="white-space: pre;" direction="ltr" dominant-baseline="text-before-edge">previous free block pos</text></g><g transform="translate(465.53518198699066 349.70000000000005) rotate(0 90.32817840576172 9.600000000000023)"><text x="0" y="0" font-family="Virgil, Segoe UI Emoji" font-size="16px" fill="#5c940d" text-anchor="start" style="white-space: pre;" direction="ltr" dominant-baseline="text-before-edge">previous free block pos</text></g><g stroke-linecap="round"><g transform="translate(441.3633603927524 361.81567338903767) rotate(0 -179.75 13.39249916587903)"><path d="M0 0 C-46.58 -0.11, -219.58 -5.56, -279.5 -0.65 C-339.42 4.26, -346.17 24.46, -359.5 29.48" stroke="#5c940d" stroke-width="1.5" fill="none" stroke-dasharray="8 9"></path></g><g transform="translate(441.3633603927524 361.81567338903767) rotate(0 -179.75 13.39249916587903)"><path d="M-341.6 5.41 C-347.93 13.93, -354.27 22.45, -359.5 29.48" stroke="#5c940d" stroke-width="1.5" fill="none"></path></g><g transform="translate(441.3633603927524 361.81567338903767) rotate(0 -179.75 13.39249916587903)"><path d="M-330.31 22.55 C-340.64 25, -350.97 27.46, -359.5 29.48" stroke="#5c940d" stroke-width="1.5" fill="none"></path></g></g><mask></mask><g stroke-linecap="round" transform="translate(56.613360392752384 108.04999999999995) rotate(0 89.25 24.75)"><path d="M12.42 0.49 L170.38 1.36 L177.19 1.5 L177.13 7.48 L178.43 42.37 L172.74 47.33 L166.84 50.45 L6.66 47.25 L2.7 44.94 L1.9 41.7 L-0.69 9.43 L2.75 4.3 L3.67 2.93 L10.81 -0.11" stroke="none" stroke-width="0" fill="#fff"></path><path d="M12.38 0 M12.38 0 C44.02 -2.37, 80.49 -1.85, 166.13 0 M12.38 0 C63.4 0.8, 114.69 1.46, 166.13 0 M166.13 0 C175.88 0.07, 179.36 5.08, 178.5 12.38 M166.13 0 C176.19 1.95, 179.25 5.98, 178.5 12.38 M178.5 12.38 C176.92 18.62, 179.14 26.47, 178.5 37.13 M178.5 12.38 C178.97 19.29, 178.93 27.82, 178.5 37.13 M178.5 37.13 C177.81 45.85, 172.47 49.58, 166.13 49.5 M178.5 37.13 C177.91 46.84, 172.39 49.85, 166.13 49.5 M166.13 49.5 C119.67 49.61, 75.65 51.61, 12.38 49.5 M166.13 49.5 C112.36 50.72, 59.97 50.4, 12.38 49.5 M12.38 49.5 C2.37 51.27, 1.96 47.26, 0 37.13 M12.38 49.5 C5.12 48.22, 0.29 45.65, 0 37.13 M0 37.13 C-0.75 28.89, -2.09 20.37, 0 12.38 M0 37.13 C0.1 32.32, -0.74 26.92, 0 12.38 M0 12.38 C0.61 2.75, 3.56 -0.69, 12.38 0 M0 12.38 C-1.19 5.47, 6.05 -0.93, 12.38 0" stroke="#1864ab" stroke-width="1" fill="none"></path></g><g stroke-linecap="round" transform="translate(118.11336039275238 116.79999999999995) rotate(0 28 16.5)"><path d="M8.25 0 L47.75 0 L51.36 0.52 L53.94 2.06 L55.48 4.64 L56 8.25 L56 24.75 L55.48 28.36 L53.94 30.94 L51.36 32.48 L47.75 33 L8.25 33 L4.64 32.48 L2.06 30.94 L0.52 28.36 L0 24.75 L0.52 4.64 L2.06 2.06 L4.64 0.52 L8.25 0" stroke="none" stroke-width="0" fill="#ffffff"></path><path d="M8.25 0 M8.25 0 C20.84 0, 33.42 0, 47.75 0 M47.75 0 C53.25 0, 56 2.75, 56 8.25 M56 8.25 C56 12.68, 56 17.12, 56 24.75 M56 24.75 C56 30.25, 53.25 33, 47.75 33 M47.75 33 C36.24 33, 24.72 33, 8.25 33 M8.25 33 C2.75 33, 0 30.25, 0 24.75 M0 24.75 C0 18.87, 0 12.99, 0 8.25 M0 8.25 C0 2.75, 2.75 0, 8.25 0" stroke="#1864ab" stroke-width="1.5" fill="none" stroke-dasharray="1.5 7"></path></g><g transform="translate(130.03332804411957 123.69999999999993) rotate(0 16.080032348632812 9.599999999999994)"><text x="16.080032348632812" y="0" font-family="Virgil, Segoe UI Emoji" font-size="16px" fill="#1864ab" text-anchor="middle" style="white-space: pre;" direction="ltr" dominant-baseline="text-before-edge">free</text></g><g stroke-linecap="round" transform="translate(65.11336039275238 116.79999999999995) rotate(0 10.25 17.75)"><path d="M5.71 1.78 L16.03 -0.85 L18.19 3.59 L20.33 29.45 L17.19 35.89 L3.83 34.88 L-1.16 32.23 L-1.15 4.59 L6.8 -0.89" stroke="none" stroke-width="0" fill="#fff"></path><path d="M5.13 0 M5.13 0 C7.58 0.64, 10.43 -0.03, 15.38 0 M15.38 0 C17.1 0.8, 22.21 0.27, 20.5 5.13 M20.5 5.13 C21.43 9.49, 19.09 16.88, 20.5 30.38 M20.5 30.38 C19.56 32.82, 19.16 37.01, 15.38 35.5 M15.38 35.5 C13.08 36.42, 9.49 36.38, 5.13 35.5 M5.13 35.5 C1.45 35.02, -0.63 32.28, 0 30.38 M0 30.38 C0.19 23.75, -2.07 18.36, 0 5.13 M0 5.13 C-1.7 2.6, 1.54 -0.69, 5.13 0" stroke="#1864ab" stroke-width="1.5" fill="none" stroke-dasharray="1.5 7"></path></g><g stroke-linecap="round" transform="translate(209.86336039275238 116.79999999999995) rotate(0 9.25 17.5)"><path d="M6.41 -1.59 L14.72 -1.7 L18.92 2.44 L17.57 29.95 L16.61 35.66 L2.3 33.23 L-0.1 30.93 L1.71 6.3 L0.27 1.11 L5.64 -0.54" stroke="none" stroke-width="0" fill="#fff"></path><path d="M4.63 0 M4.63 0 C6.81 -0.71, 9.47 0.87, 13.88 0 M13.88 0 C15.52 -1.05, 20.44 1.01, 18.5 4.63 M18.5 4.63 C17.51 12.29, 17.29 22.21, 18.5 30.38 M18.5 30.38 C20.01 33.52, 17.82 35.95, 13.88 35 M13.88 35 C11.12 34.91, 6.64 34.74, 4.63 35 M4.63 35 C0.03 34.15, 0.7 33.35, 0 30.38 M0 30.38 C0.99 20.6, 0.91 14.04, 0 4.63 M0 4.63 C-0.69 2.01, -0.36 0.08, 4.63 0" stroke="#1864ab" stroke-width="1.5" fill="none" stroke-dasharray="1.5 7"></path></g><g stroke-linecap="round" transform="translate(91.66611834652099 116.79999999999995) rotate(0 10.25 17.75)"><path d="M3.54 -1.18 L15.62 1.02 L20.01 1.96 L20.07 31.09 L18.57 34.88 L1.41 34.79 L-1.15 34.32 L2 2 L5.08 1.01" stroke="none" stroke-width="0" fill="#fff"></path><path d="M5.13 0 M5.13 0 C7.12 -0.12, 9.85 0.35, 15.38 0 M15.38 0 C20.51 -1.44, 19.45 3.65, 20.5 5.13 M20.5 5.13 C18.93 11.29, 19.64 17.98, 20.5 30.38 M20.5 30.38 C20.87 35.3, 18.86 36.36, 15.38 35.5 M15.38 35.5 C12.15 36.41, 8.12 35.34, 5.13 35.5 M5.13 35.5 C1.08 33.98, -0.85 34.5, 0 30.38 M0 30.38 C-2.01 23.92, -1.73 16.4, 0 5.13 M0 5.13 C-0.17 1.02, 2.18 -1.9, 5.13 0" stroke="#1864ab" stroke-width="1.5" fill="none" stroke-dasharray="1.5 7"></path></g><g stroke-linecap="round" transform="translate(182.166118346521 116.79999999999995) rotate(0 9.25 17.5)"><path d="M3.45 -1.99 L16.6 0.12 L17.29 2.18 L19.21 31.32 L15.6 33.23 L2.21 33.24 L2 34.08 L-0.89 4.58 L2.17 0.62 L3.46 1.19" stroke="none" stroke-width="0" fill="#fff"></path><path d="M4.63 0 M4.63 0 C7.05 0.87, 8.07 -0.41, 13.88 0 M13.88 0 C18.9 -0.53, 19.19 -0.35, 18.5 4.63 M18.5 4.63 C17.44 10.59, 19.91 15.88, 18.5 30.38 M18.5 30.38 C19.36 34.41, 18.54 36.69, 13.88 35 M13.88 35 C10.57 34.7, 7.02 34.59, 4.63 35 M4.63 35 C2.25 34.89, 0.28 33.33, 0 30.38 M0 30.38 C0.77 25.02, -0.81 20.49, 0 4.63 M0 4.63 C-1.9 1.62, 1.03 1.28, 4.63 0" stroke="#1864ab" stroke-width="1.5" fill="none" stroke-dasharray="1.5 7"></path></g><g stroke-linecap="round"><g transform="translate(192.86336039275238 103.60000000000014) rotate(0 -70.5 -26.25)"><path d="M0 0 C-8.25 -7.17, -26 -34.25, -49.5 -43 C-73 -51.75, -125.75 -50.92, -141 -52.5" stroke="#5c940d" stroke-width="1.5" fill="none" stroke-dasharray="8 9"></path></g><g transform="translate(192.86336039275238 103.60000000000014) rotate(0 -70.5 -26.25)"><path d="M-112.33 -61.35 C-118.17 -59.55, -124 -57.75, -141 -52.5" stroke="#5c940d" stroke-width="1.5" fill="none"></path></g><g transform="translate(192.86336039275238 103.60000000000014) rotate(0 -70.5 -26.25)"><path d="M-113.35 -40.85 C-118.98 -43.22, -124.6 -45.59, -141 -52.5" stroke="#5c940d" stroke-width="1.5" fill="none"></path></g></g><mask></mask><g transform="translate(54.92320536345551 10) rotate(0 90.32817840576172 9.599999999999994)"><text x="0" y="0" font-family="Virgil, Segoe UI Emoji" font-size="16px" fill="#5c940d" text-anchor="start" style="white-space: pre;" direction="ltr" dominant-baseline="text-before-edge">previous free block pos</text></g><g transform="translate(444.53518198699066 31.5) rotate(0 90.32817840576172 9.599999999999994)"><text x="0" y="0" font-family="Virgil, Segoe UI Emoji" font-size="16px" fill="#5c940d" text-anchor="start" style="white-space: pre;" direction="ltr" dominant-baseline="text-before-edge">previous free block pos</text></g><g stroke-linecap="round"><g transform="translate(422.3633603927524 41.11567338903774) rotate(0 -172.5 21.506920350790026)"><path d="M0 0 C-46.5 0.42, -221.5 -4.92, -279 2.5 C-336.5 9.91, -334 37.49, -345 44.48" stroke="#5c940d" stroke-width="1.5" fill="none" stroke-dasharray="8 9"></path></g><g transform="translate(422.3633603927524 41.11567338903774) rotate(0 -172.5 21.506920350790026)"><path d="M-336 15.87 C-339.32 26.41, -342.63 36.96, -345 44.48" stroke="#5c940d" stroke-width="1.5" fill="none"></path></g><g transform="translate(422.3633603927524 41.11567338903774) rotate(0 -172.5 21.506920350790026)"><path d="M-319.71 28.35 C-329.03 34.29, -338.35 40.24, -345 44.48" stroke="#5c940d" stroke-width="1.5" fill="none"></path></g></g><mask></mask><g stroke-linecap="round"><g transform="translate(13.872088218357135 208.51279151246138) rotate(0 22.92731628357376 -18.608975102346562)"><path d="M0 0 C4.45 -0.8, 19.08 1.41, 26.72 -4.8 C34.36 -11, 42.67 -31.81, 45.85 -37.22" stroke="#1864ab" stroke-width="1.5" fill="none" stroke-dasharray="8 9"></path></g><g transform="translate(13.872088218357135 208.51279151246138) rotate(0 22.92731628357376 -18.608975102346562)"><path d="M43.72 -18.52 C44.43 -24.71, 45.14 -30.91, 45.85 -37.22" stroke="#1864ab" stroke-width="1.5" fill="none"></path></g><g transform="translate(13.872088218357135 208.51279151246138) rotate(0 22.92731628357376 -18.608975102346562)"><path d="M32.2 -24.26 C36.73 -28.55, 41.25 -32.85, 45.85 -37.22" stroke="#1864ab" stroke-width="1.5" fill="none"></path></g></g><mask></mask><g transform="translate(15 224.88720848753871) rotate(0 76.44015502929688 9.599999999999994)"><text x="0" y="0" font-family="Virgil, Segoe UI Emoji" font-size="16px" fill="#1864ab" text-anchor="start" style="white-space: pre;" direction="ltr" dominant-baseline="text-before-edge">next free block pos</text></g><g stroke-linecap="round"><g transform="translate(108.87208821835725 163.51279151246138) rotate(0 162.67731628357376 19.7417890862352)"><path d="M0 0 C13.87 5.95, 28.99 29.24, 83.22 35.7 C137.45 42.17, 285 38.27, 325.35 38.78" stroke="#1864ab" stroke-width="1.5" fill="none" stroke-dasharray="8 9"></path></g><g transform="translate(108.87208821835725 163.51279151246138) rotate(0 162.67731628357376 19.7417890862352)"><path d="M297.22 49.2 C306.22 45.87, 315.22 42.53, 325.35 38.78" stroke="#1864ab" stroke-width="1.5" fill="none"></path></g><g transform="translate(108.87208821835725 163.51279151246138) rotate(0 162.67731628357376 19.7417890862352)"><path d="M297.11 28.68 C306.14 31.91, 315.18 35.14, 325.35 38.78" stroke="#1864ab" stroke-width="1.5" fill="none"></path></g></g><mask></mask><g transform="translate(460.5 189.88720848753871) rotate(0 76.44015502929688 9.599999999999994)"><text x="0" y="0" font-family="Virgil, Segoe UI Emoji" font-size="16px" fill="#1864ab" text-anchor="start" style="white-space: pre;" direction="ltr" dominant-baseline="text-before-edge">next free block pos</text></g><g stroke-linecap="round"><g transform="translate(10.436044109178624 496.9089751023465) rotate(0 22.92731628357376 -18.608975102346562)"><path d="M0 0 C4.45 -0.8, 19.08 1.41, 26.72 -4.8 C34.36 -11, 42.67 -31.81, 45.85 -37.22" stroke="#1864ab" stroke-width="1.5" fill="none" stroke-dasharray="8 9"></path></g><g transform="translate(10.436044109178624 496.9089751023465) rotate(0 22.92731628357376 -18.608975102346562)"><path d="M43.72 -18.52 C44.25 -23.09, 44.77 -27.67, 45.85 -37.22" stroke="#1864ab" stroke-width="1.5" fill="none"></path></g><g transform="translate(10.436044109178624 496.9089751023465) rotate(0 22.92731628357376 -18.608975102346562)"><path d="M32.2 -24.26 C35.54 -27.43, 38.88 -30.6, 45.85 -37.22" stroke="#1864ab" stroke-width="1.5" fill="none"></path></g></g><mask></mask></svg>