<svg version="1.1" xmlns="http://www.w3.org/2000/svg" viewBox="0 0 681.2906766763263 589.5150579752366" width="1362.5813533526525" height="1179.0301159504731">
  <!-- svg-source:excalidraw -->
  
  <defs>
    <style class="style-fonts">
      @font-face {
        font-family: "Virgil";
        src: url("https://excalidraw.com/Virgil.woff2");
      }
      @font-face {
        font-family: "Cascadia";
        src: url("https://excalidraw.com/Cascadia.woff2");
      }
    </style>
  </defs>
  <rect x="0" y="0" width="681.2906766763263" height="589.5150579752366" fill="#ffffff"></rect><g stroke-linecap="round" transform="translate(41.363360392752384 99.80000000000007) rotate(0 311.50000000000006 37)"><path d="M22.09 -3.36 L607.03 -1.34 L619.66 -0.56 L623.06 10.38 L619.41 62.27 L620.81 68.77 L615.41 75.33 L604.97 71.34 L15.64 73.32 L10.49 72.1 L-0.67 63.19 L3.85 15.11 L1.51 2.44 L20.96 -0.62" stroke="none" stroke-width="0" fill="#40c05733"></path><path d="M18.5 0 M18.5 0 C252.71 -1.89, 487.47 -1.95, 604.5 0 M18.5 0 C193.04 -1.97, 368.56 -3.28, 604.5 0 M604.5 0 C620.66 1.25, 621.18 6.73, 623 18.5 M604.5 0 C619.02 0.9, 624.97 8.55, 623 18.5 M623 18.5 C624.89 26.29, 626.48 35.54, 623 55.5 M623 18.5 C621.75 31.83, 623.84 44, 623 55.5 M623 55.5 C626.69 71.78, 612.99 75.8, 604.5 74 M623 55.5 C618.77 63.34, 613.52 69.84, 604.5 74 M604.5 74 C465.97 79.8, 329.69 78.2, 18.5 74 M604.5 74 C426.91 77.5, 249.73 76.46, 18.5 74 M18.5 74 C2.22 70.89, 2.32 64.12, 0 55.5 M18.5 74 C3.72 75.86, -1.78 69.21, 0 55.5 M0 55.5 C-0.74 47.67, -2.18 31.93, 0 18.5 M0 55.5 C1.48 39.9, -1.18 24.86, 0 18.5 M0 18.5 C-1.55 5.84, 6.31 -3.23, 18.5 0 M0 18.5 C-1.38 8.93, 3.41 -3.49, 18.5 0" stroke="#fff" stroke-width="1" fill="none"></path></g><g transform="translate(296.3633603927524 555.4000000000001) rotate(359.8962637780171 63.55992889404297 12)"><text x="0" y="0" font-family="Virgil, Segoe UI Emoji" font-size="20px" fill="#e6770033" text-anchor="start" style="white-space: pre;" direction="ltr" dominant-baseline="text-before-edge">@hemashushu</text></g><g stroke-linecap="round"><g transform="translate(38.863360392752384 98.30000000000007) rotate(0 310.4201314308774 0.44972385398295955)"><path d="M0.04 -0.68 C103.84 -0.39, 518.42 1.14, 622.23 1.07 M-1.39 1.58 C102.31 1.61, 517.4 -0.17, 621.41 -0.49" stroke="#2b8a3e" stroke-width="1" fill="none"></path></g></g><mask></mask><g stroke-linecap="round"><g transform="translate(43.443228961875036 175.00605289591482) rotate(0 307.36207613009486 0.10718372952192112)"><path d="M-1.09 -0.63 C101.02 -0.71, 510.97 0.28, 613.73 0.45 M0.54 1.66 C102.9 1.13, 513.42 -0.87, 615.82 -1.44" stroke="#2b8a3e" stroke-width="1" fill="none"></path></g></g><mask></mask><g stroke-linecap="round" transform="translate(251.61336039275238 113.55000000000007) rotate(0 102.75 24.75)"><path d="M10.43 -1.09 L196.34 -0.89 L200.66 2.28 L203.62 7.36 L206.56 40.88 L202.33 45.2 L193.69 49.97 L9.31 47.58 L6.4 49.34 L-0.26 44.11 L-1.2 14.36 L2.66 3.12 L12.07 1.08" stroke="none" stroke-width="0" fill="#fff"></path><path d="M12.38 0 M12.38 0 C66.32 0.88, 115.37 0.08, 193.13 0 M12.38 0 C73.37 0.28, 135.92 1.72, 193.13 0 M193.13 0 C202.07 -0.17, 205.91 2.45, 205.5 12.38 M193.13 0 C200.66 -1.21, 205.09 3.21, 205.5 12.38 M205.5 12.38 C204.59 22.3, 206.52 30.04, 205.5 37.13 M205.5 12.38 C204.71 18.05, 205.69 23.66, 205.5 37.13 M205.5 37.13 C203.95 43.85, 202.38 50.17, 193.13 49.5 M205.5 37.13 C203.65 45.53, 200.21 48.09, 193.13 49.5 M193.13 49.5 C144.84 48.63, 96.77 49.47, 12.38 49.5 M193.13 49.5 C138.83 49.57, 82.79 48.14, 12.38 49.5 M12.38 49.5 C3.07 48.36, -0.73 43.73, 0 37.13 M12.38 49.5 C2.84 47.54, 1.32 44.59, 0 37.13 M0 37.13 C1.14 28.83, 1.69 16.77, 0 12.38 M0 37.13 C0.94 30.86, 1.22 25.28, 0 12.38 M0 12.38 C-1.03 3.05, 5.34 -0.93, 12.38 0 M0 12.38 C1.85 2.21, 5.52 0.44, 12.38 0" stroke="#e67700" stroke-width="1" fill="none"></path></g><g stroke-linecap="round" transform="translate(291.1133603927524 121.05000000000007) rotate(0 63 17.5)"><path d="M8.75 0 L117.25 0 L121.08 0.55 L123.81 2.19 L125.45 4.92 L126 8.75 L125.45 30.08 L123.81 32.81 L121.08 34.45 L117.25 35 L8.75 35 L4.92 34.45 L2.19 32.81 L0.55 30.08 L0 8.75 L0.55 4.92 L2.19 2.19 L4.92 0.55 L8.75 0" stroke="none" stroke-width="0" fill="#ffffff"></path><path d="M8.75 0 M8.75 0 C47.43 0, 86.11 0, 117.25 0 M117.25 0 C123.08 0, 126 2.92, 126 8.75 M126 8.75 C126 15.24, 126 21.73, 126 26.25 M126 26.25 C126 32.08, 123.08 35, 117.25 35 M117.25 35 C86.18 35, 55.12 35, 8.75 35 M8.75 35 C2.92 35, 0 32.08, 0 26.25 M0 26.25 C0 20.4, 0 14.54, 0 8.75 M0 8.75 C0 2.92, 2.92 0, 8.75 0" stroke="#e67700" stroke-width="1.5" fill="none" stroke-dasharray="1.5 7"></path></g><g transform="translate(317.33728312224457 128.95000000000005) rotate(0 36.77607727050781 9.599999999999994)"><text x="36.77607727050781" y="0" font-family="Virgil, Segoe UI Emoji" font-size="16px" fill="#e67700" text-anchor="middle" style="white-space: pre;" direction="ltr" dominant-baseline="text-before-edge">allocated</text></g><g stroke-linecap="round" transform="translate(260.1133603927524 121.05000000000007) rotate(0 11.75 17.75)"><path d="M4.79 -0.01 L20.73 -0.74 L23.53 4.56 L24.35 29.55 L21.93 32.76 L20.66 34.97 L1.58 36.7 L1.95 31.16 L1.93 2.1 L5.29 -0.07 L5.9 -0.3" stroke="none" stroke-width="0" fill="#fff"></path><path d="M5.88 0 M5.88 0 C9.23 1.1, 13.98 -0.7, 17.63 0 M17.63 0 C20.38 0.83, 22.64 0.68, 23.5 5.88 M23.5 5.88 C24.42 11.91, 23.12 16.99, 23.5 29.63 M23.5 29.63 C21.82 32.92, 20.49 35.14, 17.63 35.5 M17.63 35.5 C15.4 34.99, 11.92 36.12, 5.88 35.5 M5.88 35.5 C1.18 34.11, -0.18 32.55, 0 29.63 M0 29.63 C-0.26 22.77, -1.52 20.02, 0 5.88 M0 5.88 C0.67 0.35, 2.1 -1.02, 5.88 0" stroke="#e67700" stroke-width="1.5" fill="none" stroke-dasharray="1.5 7"></path></g><g stroke-linecap="round" transform="translate(425.8633603927524 120.30000000000007) rotate(0 11.75 17.75)"><path d="M5.87 0.54 L19.09 0.76 L24.39 4.16 L23.43 28.42 L23.7 32.66 L20.03 33.4 L4.87 36.72 L-0.66 33.76 L-0.83 5.29 L2.87 0.39 L5.57 1.08" stroke="none" stroke-width="0" fill="#fff"></path><path d="M5.88 0 M5.88 0 C10.34 -0.13, 11.93 -0.6, 17.63 0 M17.63 0 C22.37 -0.86, 22.22 0.46, 23.5 5.88 M23.5 5.88 C24.21 10.74, 23.93 14.27, 23.5 29.63 M23.5 29.63 C22.88 32.49, 21.19 34.71, 17.63 35.5 M17.63 35.5 C12.82 36, 9.57 35.13, 5.88 35.5 M5.88 35.5 C0.57 35.32, -0.99 32.01, 0 29.63 M0 29.63 C-1.6 21.06, 0.95 16.23, 0 5.88 M0 5.88 C-1.61 2.1, 0.94 -1.23, 5.88 0" stroke="#e67700" stroke-width="1.5" fill="none" stroke-dasharray="1.5 7"></path></g><g stroke-linecap="round" transform="translate(41.81060243898378 397.45798627323484) rotate(0 311.50000000000006 37)"><path d="M15.79 -3.83 L607.66 1.92 L614.03 4.31 L625.36 13.24 L623.16 61.69 L617.47 70.5 L615.85 74.47 L607.59 75.87 L17.32 72.73 L4.23 71.41 L-1.32 62.13 L-1.95 20.59 L1.44 2.27 L19.78 1.23" stroke="none" stroke-width="0" fill="#40c05733"></path><path d="M18.5 0 M18.5 0 C142.9 3.61, 268.6 3.49, 604.5 0 M18.5 0 C151.55 4.33, 285.44 3.56, 604.5 0 M604.5 0 C619.24 -3.68, 622.63 5.42, 623 18.5 M604.5 0 C616.51 3.59, 623.59 9.65, 623 18.5 M623 18.5 C627.35 25.05, 623.83 40.17, 623 55.5 M623 18.5 C621.63 29.88, 622.71 40.26, 623 55.5 M623 55.5 C621.37 71.65, 619.15 76.53, 604.5 74 M623 55.5 C626.14 72.41, 613.6 77.4, 604.5 74 M604.5 74 C471.88 73.74, 337.01 74.24, 18.5 74 M604.5 74 C402.49 74.73, 200.4 74.39, 18.5 74 M18.5 74 C9.54 73.64, -1.76 70.16, 0 55.5 M18.5 74 C5.31 75.46, 1.27 67.36, 0 55.5 M0 55.5 C-2.12 46.67, 0.33 32.68, 0 18.5 M0 55.5 C-0.27 48.03, 0.46 35.04, 0 18.5 M0 18.5 C-1.08 8.33, 3.59 -3.59, 18.5 0 M0 18.5 C3.41 5.07, 6.99 2.46, 18.5 0" stroke="#fff" stroke-width="1" fill="none"></path></g><g stroke-linecap="round"><g transform="translate(39.31060243898378 395.95798627323484) rotate(0 310.8994364209007 0.6451070735324151)"><path d="M0.49 -0.52 C104.43 -0.29, 518.79 0.95, 622.51 1.06 M-0.71 1.81 C103.22 1.77, 517.96 -0.46, 621.83 -0.51" stroke="#2b8a3e" stroke-width="1" fill="none"></path></g></g><mask></mask><g stroke-linecap="round"><g transform="translate(43.890471008106374 472.66403916914953) rotate(0 307.7260034636175 0.01077532092108413)"><path d="M-0.52 0.51 C102.2 0.57, 513.38 0.84, 615.98 0.85 M1.4 -0.26 C104.09 -0.58, 513.42 -0.62, 615.58 -0.83" stroke="#2b8a3e" stroke-width="1" fill="none"></path></g></g><mask></mask><g stroke-linecap="round" transform="translate(58.56060243898378 409.20798627323484) rotate(0 294 24.75)"><path d="M12.6 0.93 L577.06 2.06 L583.2 3.28 L588.77 7.9 L589.38 39.54 L583.41 46.41 L574.39 48.77 L8.5 50.35 L3.24 46.58 L1.41 43.15 L-1.75 12.16 L1.87 2.96 L13.29 1.35" stroke="none" stroke-width="0" fill="#fff"></path><path d="M12.38 0 M12.38 0 C202.19 0, 393.74 0.78, 575.63 0 M12.38 0 C155.62 2, 298.91 2.39, 575.63 0 M575.63 0 C584.13 1.52, 586.78 5.45, 588 12.38 M575.63 0 C584.21 2.22, 586.68 4.32, 588 12.38 M588 12.38 C587.36 20.58, 588.92 31.54, 588 37.13 M588 12.38 C588.48 21.6, 588.58 30.54, 588 37.13 M588 37.13 C586.59 46.85, 582.44 47.85, 575.63 49.5 M588 37.13 C588.12 46.83, 583.15 49.18, 575.63 49.5 M575.63 49.5 C406.89 51.17, 237.52 51.28, 12.38 49.5 M575.63 49.5 C451.19 49.53, 327.04 49.43, 12.38 49.5 M12.38 49.5 C4.68 49.29, 0.24 45.73, 0 37.13 M12.38 49.5 C2.06 48.36, 1.56 45.64, 0 37.13 M0 37.13 C-1.78 28.8, 2.08 21.95, 0 12.38 M0 37.13 C-0.58 30.75, 0.81 25.94, 0 12.38 M0 12.38 C0.36 5.2, 5.12 -0.03, 12.38 0 M0 12.38 C0.33 3.26, 2.48 -1.53, 12.38 0" stroke="#1864ab" stroke-width="1" fill="none"></path></g><g stroke-linecap="round" transform="translate(131.56060243898378 418.95798627323484) rotate(0 221 15)"><path d="M7.5 0 L434.5 0 L437.78 0.47 L440.13 1.88 L441.53 4.22 L442 22.5 L441.53 25.78 L440.13 28.13 L437.78 29.53 L434.5 30 L7.5 30 L4.22 29.53 L1.88 28.13 L0.47 25.78 L0 22.5 L0.47 4.22 L1.88 1.88 L4.22 0.47 L7.5 0" stroke="none" stroke-width="0" fill="#ffffff"></path><path d="M7.5 0 M7.5 0 C168.95 0, 330.4 0, 434.5 0 M434.5 0 C439.5 0, 442 2.5, 442 7.5 M442 7.5 C442 12.62, 442 17.74, 442 22.5 M442 22.5 C442 27.5, 439.5 30, 434.5 30 M434.5 30 C263.92 30, 93.33 30, 7.5 30 M7.5 30 C2.5 30, 0 27.5, 0 22.5 M0 22.5 C0 17.02, 0 11.54, 0 7.5 M0 7.5 C0 2.5, 2.5 0, 7.5 0" stroke="#1864ab" stroke-width="1.5" fill="none" stroke-dasharray="1.5 7"></path></g><g transform="translate(336.48057009035097 424.3579862732348) rotate(0 16.080032348632812 9.600000000000023)"><text x="16.080032348632812" y="0" font-family="Virgil, Segoe UI Emoji" font-size="16px" fill="#1864ab" text-anchor="middle" style="white-space: pre;" direction="ltr" dominant-baseline="text-before-edge">free</text></g><g stroke-linecap="round" transform="translate(72.56060243898378 417.45798627323484) rotate(0 10.25 17.75)"><path d="M6.99 0.04 L19.15 1.87 L21.11 4.46 L20.01 28.88 L17.62 33.94 L2.15 34.21 L1.37 31.03 L-0.86 3.52 L5.74 -1.75" stroke="none" stroke-width="0" fill="#fff"></path><path d="M5.13 0 M5.13 0 C8.56 0.7, 11.44 -0.74, 15.38 0 M15.38 0 C18.74 -1.68, 20.36 2.71, 20.5 5.13 M20.5 5.13 C18.54 14.78, 20.01 24.68, 20.5 30.38 M20.5 30.38 C22.06 34.05, 20.31 34.28, 15.38 35.5 M15.38 35.5 C11.03 35.69, 8.88 35.41, 5.13 35.5 M5.13 35.5 C2.54 34.91, -1.68 34.76, 0 30.38 M0 30.38 C1.79 24.71, 1.15 18.1, 0 5.13 M0 5.13 C1.99 0.3, 3.19 -1.44, 5.13 0" stroke="#1864ab" stroke-width="1.5" fill="none" stroke-dasharray="1.5 7"></path></g><g stroke-linecap="round" transform="translate(614.8106024389838 415.95798627323484) rotate(0 9.25 17.5)"><path d="M4.66 1.54 L17.45 1.22 L19.79 2.11 L17 30.38 L14.66 33.98 L1.63 35.76 L-1.3 31.22 L0.64 5.24 L-0.59 0.94 L3.4 -0.14" stroke="none" stroke-width="0" fill="#fff"></path><path d="M4.63 0 M4.63 0 C7.15 -0.06, 10.25 -0.1, 13.88 0 M13.88 0 C17.96 1.8, 17.59 2.75, 18.5 4.63 M18.5 4.63 C18.34 11.54, 18.73 16.85, 18.5 30.38 M18.5 30.38 C17.28 34.79, 17.25 36.93, 13.88 35 M13.88 35 C11.46 35.47, 9.12 34.32, 4.63 35 M4.63 35 C2.51 34.4, 0.94 32.65, 0 30.38 M0 30.38 C1.22 22.18, -1.55 11.49, 0 4.63 M0 4.63 C-1.44 -0.11, 1.65 1.26, 4.63 0" stroke="#1864ab" stroke-width="1.5" fill="none" stroke-dasharray="1.5 7"></path></g><g stroke-linecap="round" transform="translate(99.11336039275238 417.45798627323484) rotate(0 10.25 17.75)"><path d="M4.93 0.04 L16.11 2.04 L21 3.28 L20.17 28.68 L18.79 33.95 L4.37 33.62 L1.93 34.08 L0.54 2.53 L5.57 -1.32" stroke="none" stroke-width="0" fill="#fff"></path><path d="M5.13 0 M5.13 0 C6.81 0.28, 9.88 -0.69, 15.38 0 M15.38 0 C19.9 -0.4, 20.81 2.26, 20.5 5.13 M20.5 5.13 C18.47 14.9, 19.28 22.8, 20.5 30.38 M20.5 30.38 C20.17 35.45, 17.09 35.38, 15.38 35.5 M15.38 35.5 C12.24 36.44, 10.37 35.82, 5.13 35.5 M5.13 35.5 C1.41 34.28, -1.81 33.83, 0 30.38 M0 30.38 C-0.19 18.51, 0.25 12.28, 0 5.13 M0 5.13 C-1 1.54, 2.71 0.18, 5.13 0" stroke="#1864ab" stroke-width="1.5" fill="none" stroke-dasharray="1.5 7"></path></g><g stroke-linecap="round" transform="translate(585.6133603927524 415.95798627323484) rotate(0 9.25 17.5)"><path d="M5.06 -1.31 L16.63 0.28 L18.4 3.54 L17.21 29.61 L15.16 34.43 L0.65 33.8 L1.02 33.2 L0.55 4.47 L-0.27 2.7 L6.5 -1.59" stroke="none" stroke-width="0" fill="#fff"></path><path d="M4.63 0 M4.63 0 C6.46 0.78, 10.54 0.51, 13.88 0 M13.88 0 C16.52 -0.26, 17.73 -0.23, 18.5 4.63 M18.5 4.63 C18.18 15.22, 16.49 21.74, 18.5 30.38 M18.5 30.38 C19.72 33.1, 15.46 34.73, 13.88 35 M13.88 35 C12.21 34.89, 8.62 34.61, 4.63 35 M4.63 35 C1.69 36.14, 0.67 32.54, 0 30.38 M0 30.38 C-0.91 18.76, -0.18 9.31, 0 4.63 M0 4.63 C0.57 0.54, -0.28 1.31, 4.63 0" stroke="#1864ab" stroke-width="1.5" fill="none" stroke-dasharray="1.5 7"></path></g><g transform="translate(10 505.20000000000005) rotate(0 76.44015502929688 9.600000000000023)"><text x="0" y="0" font-family="Virgil, Segoe UI Emoji" font-size="16px" fill="#1864ab" text-anchor="start" style="white-space: pre;" direction="ltr" dominant-baseline="text-before-edge">next free block pos</text></g><g stroke-linecap="round"><g transform="translate(113.54399084967451 462.3104902546462) rotate(0 174.09136496791518 20.782636474731476)"><path d="M0 0 C9.26 6.37, -2.48 31.58, 55.55 38.22 C113.58 44.85, 299.41 39.53, 348.18 39.8" stroke="#1864ab" stroke-width="1.5" fill="none" stroke-dasharray="8 9"></path></g><g transform="translate(113.54399084967451 462.3104902546462) rotate(0 174.09136496791518 20.782636474731476)"><path d="M320.1 50.36 C329.29 46.91, 338.47 43.45, 348.18 39.8" stroke="#1864ab" stroke-width="1.5" fill="none"></path></g><g transform="translate(113.54399084967451 462.3104902546462) rotate(0 174.09136496791518 20.782636474731476)"><path d="M319.88 29.84 C329.14 33.1, 338.4 36.36, 348.18 39.8" stroke="#1864ab" stroke-width="1.5" fill="none"></path></g></g><mask></mask><g transform="translate(480.5 489.70000000000005) rotate(0 76.44015502929688 9.600000000000023)"><text x="0" y="0" font-family="Virgil, Segoe UI Emoji" font-size="16px" fill="#1864ab" text-anchor="start" style="white-space: pre;" direction="ltr" dominant-baseline="text-before-edge">next free block pos</text></g><g stroke-linecap="round"><g transform="translate(347.3633603927524 256.30000000000007) rotate(0 0.9590346314385556 25.44098520427943)"><path d="M-1.29 1.07 C-1.18 8.85, 1 40.46, 1.16 48.93 M3.21 -0.82 C3.09 7.11, 0.92 43.71, 0.1 51.71" stroke="#862e9c" stroke-width="1" fill="none"></path></g><g transform="translate(347.3633603927524 256.30000000000007) rotate(0 0.9590346314385556 25.44098520427943)"><path d="M-5.2 30.48 C-6.41 36.17, 0 41.89, 3.5 55.17 M-8.52 28.81 C-3.52 36.88, 0.31 43.37, -1.89 51.64" stroke="#862e9c" stroke-width="1" fill="none"></path></g><g transform="translate(347.3633603927524 256.30000000000007) rotate(0 0.9590346314385556 25.44098520427943)"><path d="M12.03 31.78 C5.31 36.9, 6.23 42.2, 3.5 55.17 M8.71 30.12 C7.45 37.67, 5.04 43.69, -1.89 51.64" stroke="#862e9c" stroke-width="1" fill="none"></path></g></g><mask></mask><g stroke-linecap="round"><g transform="translate(593.5532010958347 398.94465579417226) rotate(0 -267.84492035154113 -25.701555618615714)"><path d="M0 0 C-16.28 -8.19, -8.41 -41.95, -97.69 -49.14 C-186.97 -56.34, -462.69 -44.14, -535.69 -43.14" stroke="#5c940d" stroke-width="1.5" fill="none" stroke-dasharray="8 9"></path></g><g transform="translate(593.5532010958347 398.94465579417226) rotate(0 -267.84492035154113 -25.701555618615714)"><path d="M-507.8 -54.19 C-515.18 -51.27, -522.56 -48.35, -535.69 -43.14" stroke="#5c940d" stroke-width="1.5" fill="none"></path></g><g transform="translate(593.5532010958347 398.94465579417226) rotate(0 -267.84492035154113 -25.701555618615714)"><path d="M-507.22 -33.68 C-514.76 -36.19, -522.29 -38.69, -535.69 -43.14" stroke="#5c940d" stroke-width="1.5" fill="none"></path></g></g><mask></mask><g transform="translate(57.92320536345551 320.70000000000005) rotate(0 90.32817840576172 9.599999999999994)"><text x="0" y="0" font-family="Virgil, Segoe UI Emoji" font-size="16px" fill="#5c940d" text-anchor="start" style="white-space: pre;" direction="ltr" dominant-baseline="text-before-edge">previous free block pos</text></g><g transform="translate(468.53518198699066 317.70000000000005) rotate(0 90.32817840576172 9.599999999999994)"><text x="0" y="0" font-family="Virgil, Segoe UI Emoji" font-size="16px" fill="#5c940d" text-anchor="start" style="white-space: pre;" direction="ltr" dominant-baseline="text-before-edge">previous free block pos</text></g><g stroke-linecap="round"><g transform="translate(646.3633603927524 362.31567338903767) rotate(0 -284.5949509504529 17.703068973682605)"><path d="M0 0 C-80.42 0.64, -387.64 -2.06, -482.5 3.85 C-577.36 9.76, -554.74 30.21, -569.19 35.48" stroke="#5c940d" stroke-width="1.5" fill="none" stroke-dasharray="8 9"></path></g><g transform="translate(646.3633603927524 362.31567338903767) rotate(0 -284.5949509504529 17.703068973682605)"><path d="M-558.09 7.61 C-562.02 17.47, -565.95 27.34, -569.19 35.48" stroke="#5c940d" stroke-width="1.5" fill="none"></path></g><g transform="translate(646.3633603927524 362.31567338903767) rotate(0 -284.5949509504529 17.703068973682605)"><path d="M-542.77 21.27 C-552.12 26.3, -561.47 31.33, -569.19 35.48" stroke="#5c940d" stroke-width="1.5" fill="none"></path></g></g><mask></mask><g stroke-linecap="round" transform="translate(58.613360392752384 113.04999999999995) rotate(0 89.25 24.75)"><path d="M12.42 0.49 L170.38 1.36 L177.19 1.5 L177.13 7.48 L178.43 42.37 L172.74 47.33 L166.84 50.45 L6.66 47.25 L2.7 44.94 L1.9 41.7 L-0.69 9.43 L2.75 4.3 L3.67 2.93 L10.81 -0.11" stroke="none" stroke-width="0" fill="#fff"></path><path d="M12.38 0 M12.38 0 C44.02 -2.37, 80.49 -1.85, 166.13 0 M12.38 0 C63.4 0.8, 114.69 1.46, 166.13 0 M166.13 0 C175.88 0.07, 179.36 5.08, 178.5 12.38 M166.13 0 C176.19 1.95, 179.25 5.98, 178.5 12.38 M178.5 12.38 C176.92 18.62, 179.14 26.47, 178.5 37.13 M178.5 12.38 C178.97 19.29, 178.93 27.82, 178.5 37.13 M178.5 37.13 C177.81 45.85, 172.47 49.58, 166.13 49.5 M178.5 37.13 C177.91 46.84, 172.39 49.85, 166.13 49.5 M166.13 49.5 C119.67 49.61, 75.65 51.61, 12.38 49.5 M166.13 49.5 C112.36 50.72, 59.97 50.4, 12.38 49.5 M12.38 49.5 C2.37 51.27, 1.96 47.26, 0 37.13 M12.38 49.5 C5.12 48.22, 0.29 45.65, 0 37.13 M0 37.13 C-0.75 28.89, -2.09 20.37, 0 12.38 M0 37.13 C0.1 32.32, -0.74 26.92, 0 12.38 M0 12.38 C0.61 2.75, 3.56 -0.69, 12.38 0 M0 12.38 C-1.19 5.47, 6.05 -0.93, 12.38 0" stroke="#1864ab" stroke-width="1" fill="none"></path></g><g stroke-linecap="round" transform="translate(120.11336039275238 121.79999999999995) rotate(0 28 16.5)"><path d="M8.25 0 L47.75 0 L51.36 0.52 L53.94 2.06 L55.48 4.64 L56 8.25 L56 24.75 L55.48 28.36 L53.94 30.94 L51.36 32.48 L47.75 33 L8.25 33 L4.64 32.48 L2.06 30.94 L0.52 28.36 L0 24.75 L0.52 4.64 L2.06 2.06 L4.64 0.52 L8.25 0" stroke="none" stroke-width="0" fill="#ffffff"></path><path d="M8.25 0 M8.25 0 C20.84 0, 33.42 0, 47.75 0 M47.75 0 C53.25 0, 56 2.75, 56 8.25 M56 8.25 C56 12.68, 56 17.12, 56 24.75 M56 24.75 C56 30.25, 53.25 33, 47.75 33 M47.75 33 C36.24 33, 24.72 33, 8.25 33 M8.25 33 C2.75 33, 0 30.25, 0 24.75 M0 24.75 C0 18.87, 0 12.99, 0 8.25 M0 8.25 C0 2.75, 2.75 0, 8.25 0" stroke="#1864ab" stroke-width="1.5" fill="none" stroke-dasharray="1.5 7"></path></g><g transform="translate(132.03332804411957 128.69999999999993) rotate(0 16.080032348632812 9.599999999999994)"><text x="16.080032348632812" y="0" font-family="Virgil, Segoe UI Emoji" font-size="16px" fill="#1864ab" text-anchor="middle" style="white-space: pre;" direction="ltr" dominant-baseline="text-before-edge">free</text></g><g stroke-linecap="round" transform="translate(67.11336039275238 121.79999999999995) rotate(0 10.25 17.75)"><path d="M5.71 1.78 L16.03 -0.85 L18.19 3.59 L20.33 29.45 L17.19 35.89 L3.83 34.88 L-1.16 32.23 L-1.15 4.59 L6.8 -0.89" stroke="none" stroke-width="0" fill="#fff"></path><path d="M5.13 0 M5.13 0 C7.58 0.64, 10.43 -0.03, 15.38 0 M15.38 0 C17.1 0.8, 22.21 0.27, 20.5 5.13 M20.5 5.13 C21.43 9.49, 19.09 16.88, 20.5 30.38 M20.5 30.38 C19.56 32.82, 19.16 37.01, 15.38 35.5 M15.38 35.5 C13.08 36.42, 9.49 36.38, 5.13 35.5 M5.13 35.5 C1.45 35.02, -0.63 32.28, 0 30.38 M0 30.38 C0.19 23.75, -2.07 18.36, 0 5.13 M0 5.13 C-1.7 2.6, 1.54 -0.69, 5.13 0" stroke="#1864ab" stroke-width="1.5" fill="none" stroke-dasharray="1.5 7"></path></g><g stroke-linecap="round" transform="translate(211.86336039275238 121.79999999999995) rotate(0 9.25 17.5)"><path d="M6.41 -1.59 L14.72 -1.7 L18.92 2.44 L17.57 29.95 L16.61 35.66 L2.3 33.23 L-0.1 30.93 L1.71 6.3 L0.27 1.11 L5.64 -0.54" stroke="none" stroke-width="0" fill="#fff"></path><path d="M4.63 0 M4.63 0 C6.81 -0.71, 9.47 0.87, 13.88 0 M13.88 0 C15.52 -1.05, 20.44 1.01, 18.5 4.63 M18.5 4.63 C17.51 12.29, 17.29 22.21, 18.5 30.38 M18.5 30.38 C20.01 33.52, 17.82 35.95, 13.88 35 M13.88 35 C11.12 34.91, 6.64 34.74, 4.63 35 M4.63 35 C0.03 34.15, 0.7 33.35, 0 30.38 M0 30.38 C0.99 20.6, 0.91 14.04, 0 4.63 M0 4.63 C-0.69 2.01, -0.36 0.08, 4.63 0" stroke="#1864ab" stroke-width="1.5" fill="none" stroke-dasharray="1.5 7"></path></g><g stroke-linecap="round" transform="translate(93.66611834652099 121.79999999999995) rotate(0 10.25 17.75)"><path d="M3.54 -1.18 L15.62 1.02 L20.01 1.96 L20.07 31.09 L18.57 34.88 L1.41 34.79 L-1.15 34.32 L2 2 L5.08 1.01" stroke="none" stroke-width="0" fill="#fff"></path><path d="M5.13 0 M5.13 0 C7.12 -0.12, 9.85 0.35, 15.38 0 M15.38 0 C20.51 -1.44, 19.45 3.65, 20.5 5.13 M20.5 5.13 C18.93 11.29, 19.64 17.98, 20.5 30.38 M20.5 30.38 C20.87 35.3, 18.86 36.36, 15.38 35.5 M15.38 35.5 C12.15 36.41, 8.12 35.34, 5.13 35.5 M5.13 35.5 C1.08 33.98, -0.85 34.5, 0 30.38 M0 30.38 C-2.01 23.92, -1.73 16.4, 0 5.13 M0 5.13 C-0.17 1.02, 2.18 -1.9, 5.13 0" stroke="#1864ab" stroke-width="1.5" fill="none" stroke-dasharray="1.5 7"></path></g><g stroke-linecap="round" transform="translate(184.166118346521 121.79999999999995) rotate(0 9.25 17.5)"><path d="M3.45 -1.99 L16.6 0.12 L17.29 2.18 L19.21 31.32 L15.6 33.23 L2.21 33.24 L2 34.08 L-0.89 4.58 L2.17 0.62 L3.46 1.19" stroke="none" stroke-width="0" fill="#fff"></path><path d="M4.63 0 M4.63 0 C7.05 0.87, 8.07 -0.41, 13.88 0 M13.88 0 C18.9 -0.53, 19.19 -0.35, 18.5 4.63 M18.5 4.63 C17.44 10.59, 19.91 15.88, 18.5 30.38 M18.5 30.38 C19.36 34.41, 18.54 36.69, 13.88 35 M13.88 35 C10.57 34.7, 7.02 34.59, 4.63 35 M4.63 35 C2.25 34.89, 0.28 33.33, 0 30.38 M0 30.38 C0.77 25.02, -0.81 20.49, 0 4.63 M0 4.63 C-1.9 1.62, 1.03 1.28, 4.63 0" stroke="#1864ab" stroke-width="1.5" fill="none" stroke-dasharray="1.5 7"></path></g><g stroke-linecap="round"><g transform="translate(194.86336039275238 108.60000000000014) rotate(0 -70.5 -26.25)"><path d="M0 0 C-8.25 -7.17, -26 -34.25, -49.5 -43 C-73 -51.75, -125.75 -50.92, -141 -52.5" stroke="#5c940d" stroke-width="1.5" fill="none" stroke-dasharray="8 9"></path></g><g transform="translate(194.86336039275238 108.60000000000014) rotate(0 -70.5 -26.25)"><path d="M-112.33 -61.35 C-118.17 -59.55, -124 -57.75, -141 -52.5" stroke="#5c940d" stroke-width="1.5" fill="none"></path></g><g transform="translate(194.86336039275238 108.60000000000014) rotate(0 -70.5 -26.25)"><path d="M-113.35 -40.85 C-118.98 -43.22, -124.6 -45.59, -141 -52.5" stroke="#5c940d" stroke-width="1.5" fill="none"></path></g></g><mask></mask><g transform="translate(247.53518198699066 10) rotate(0 90.32817840576172 9.599999999999994)"><text x="0" y="0" font-family="Virgil, Segoe UI Emoji" font-size="16px" fill="#5c940d" text-anchor="start" style="white-space: pre;" direction="ltr" dominant-baseline="text-before-edge">previous free block pos</text></g><g stroke-linecap="round"><g transform="translate(605.3633603927524 97.61567338903774) rotate(0 -263 -27.294818930567445)"><path d="M0 0 C-15 -8.14, -13.33 -40.65, -90 -48.82 C-166.67 -56.98, -387.33 -55.97, -460 -49 C-532.67 -42.04, -515 -14.01, -526 -7.02" stroke="#5c940d" stroke-width="1.5" fill="none" stroke-dasharray="8 9"></path></g><g transform="translate(605.3633603927524 97.61567338903774) rotate(0 -263 -27.294818930567445)"><path d="M-522.67 -36.83 C-523.9 -25.84, -525.12 -14.86, -526 -7.02" stroke="#5c940d" stroke-width="1.5" fill="none"></path></g><g transform="translate(605.3633603927524 97.61567338903774) rotate(0 -263 -27.294818930567445)"><path d="M-504.29 -27.72 C-512.29 -20.09, -520.29 -12.46, -526 -7.02" stroke="#5c940d" stroke-width="1.5" fill="none"></path></g></g><mask></mask><g stroke-linecap="round"><g transform="translate(24.872088218357135 201.01279151246138) rotate(0 22.42731628357376 -16.108975102346562)"><path d="M0 0 C4.45 -0.8, 19.24 0.57, 26.72 -4.8 C34.2 -10.17, 41.83 -27.65, 44.85 -32.22" stroke="#1864ab" stroke-width="1.5" fill="none" stroke-dasharray="8 9"></path></g><g transform="translate(24.872088218357135 201.01279151246138) rotate(0 22.42731628357376 -16.108975102346562)"><path d="M42.28 -15.98 C43.14 -21.36, 43.99 -26.74, 44.85 -32.22" stroke="#1864ab" stroke-width="1.5" fill="none"></path></g><g transform="translate(24.872088218357135 201.01279151246138) rotate(0 22.42731628357376 -16.108975102346562)"><path d="M32.45 -21.43 C36.56 -25.01, 40.67 -28.58, 44.85 -32.22" stroke="#1864ab" stroke-width="1.5" fill="none"></path></g></g><mask></mask><g stroke-linecap="round"><g transform="translate(110.87208821835725 168.51279151246138) rotate(0 185.92731628357376 21.104660241331146)"><path d="M0 0 C9.62 6.45, 6.14 32.57, 57.72 38.7 C109.3 44.83, 257.14 42.11, 309.49 36.79 C361.85 31.47, 361.46 11.78, 371.85 6.78" stroke="#1864ab" stroke-width="1.5" fill="none" stroke-dasharray="8 9"></path></g><g transform="translate(110.87208821835725 168.51279151246138) rotate(0 185.92731628357376 21.104660241331146)"><path d="M358.36 33.58 C362.68 25.01, 366.99 16.44, 371.85 6.78" stroke="#1864ab" stroke-width="1.5" fill="none"></path></g><g transform="translate(110.87208821835725 168.51279151246138) rotate(0 185.92731628357376 21.104660241331146)"><path d="M344.3 18.63 C353.11 14.84, 361.92 11.05, 371.85 6.78" stroke="#1864ab" stroke-width="1.5" fill="none"></path></g></g><mask></mask><g transform="translate(138 216.38720848753871) rotate(0 76.44015502929688 9.599999999999994)"><text x="0" y="0" font-family="Virgil, Segoe UI Emoji" font-size="16px" fill="#1864ab" text-anchor="start" style="white-space: pre;" direction="ltr" dominant-baseline="text-before-edge">next free block pos</text></g><g stroke-linecap="round"><g transform="translate(18.936044109178624 502.4089751023465) rotate(0 22.92731628357376 -21.358975102346562)"><path d="M0 -5.5 C4.45 -6.18, 19.08 -4.3, 26.72 -9.59 C34.36 -14.88, 42.67 -32.61, 45.85 -37.22" stroke="#1864ab" stroke-width="1.5" fill="none" stroke-dasharray="8 9"></path></g><g transform="translate(18.936044109178624 502.4089751023465) rotate(0 22.92731628357376 -21.358975102346562)"><path d="M42.84 -20.69 C43.58 -24.73, 44.32 -28.78, 45.85 -37.22" stroke="#1864ab" stroke-width="1.5" fill="none"></path></g><g transform="translate(18.936044109178624 502.4089751023465) rotate(0 22.92731628357376 -21.358975102346562)"><path d="M32.92 -26.49 C36.09 -29.12, 39.25 -31.74, 45.85 -37.22" stroke="#1864ab" stroke-width="1.5" fill="none"></path></g></g><mask></mask><g stroke-linecap="round" transform="translate(471.6133603927524 112.55000000000007) rotate(0 89.25 24.75)"><path d="M12.26 1.83 L171.71 2.09 L176.09 1.16 L178.1 10.93 L179.57 43.75 L175.65 47.39 L167.06 51.25 L8.81 48.27 L4.19 44.5 L1.26 39.81 L1.23 8 L3.66 4.71 L5.94 1.02 L13.66 -1.78" stroke="none" stroke-width="0" fill="#fff"></path><path d="M12.38 0 M12.38 0 C66.02 -1.59, 121.46 -0.49, 166.13 0 M12.38 0 C73.07 1.73, 134.17 0.63, 166.13 0 M166.13 0 C174.42 0.24, 176.77 4.73, 178.5 12.38 M166.13 0 C174.17 -0.18, 177.55 2.34, 178.5 12.38 M178.5 12.38 C178.12 23.11, 177.8 30.89, 178.5 37.13 M178.5 12.38 C178.39 18.1, 177.59 25.15, 178.5 37.13 M178.5 37.13 C178.36 45.1, 173.86 48.87, 166.13 49.5 M178.5 37.13 C179.23 46.68, 174.24 48.57, 166.13 49.5 M166.13 49.5 C107.38 47.48, 46.35 48.38, 12.38 49.5 M166.13 49.5 C129.99 49.34, 91.84 49.24, 12.38 49.5 M12.38 49.5 C3.54 49.79, -1.37 45.26, 0 37.13 M12.38 49.5 C2.05 48.13, 1.24 47.24, 0 37.13 M0 37.13 C-0.45 30.16, -1.41 19.57, 0 12.38 M0 37.13 C0.01 30.44, 0.12 21.91, 0 12.38 M0 12.38 C0.26 3.59, 3.34 1.24, 12.38 0 M0 12.38 C-0.7 3.1, 4.68 -1.52, 12.38 0" stroke="#1864ab" stroke-width="1" fill="none"></path></g><g stroke-linecap="round" transform="translate(533.1133603927524 121.30000000000007) rotate(0 28 16.5)"><path d="M8.25 0 L47.75 0 L51.36 0.52 L53.94 2.06 L55.48 4.64 L56 8.25 L56 24.75 L55.48 28.36 L53.94 30.94 L51.36 32.48 L47.75 33 L8.25 33 L4.64 32.48 L2.06 30.94 L0.52 28.36 L0 24.75 L0.52 4.64 L2.06 2.06 L4.64 0.52 L8.25 0" stroke="none" stroke-width="0" fill="#ffffff"></path><path d="M8.25 0 M8.25 0 C16.9 0, 25.55 0, 47.75 0 M47.75 0 C53.25 0, 56 2.75, 56 8.25 M56 8.25 C56 12.47, 56 16.68, 56 24.75 M56 24.75 C56 30.25, 53.25 33, 47.75 33 M47.75 33 C35.51 33, 23.27 33, 8.25 33 M8.25 33 C2.75 33, 0 30.25, 0 24.75 M0 24.75 C0 20.14, 0 15.52, 0 8.25 M0 8.25 C0 2.75, 2.75 0, 8.25 0" stroke="#1864ab" stroke-width="1.5" fill="none" stroke-dasharray="1.5 7"></path></g><g transform="translate(545.0333280441196 128.20000000000005) rotate(0 16.080032348632812 9.599999999999994)"><text x="16.080032348632812" y="0" font-family="Virgil, Segoe UI Emoji" font-size="16px" fill="#1864ab" text-anchor="middle" style="white-space: pre;" direction="ltr" dominant-baseline="text-before-edge">free</text></g><g stroke-linecap="round" transform="translate(480.1133603927524 121.30000000000007) rotate(0 10.25 17.75)"><path d="M6.44 0.68 L15.69 0.11 L21.64 4.73 L21.71 32.36 L17.25 36.12 L4.64 37.03 L-0.14 33.71 L-1.59 3.95 L4.91 1.04" stroke="none" stroke-width="0" fill="#fff"></path><path d="M5.13 0 M5.13 0 C8.01 -0.36, 10.42 -0.9, 15.38 0 M15.38 0 C20.01 -1.54, 21.11 -0.14, 20.5 5.13 M20.5 5.13 C22.15 10.51, 18.39 17.5, 20.5 30.38 M20.5 30.38 C21.07 34.7, 17.17 35.54, 15.38 35.5 M15.38 35.5 C12.08 35.45, 8.55 34.73, 5.13 35.5 M5.13 35.5 C3.53 36.72, -0.89 33.26, 0 30.38 M0 30.38 C-0.77 20.64, -0.61 12.53, 0 5.13 M0 5.13 C-1.22 0.09, 1.91 -0.14, 5.13 0" stroke="#1864ab" stroke-width="1.5" fill="none" stroke-dasharray="1.5 7"></path></g><g stroke-linecap="round" transform="translate(624.8633603927524 121.30000000000007) rotate(0 9.25 17.5)"><path d="M5.3 -1.93 L15.69 1.75 L20.06 3.82 L20.49 30.01 L16.84 36.47 L4.45 34.25 L1.38 30.49 L1.07 4.41 L2.2 -0.32 L6.55 -0.12" stroke="none" stroke-width="0" fill="#fff"></path><path d="M4.63 0 M4.63 0 C7.09 0.5, 10.49 0.23, 13.88 0 M13.88 0 C15.11 -1.11, 16.6 1.53, 18.5 4.63 M18.5 4.63 C18.44 15.36, 19.31 23.33, 18.5 30.38 M18.5 30.38 C18.54 33.7, 15.22 35.6, 13.88 35 M13.88 35 C10.46 35.8, 9.05 34.55, 4.63 35 M4.63 35 C1.01 36.06, -0.85 32.62, 0 30.38 M0 30.38 C0.09 22.57, -1.51 17.39, 0 4.63 M0 4.63 C-0.14 1.27, 1.02 -0.63, 4.63 0" stroke="#1864ab" stroke-width="1.5" fill="none" stroke-dasharray="1.5 7"></path></g><g stroke-linecap="round" transform="translate(506.666118346521 121.30000000000007) rotate(0 10.25 17.75)"><path d="M3.2 -0.21 L19.07 2.17 L21.39 4.87 L20.13 31.31 L19.37 37.03 L2.43 36.27 L-1.59 33.69 L0.11 3.92 L3.65 1.92" stroke="none" stroke-width="0" fill="#fff"></path><path d="M5.13 0 M5.13 0 C8.79 -0.87, 11.77 -0.75, 15.38 0 M15.38 0 C19.41 -1.85, 19.39 -0.19, 20.5 5.13 M20.5 5.13 C18.86 12.72, 21.31 21.14, 20.5 30.38 M20.5 30.38 C18.88 33.83, 19.03 33.77, 15.38 35.5 M15.38 35.5 C11.57 34.7, 9.54 36.12, 5.13 35.5 M5.13 35.5 C0.82 34.96, 1.06 32.94, 0 30.38 M0 30.38 C-0.61 23.85, -1.11 15.73, 0 5.13 M0 5.13 C0.2 1.57, 1.44 -0.52, 5.13 0" stroke="#1864ab" stroke-width="1.5" fill="none" stroke-dasharray="1.5 7"></path></g><g stroke-linecap="round" transform="translate(597.166118346521 121.30000000000007) rotate(0 9.25 17.5)"><path d="M4.41 1.46 L17.75 1.5 L20.2 2.24 L19.44 32.13 L17.75 34.25 L3.69 32.8 L1.36 32.19 L1.04 3.15 L3.08 1.03 L5.73 -0.72" stroke="none" stroke-width="0" fill="#fff"></path><path d="M4.63 0 M4.63 0 C7.28 0.23, 10.51 -0.57, 13.88 0 M13.88 0 C15.06 -0.02, 20.39 0.76, 18.5 4.63 M18.5 4.63 C19.42 8.32, 18.55 15.49, 18.5 30.38 M18.5 30.38 C16.77 34.06, 16.78 34.84, 13.88 35 M13.88 35 C12.05 34.67, 8.84 35.58, 4.63 35 M4.63 35 C0.69 34.16, -0.88 32.64, 0 30.38 M0 30.38 C-1.62 23.77, -0.14 16.5, 0 4.63 M0 4.63 C-0.52 0.91, 2.18 1.13, 4.63 0" stroke="#1864ab" stroke-width="1.5" fill="none" stroke-dasharray="1.5 7"></path></g><g stroke-linecap="round"><g transform="translate(656.6992711898715 55.61567338903774) rotate(0 -84.5 16.87553930544871)"><path d="M0 0 C-20.33 0.31, -93.83 -3.98, -122 1.85 C-150.17 7.68, -161.17 29.46, -169 34.98" stroke="#5c940d" stroke-width="1.5" fill="none" stroke-dasharray="8 9"></path></g><g transform="translate(656.6992711898715 55.61567338903774) rotate(0 -84.5 16.87553930544871)"><path d="M-157.17 8.78 C-161.01 17.28, -164.85 25.79, -169 34.98" stroke="#5c940d" stroke-width="1.5" fill="none"></path></g><g transform="translate(656.6992711898715 55.61567338903774) rotate(0 -84.5 16.87553930544871)"><path d="M-143.09 22.51 C-151.5 26.56, -159.91 30.61, -169 34.98" stroke="#5c940d" stroke-width="1.5" fill="none"></path></g></g><mask></mask><g stroke-linecap="round"><g transform="translate(522.9360441091786 171.14883858342876) rotate(0 74.17731628357382 15.018903241897164)"><path d="M0 0 C7.12 4.7, 17.99 23.66, 42.72 28.2 C67.45 32.75, 130.75 27.44, 148.35 27.28" stroke="#1864ab" stroke-width="1.5" fill="none" stroke-dasharray="8 9"></path></g><g transform="translate(522.9360441091786 171.14883858342876) rotate(0 74.17731628357382 15.018903241897164)"><path d="M120.64 38.76 C129.85 34.94, 139.07 31.13, 148.35 27.28" stroke="#1864ab" stroke-width="1.5" fill="none"></path></g><g transform="translate(522.9360441091786 171.14883858342876) rotate(0 74.17731628357382 15.018903241897164)"><path d="M119.74 18.25 C129.26 21.26, 138.77 24.26, 148.35 27.28" stroke="#1864ab" stroke-width="1.5" fill="none"></path></g></g><mask></mask></svg>