<svg version="1.1" xmlns="http://www.w3.org/2000/svg" viewBox="0 0 656.2578444852152 575.3150579752365" width="1312.5156889704303" height="1150.630115950473">
  <!-- svg-source:excalidraw -->
  
  <defs>
    <style class="style-fonts">
      @font-face {
        font-family: "Virgil";
        src: url("https://excalidraw.com/Virgil.woff2");
      }
      @font-face {
        font-family: "Cascadia";
        src: url("https://excalidraw.com/Cascadia.woff2");
      }
    </style>
  </defs>
  <rect x="0" y="0" width="656.2578444852152" height="575.3150579752365" fill="#ffffff"></rect><g stroke-linecap="round" transform="translate(13.89448409246279 80.60000000000002) rotate(0 311.50000000000006 37)"><path d="M22.09 -3.36 L607.03 -1.34 L619.66 -0.56 L623.06 10.38 L619.41 62.27 L620.81 68.77 L615.41 75.33 L604.97 71.34 L15.64 73.32 L10.49 72.1 L-0.67 63.19 L3.85 15.11 L1.51 2.44 L20.96 -0.62" stroke="none" stroke-width="0" fill="#40c05733"></path><path d="M18.5 0 M18.5 0 C252.71 -1.89, 487.47 -1.95, 604.5 0 M18.5 0 C193.04 -1.97, 368.56 -3.28, 604.5 0 M604.5 0 C620.66 1.25, 621.18 6.73, 623 18.5 M604.5 0 C619.02 0.9, 624.97 8.55, 623 18.5 M623 18.5 C624.89 26.29, 626.48 35.54, 623 55.5 M623 18.5 C621.75 31.83, 623.84 44, 623 55.5 M623 55.5 C626.69 71.78, 612.99 75.8, 604.5 74 M623 55.5 C618.77 63.34, 613.52 69.84, 604.5 74 M604.5 74 C465.97 79.8, 329.69 78.2, 18.5 74 M604.5 74 C426.91 77.5, 249.73 76.46, 18.5 74 M18.5 74 C2.22 70.89, 2.32 64.12, 0 55.5 M18.5 74 C3.72 75.86, -1.78 69.21, 0 55.5 M0 55.5 C-0.74 47.67, -2.18 31.93, 0 18.5 M0 55.5 C1.48 39.9, -1.18 24.86, 0 18.5 M0 18.5 C-1.55 5.84, 6.31 -3.23, 18.5 0 M0 18.5 C-1.38 8.93, 3.41 -3.49, 18.5 0" stroke="#fff" stroke-width="1" fill="none"></path></g><g transform="translate(263.8944840924628 541.2) rotate(359.8962637780171 63.55992889404297 12)"><text x="0" y="0" font-family="Virgil, Segoe UI Emoji" font-size="20px" fill="#e6770033" text-anchor="start" style="white-space: pre;" direction="ltr" dominant-baseline="text-before-edge">@hemashushu</text></g><g stroke-linecap="round"><g transform="translate(185.26657231081992 193.72558302492274) rotate(0 221.17731628357376 2.3624205826481273)"><path d="M0 0 C8.79 0.78, -21.01 4.41, 52.72 4.7 C126.45 5, 377.42 2.27, 442.35 1.78" stroke="#1864ab" stroke-width="1.5" fill="none" stroke-dasharray="8 9"></path></g><g transform="translate(185.26657231081992 193.72558302492274) rotate(0 221.17731628357376 2.3624205826481273)"><path d="M414.26 12.3 C422.29 9.29, 430.31 6.29, 442.35 1.78" stroke="#1864ab" stroke-width="1.5" fill="none"></path></g><g transform="translate(185.26657231081992 193.72558302492274) rotate(0 221.17731628357376 2.3624205826481273)"><path d="M414.07 -8.22 C422.15 -5.36, 430.23 -2.51, 442.35 1.78" stroke="#1864ab" stroke-width="1.5" fill="none"></path></g></g><mask></mask><g transform="translate(20.89448409246279 181.60000000000002) rotate(0 76.44015502929688 9.599999999999994)"><text x="0" y="0" font-family="Virgil, Segoe UI Emoji" font-size="16px" fill="#1864ab" text-anchor="start" style="white-space: pre;" direction="ltr" dominant-baseline="text-before-edge">next free block pos</text></g><g stroke-linecap="round"><g transform="translate(11.39448409246279 79.10000000000002) rotate(0 310.4201314308774 0.44972385398295955)"><path d="M0.04 -0.68 C103.84 -0.39, 518.42 1.14, 622.23 1.07 M-1.39 1.58 C102.31 1.61, 517.4 -0.17, 621.41 -0.49" stroke="#2b8a3e" stroke-width="1" fill="none"></path></g></g><mask></mask><g stroke-linecap="round"><g transform="translate(15.974352661585442 155.80605289591477) rotate(0 307.36207613009486 0.10718372952192112)"><path d="M-1.09 -0.63 C101.02 -0.71, 510.97 0.28, 613.73 0.45 M0.54 1.66 C102.9 1.13, 513.42 -0.87, 615.82 -1.44" stroke="#2b8a3e" stroke-width="1" fill="none"></path></g></g><mask></mask><g stroke-linecap="round" transform="translate(31.39448409246279 94.60000000000002) rotate(0 87.75 24.75)"><path d="M11.07 1.86 L169.72 -0.75 L171.48 3.26 L177.26 11.18 L172.87 44.02 L170.18 49.44 L163.4 47.98 L8.75 46.99 L2.5 46.17 L-0.55 38.29 L1.27 9.29 L0.76 6.2 L5.27 2.77 L11.13 -1.81" stroke="none" stroke-width="0" fill="#fff"></path><path d="M12.38 0 M12.38 0 C59.48 0.18, 106.26 1.32, 163.12 0 M12.38 0 C71.67 -0.97, 132 -1.06, 163.12 0 M163.12 0 C169.38 0.33, 175.48 2.24, 175.5 12.38 M163.12 0 C173.34 -1.77, 176.23 3.55, 175.5 12.38 M175.5 12.38 C175.61 20.91, 176.11 30.82, 175.5 37.13 M175.5 12.38 C175.01 22.35, 175.06 32.37, 175.5 37.13 M175.5 37.13 C176.47 43.91, 171.83 48.53, 163.12 49.5 M175.5 37.13 C175.37 43.31, 170.28 49.09, 163.12 49.5 M163.12 49.5 C129.35 48.21, 96.51 50.86, 12.38 49.5 M163.12 49.5 C130.92 50.71, 100.9 51.25, 12.38 49.5 M12.38 49.5 C3.83 48.3, -1.45 44.01, 0 37.13 M12.38 49.5 C5.16 50.07, 1.4 43.17, 0 37.13 M0 37.13 C2.02 27.87, -1.22 18.48, 0 12.38 M0 37.13 C0.48 31.83, 0.7 26.24, 0 12.38 M0 12.38 C-0.7 3.11, 3.7 -1.91, 12.38 0 M0 12.38 C-0.31 3.41, 3.17 1.55, 12.38 0" stroke="#e67700" stroke-width="1" fill="none"></path></g><g stroke-linecap="round" transform="translate(73.39448409246279 102.10000000000002) rotate(0 46.5 18)"><path d="M9 0 L84 0 L87.94 0.56 L90.75 2.25 L92.44 5.06 L93 9 L92.44 30.94 L90.75 33.75 L87.94 35.44 L84 36 L9 36 L5.06 35.44 L2.25 33.75 L0.56 30.94 L0 9 L0.56 5.06 L2.25 2.25 L5.06 0.56 L9 0" stroke="none" stroke-width="0" fill="#ffffff"></path><path d="M9 0 M9 0 C25.57 0, 42.14 0, 84 0 M84 0 C90 0, 93 3, 93 9 M93 9 C93 15.06, 93 21.13, 93 27 M93 27 C93 33, 90 36, 84 36 M84 36 C62.66 36, 41.32 36, 9 36 M9 36 C3 36, 0 33, 0 27 M0 27 C0 22.13, 0 17.25, 0 9 M0 9 C0 3, 3 0, 9 0" stroke="#e67700" stroke-width="1.5" fill="none" stroke-dasharray="1.5 7"></path></g><g transform="translate(83.11840682195498 110.5) rotate(0 36.77607727050781 9.599999999999994)"><text x="36.77607727050781" y="0" font-family="Virgil, Segoe UI Emoji" font-size="16px" fill="#e67700" text-anchor="middle" style="white-space: pre;" direction="ltr" dominant-baseline="text-before-edge">allocated</text></g><g stroke-linecap="round" transform="translate(42.39448409246279 102.10000000000002) rotate(0 11.75 17.75)"><path d="M6.49 1.46 L20.92 1.23 L22.55 2.01 L24.57 30.87 L23.39 31.04 L18.81 33.31 L2.92 35.55 L1.76 33.61 L-0.07 5.19 L3.33 -0.01 L7.66 -0.36" stroke="none" stroke-width="0" fill="#fff"></path><path d="M5.88 0 M5.88 0 C11.55 0.1, 13.89 0.88, 17.63 0 M17.63 0 C20.5 -1.8, 23.86 0.58, 23.5 5.88 M23.5 5.88 C24.02 13.39, 23.95 20.06, 23.5 29.63 M23.5 29.63 C24.35 32.34, 20.06 34.32, 17.63 35.5 M17.63 35.5 C13.89 35.29, 8.71 34.67, 5.88 35.5 M5.88 35.5 C1.3 34.91, 0.72 33.54, 0 29.63 M0 29.63 C-1.92 24.47, 1.48 16.01, 0 5.88 M0 5.88 C0.1 3.74, 2.63 0.43, 5.88 0" stroke="#e67700" stroke-width="1.5" fill="none" stroke-dasharray="1.5 7"></path></g><g stroke-linecap="round" transform="translate(173.6444840924628 101.35000000000002) rotate(0 11.75 17.75)"><path d="M7.22 0.53 L19.46 0.22 L23.25 2.52 L21.79 30.7 L25 32.76 L21.7 36.7 L4.49 34.14 L-0.56 31.16 L-1.35 4.2 L3.05 2.18 L6.84 -1.54" stroke="none" stroke-width="0" fill="#fff"></path><path d="M5.88 0 M5.88 0 C9.82 -0.88, 14.25 0.19, 17.63 0 M17.63 0 C20.68 0.78, 21.5 2.26, 23.5 5.88 M23.5 5.88 C24.51 12.07, 24.83 16.07, 23.5 29.63 M23.5 29.63 C21.87 33, 23.22 37.17, 17.63 35.5 M17.63 35.5 C15.53 36.2, 11.96 34.62, 5.88 35.5 M5.88 35.5 C2.45 35.95, 1.78 32.4, 0 29.63 M0 29.63 C0.47 23.24, -1.03 20.76, 0 5.88 M0 5.88 C0.38 0.16, 1.13 -1.57, 5.88 0" stroke="#e67700" stroke-width="1.5" fill="none" stroke-dasharray="1.5 7"></path></g><g stroke-linecap="round" transform="translate(224.1444840924628 94.35000000000002) rotate(0 102.75 24.75)"><path d="M10.43 -1.09 L196.34 -0.89 L200.66 2.28 L203.62 7.36 L206.56 40.88 L202.33 45.2 L193.69 49.97 L9.31 47.58 L6.4 49.34 L-0.26 44.11 L-1.2 14.36 L2.66 3.12 L12.07 1.08" stroke="none" stroke-width="0" fill="#fff"></path><path d="M12.38 0 M12.38 0 C66.32 0.88, 115.37 0.08, 193.13 0 M12.38 0 C73.37 0.28, 135.92 1.72, 193.13 0 M193.13 0 C202.07 -0.17, 205.91 2.45, 205.5 12.38 M193.13 0 C200.66 -1.21, 205.09 3.21, 205.5 12.38 M205.5 12.38 C204.59 22.3, 206.52 30.04, 205.5 37.13 M205.5 12.38 C204.71 18.05, 205.69 23.66, 205.5 37.13 M205.5 37.13 C203.95 43.85, 202.38 50.17, 193.13 49.5 M205.5 37.13 C203.65 45.53, 200.21 48.09, 193.13 49.5 M193.13 49.5 C144.84 48.63, 96.77 49.47, 12.38 49.5 M193.13 49.5 C138.83 49.57, 82.79 48.14, 12.38 49.5 M12.38 49.5 C3.07 48.36, -0.73 43.73, 0 37.13 M12.38 49.5 C2.84 47.54, 1.32 44.59, 0 37.13 M0 37.13 C1.14 28.83, 1.69 16.77, 0 12.38 M0 37.13 C0.94 30.86, 1.22 25.28, 0 12.38 M0 12.38 C-1.03 3.05, 5.34 -0.93, 12.38 0 M0 12.38 C1.85 2.21, 5.52 0.44, 12.38 0" stroke="#e67700" stroke-width="1" fill="none"></path></g><g stroke-linecap="round" transform="translate(263.6444840924628 101.85000000000002) rotate(0 63 17.5)"><path d="M8.75 0 L117.25 0 L121.08 0.55 L123.81 2.19 L125.45 4.92 L126 8.75 L125.45 30.08 L123.81 32.81 L121.08 34.45 L117.25 35 L8.75 35 L4.92 34.45 L2.19 32.81 L0.55 30.08 L0 8.75 L0.55 4.92 L2.19 2.19 L4.92 0.55 L8.75 0" stroke="none" stroke-width="0" fill="#ffffff"></path><path d="M8.75 0 M8.75 0 C47.43 0, 86.11 0, 117.25 0 M117.25 0 C123.08 0, 126 2.92, 126 8.75 M126 8.75 C126 15.24, 126 21.73, 126 26.25 M126 26.25 C126 32.08, 123.08 35, 117.25 35 M117.25 35 C86.18 35, 55.12 35, 8.75 35 M8.75 35 C2.92 35, 0 32.08, 0 26.25 M0 26.25 C0 20.4, 0 14.54, 0 8.75 M0 8.75 C0 2.92, 2.92 0, 8.75 0" stroke="#e67700" stroke-width="1.5" fill="none" stroke-dasharray="1.5 7"></path></g><g transform="translate(289.868406821955 109.75) rotate(0 36.77607727050781 9.599999999999994)"><text x="36.77607727050781" y="0" font-family="Virgil, Segoe UI Emoji" font-size="16px" fill="#e67700" text-anchor="middle" style="white-space: pre;" direction="ltr" dominant-baseline="text-before-edge">allocated</text></g><g stroke-linecap="round" transform="translate(232.6444840924628 101.85000000000002) rotate(0 11.75 17.75)"><path d="M4.79 -0.01 L20.73 -0.74 L23.53 4.56 L24.35 29.55 L21.93 32.76 L20.66 34.97 L1.58 36.7 L1.95 31.16 L1.93 2.1 L5.29 -0.07 L5.9 -0.3" stroke="none" stroke-width="0" fill="#fff"></path><path d="M5.88 0 M5.88 0 C9.23 1.1, 13.98 -0.7, 17.63 0 M17.63 0 C20.38 0.83, 22.64 0.68, 23.5 5.88 M23.5 5.88 C24.42 11.91, 23.12 16.99, 23.5 29.63 M23.5 29.63 C21.82 32.92, 20.49 35.14, 17.63 35.5 M17.63 35.5 C15.4 34.99, 11.92 36.12, 5.88 35.5 M5.88 35.5 C1.18 34.11, -0.18 32.55, 0 29.63 M0 29.63 C-0.26 22.77, -1.52 20.02, 0 5.88 M0 5.88 C0.67 0.35, 2.1 -1.02, 5.88 0" stroke="#e67700" stroke-width="1.5" fill="none" stroke-dasharray="1.5 7"></path></g><g stroke-linecap="round" transform="translate(398.3944840924628 101.10000000000002) rotate(0 11.75 17.75)"><path d="M5.87 0.54 L19.09 0.76 L24.39 4.16 L23.43 28.42 L23.7 32.66 L20.03 33.4 L4.87 36.72 L-0.66 33.76 L-0.83 5.29 L2.87 0.39 L5.57 1.08" stroke="none" stroke-width="0" fill="#fff"></path><path d="M5.88 0 M5.88 0 C10.34 -0.13, 11.93 -0.6, 17.63 0 M17.63 0 C22.37 -0.86, 22.22 0.46, 23.5 5.88 M23.5 5.88 C24.21 10.74, 23.93 14.27, 23.5 29.63 M23.5 29.63 C22.88 32.49, 21.19 34.71, 17.63 35.5 M17.63 35.5 C12.82 36, 9.57 35.13, 5.88 35.5 M5.88 35.5 C0.57 35.32, -0.99 32.01, 0 29.63 M0 29.63 C-1.6 21.06, 0.95 16.23, 0 5.88 M0 5.88 C-1.61 2.1, 0.94 -1.23, 5.88 0" stroke="#e67700" stroke-width="1.5" fill="none" stroke-dasharray="1.5 7"></path></g><g stroke-linecap="round" transform="translate(447.1444840924628 91.85000000000002) rotate(0 87.75 24.75)"><path d="M12.22 0.55 L167.41 2.11 L171.84 4.55 L175.3 9.69 L176.19 42.35 L172.62 47.37 L164.75 49.73 L8.45 50.55 L3.3 46.61 L1.12 41.09 L0.27 9.63 L-0.07 6.3 L5.54 3.15 L13.17 -0.96" stroke="none" stroke-width="0" fill="#fff"></path><path d="M12.38 0 M12.38 0 C58.46 1.19, 106.74 0.15, 163.12 0 M12.38 0 C68.57 -1.52, 123.54 -0.55, 163.12 0 M163.12 0 C170 -1.69, 173.59 5.01, 175.5 12.38 M163.12 0 C171.84 -1.32, 177.01 4.64, 175.5 12.38 M175.5 12.38 C175.29 15.72, 176.73 23.39, 175.5 37.13 M175.5 12.38 C175.85 19.66, 175.22 27.96, 175.5 37.13 M175.5 37.13 C175.37 45.6, 172.35 51.4, 163.12 49.5 M175.5 37.13 C177.18 45.61, 171.4 50.93, 163.12 49.5 M163.12 49.5 C118.66 48.53, 75.51 48.49, 12.38 49.5 M163.12 49.5 C123.11 49.61, 84.17 50.02, 12.38 49.5 M12.38 49.5 C2.86 51.32, 0.19 46.88, 0 37.13 M12.38 49.5 C5.45 50.76, 1.73 44.52, 0 37.13 M0 37.13 C0.86 32.52, -0.45 26.98, 0 12.38 M0 37.13 C0.82 27.84, -0.78 19.46, 0 12.38 M0 12.38 C-1.81 2.91, 3.13 -0.34, 12.38 0 M0 12.38 C-1.82 5.63, 6.25 -0.4, 12.38 0" stroke="#e67700" stroke-width="1" fill="none"></path></g><g stroke-linecap="round" transform="translate(489.1444840924628 99.35000000000002) rotate(0 46.5 18)"><path d="M9 0 L84 0 L87.94 0.56 L90.75 2.25 L92.44 5.06 L93 9 L92.44 30.94 L90.75 33.75 L87.94 35.44 L84 36 L9 36 L5.06 35.44 L2.25 33.75 L0.56 30.94 L0 9 L0.56 5.06 L2.25 2.25 L5.06 0.56 L9 0" stroke="none" stroke-width="0" fill="#ffffff"></path><path d="M9 0 M9 0 C30.22 0, 51.44 0, 84 0 M84 0 C90 0, 93 3, 93 9 M93 9 C93 12.67, 93 16.33, 93 27 M93 27 C93 33, 90 36, 84 36 M84 36 C61.89 36, 39.77 36, 9 36 M9 36 C3 36, 0 33, 0 27 M0 27 C0 21.84, 0 16.68, 0 9 M0 9 C0 3, 3 0, 9 0" stroke="#e67700" stroke-width="1.5" fill="none" stroke-dasharray="1.5 7"></path></g><g transform="translate(498.868406821955 107.75) rotate(0 36.77607727050781 9.599999999999994)"><text x="36.77607727050781" y="0" font-family="Virgil, Segoe UI Emoji" font-size="16px" fill="#e67700" text-anchor="middle" style="white-space: pre;" direction="ltr" dominant-baseline="text-before-edge">allocated</text></g><g stroke-linecap="round" transform="translate(458.1444840924628 99.35000000000002) rotate(0 11.75 17.75)"><path d="M7.21 -0.57 L21.65 0.36 L23.35 4.77 L23.32 31.58 L22.74 33.82 L20.42 36.62 L5.13 35.34 L0.57 33.13 L1.43 3.39 L3.46 -1.44 L7.34 0.71" stroke="none" stroke-width="0" fill="#fff"></path><path d="M5.88 0 M5.88 0 C10.32 0.17, 14.49 -0.11, 17.63 0 M17.63 0 C22.61 1.64, 23.53 3.3, 23.5 5.88 M23.5 5.88 C23.37 14.73, 25.3 20.41, 23.5 29.63 M23.5 29.63 C21.81 31.63, 22.43 35.9, 17.63 35.5 M17.63 35.5 C13.64 34.8, 10.86 35.49, 5.88 35.5 M5.88 35.5 C0.26 36.89, 0.94 33.47, 0 29.63 M0 29.63 C0.13 19.98, 2.06 12.02, 0 5.88 M0 5.88 C0.23 2.93, 3.86 1.46, 5.88 0" stroke="#e67700" stroke-width="1.5" fill="none" stroke-dasharray="1.5 7"></path></g><g stroke-linecap="round" transform="translate(589.3944840924628 98.60000000000002) rotate(0 11.75 17.75)"><path d="M5.3 1.46 L20.19 0.58 L24.59 3.12 L25.45 29.23 L24.76 32.42 L21.69 36.95 L3.52 35.34 L1.3 33.26 L0.45 3.46 L1.5 1.83 L6.58 1.41" stroke="none" stroke-width="0" fill="#fff"></path><path d="M5.88 0 M5.88 0 C9.98 -0.1, 13.69 0.62, 17.63 0 M17.63 0 C23.18 0.03, 24.84 2.66, 23.5 5.88 M23.5 5.88 C24.59 16.71, 22.32 22.68, 23.5 29.63 M23.5 29.63 C21.59 34.43, 21.94 34.36, 17.63 35.5 M17.63 35.5 C12.6 34.33, 8.99 34.39, 5.88 35.5 M5.88 35.5 C3.34 36.44, -0.07 34.9, 0 29.63 M0 29.63 C-0.95 26.68, -0.17 20.32, 0 5.88 M0 5.88 C0.97 3.86, 3.42 0.21, 5.88 0" stroke="#e67700" stroke-width="1.5" fill="none" stroke-dasharray="1.5 7"></path></g><g stroke-linecap="round" transform="translate(14.341726138694185 378.2579862732348) rotate(0 311.50000000000006 37)"><path d="M15.79 -3.83 L607.66 1.92 L614.03 4.31 L625.36 13.24 L623.16 61.69 L617.47 70.5 L615.85 74.47 L607.59 75.87 L17.32 72.73 L4.23 71.41 L-1.32 62.13 L-1.95 20.59 L1.44 2.27 L19.78 1.23" stroke="none" stroke-width="0" fill="#40c05733"></path><path d="M18.5 0 M18.5 0 C142.9 3.61, 268.6 3.49, 604.5 0 M18.5 0 C151.55 4.33, 285.44 3.56, 604.5 0 M604.5 0 C619.24 -3.68, 622.63 5.42, 623 18.5 M604.5 0 C616.51 3.59, 623.59 9.65, 623 18.5 M623 18.5 C627.35 25.05, 623.83 40.17, 623 55.5 M623 18.5 C621.63 29.88, 622.71 40.26, 623 55.5 M623 55.5 C621.37 71.65, 619.15 76.53, 604.5 74 M623 55.5 C626.14 72.41, 613.6 77.4, 604.5 74 M604.5 74 C471.88 73.74, 337.01 74.24, 18.5 74 M604.5 74 C402.49 74.73, 200.4 74.39, 18.5 74 M18.5 74 C9.54 73.64, -1.76 70.16, 0 55.5 M18.5 74 C5.31 75.46, 1.27 67.36, 0 55.5 M0 55.5 C-2.12 46.67, 0.33 32.68, 0 18.5 M0 55.5 C-0.27 48.03, 0.46 35.04, 0 18.5 M0 18.5 C-1.08 8.33, 3.59 -3.59, 18.5 0 M0 18.5 C3.41 5.07, 6.99 2.46, 18.5 0" stroke="#fff" stroke-width="1" fill="none"></path></g><g stroke-linecap="round"><g transform="translate(11.841726138694185 376.7579862732348) rotate(0 310.8994364209007 0.6451070735324151)"><path d="M0.49 -0.52 C104.43 -0.29, 518.79 0.95, 622.51 1.06 M-0.71 1.81 C103.22 1.77, 517.96 -0.46, 621.83 -0.51" stroke="#2b8a3e" stroke-width="1" fill="none"></path></g></g><mask></mask><g stroke-linecap="round"><g transform="translate(16.42159470781678 453.4640391691495) rotate(0 307.7260034636175 0.01077532092108413)"><path d="M-0.52 0.51 C102.2 0.57, 513.38 0.84, 615.98 0.85 M1.4 -0.26 C104.09 -0.58, 513.42 -0.62, 615.58 -0.83" stroke="#2b8a3e" stroke-width="1" fill="none"></path></g></g><mask></mask><g stroke-linecap="round" transform="translate(31.841726138694185 392.2579862732348) rotate(0 87.75 24.75)"><path d="M13.19 -0.87 L169.39 2.53 L173.82 3.32 L176.23 8.01 L176.59 42.58 L172.2 49.31 L164.06 51.08 L6.47 47.23 L3.1 45.17 L-0.54 39.05 L1.24 7.88 L0.56 5.47 L5.45 -0.01 L12.16 -1.23" stroke="none" stroke-width="0" fill="#fff"></path><path d="M12.38 0 M12.38 0 C57.33 -2.48, 100.71 -2.7, 163.12 0 M12.38 0 C56.07 -0.75, 99.76 -1.45, 163.12 0 M163.12 0 C171 -0.14, 177.06 4.38, 175.5 12.38 M163.12 0 C173.12 -1.4, 177.03 4.46, 175.5 12.38 M175.5 12.38 C177.34 21.82, 176.19 31.41, 175.5 37.13 M175.5 12.38 C176.09 17.32, 176.58 23.65, 175.5 37.13 M175.5 37.13 C176.77 46.74, 173.36 48.09, 163.12 49.5 M175.5 37.13 C177.2 43.72, 169.48 49.62, 163.12 49.5 M163.12 49.5 C108.37 50.19, 54.93 49.73, 12.38 49.5 M163.12 49.5 C113.45 50.93, 65.27 49.65, 12.38 49.5 M12.38 49.5 C5.29 49.13, 0.63 45.93, 0 37.13 M12.38 49.5 C3.89 49.77, 0.41 43.31, 0 37.13 M0 37.13 C-0.04 30.03, -1.45 22.84, 0 12.38 M0 37.13 C-1.03 30.35, 0.3 23.46, 0 12.38 M0 12.38 C-1.8 5.61, 3.65 0.36, 12.38 0 M0 12.38 C1.23 5.27, 4.09 0.33, 12.38 0" stroke="#e67700" stroke-width="1" fill="none"></path></g><g stroke-linecap="round" transform="translate(73.84172613869418 399.7579862732348) rotate(0 46.5 18)"><path d="M9 0 L84 0 L87.94 0.56 L90.75 2.25 L92.44 5.06 L93 9 L92.44 30.94 L90.75 33.75 L87.94 35.44 L84 36 L9 36 L5.06 35.44 L2.25 33.75 L0.56 30.94 L0 9 L0.56 5.06 L2.25 2.25 L5.06 0.56 L9 0" stroke="none" stroke-width="0" fill="#ffffff"></path><path d="M9 0 M9 0 C36.02 0, 63.03 0, 84 0 M84 0 C90 0, 93 3, 93 9 M93 9 C93 16.14, 93 23.27, 93 27 M93 27 C93 33, 90 36, 84 36 M84 36 C64.55 36, 45.1 36, 9 36 M9 36 C3 36, 0 33, 0 27 M0 27 C0 20.46, 0 13.93, 0 9 M0 9 C0 3, 3 0, 9 0" stroke="#e67700" stroke-width="1.5" fill="none" stroke-dasharray="1.5 7"></path></g><g transform="translate(83.56564886818637 408.15798627323477) rotate(0 36.77607727050781 9.600000000000023)"><text x="36.77607727050781" y="0" font-family="Virgil, Segoe UI Emoji" font-size="16px" fill="#e67700" text-anchor="middle" style="white-space: pre;" direction="ltr" dominant-baseline="text-before-edge">allocated</text></g><g stroke-linecap="round" transform="translate(42.841726138694185 399.7579862732348) rotate(0 11.75 17.75)"><path d="M7.64 1.42 L20.42 1.3 L21.67 5.17 L23.54 31.16 L24.68 33.13 L21.77 34.64 L1.81 35.14 L-0.87 31.46 L-0.61 4.35 L1.71 -0.81 L6.51 0.61" stroke="none" stroke-width="0" fill="#fff"></path><path d="M5.88 0 M5.88 0 C8.29 0.61, 11.66 0.52, 17.63 0 M17.63 0 C20.08 -0.05, 21.82 1.82, 23.5 5.88 M23.5 5.88 C24.92 12.34, 23.53 22.12, 23.5 29.63 M23.5 29.63 C23.36 35.1, 21.8 37.02, 17.63 35.5 M17.63 35.5 C15.95 34.84, 12.1 36.68, 5.88 35.5 M5.88 35.5 C1.59 36.33, -0.59 31.86, 0 29.63 M0 29.63 C-0.74 23.26, 1.23 14.33, 0 5.88 M0 5.88 C1.37 3.95, 0.55 1.48, 5.88 0" stroke="#e67700" stroke-width="1.5" fill="none" stroke-dasharray="1.5 7"></path></g><g stroke-linecap="round" transform="translate(174.09172613869418 399.0079862732348) rotate(0 11.75 17.75)"><path d="M7.29 0.22 L21.12 -1.1 L25 3.34 L25.04 31.17 L24.07 33.77 L19.71 33.64 L3.31 33.89 L-0.36 31.22 L1.41 1.71 L2.13 1.01 L6.49 -1.75" stroke="none" stroke-width="0" fill="#fff"></path><path d="M5.88 0 M5.88 0 C9.81 0.8, 13.12 -0.85, 17.63 0 M17.63 0 C21.49 -1.68, 23.36 2.96, 23.5 5.88 M23.5 5.88 C21.55 14.95, 23.02 24.26, 23.5 29.63 M23.5 29.63 C25.06 33.8, 23.06 34.28, 17.63 35.5 M17.63 35.5 C12.64 35.71, 10.18 35.39, 5.88 35.5 M5.88 35.5 C2.79 34.91, -1.68 34.51, 0 29.63 M0 29.63 C1.8 24.37, 1.15 18.16, 0 5.88 M0 5.88 C1.99 0.55, 3.44 -1.44, 5.88 0" stroke="#e67700" stroke-width="1.5" fill="none" stroke-dasharray="1.5 7"></path></g><g stroke-linecap="round" transform="translate(447.5917261386942 389.5079862732348) rotate(0 87.75 24.75)"><path d="M13.91 1.55 L169.47 2.35 L171.92 1.6 L175.31 8.24 L173.99 41.57 L171.71 46.17 L161.95 50.14 L7.57 46.98 L2.88 45.18 L0.06 40.94 L1.55 10.24 L0.28 4.78 L3.16 1.6 L13.37 1.8" stroke="none" stroke-width="0" fill="#fff"></path><path d="M12.38 0 M12.38 0 C50.54 1.01, 88.93 2.95, 163.12 0 M12.38 0 C60.18 1.06, 107.63 0.34, 163.12 0 M163.12 0 C171.55 1.98, 175.13 4.95, 175.5 12.38 M163.12 0 C170.69 -1.93, 176.62 3.44, 175.5 12.38 M175.5 12.38 C176.56 22.23, 176.77 31.54, 175.5 37.13 M175.5 12.38 C174.86 18.11, 176.31 23.43, 175.5 37.13 M175.5 37.13 C175.22 45.37, 172.28 50.81, 163.12 49.5 M175.5 37.13 C176 45.93, 170.53 50.4, 163.12 49.5 M163.12 49.5 C128.99 50.53, 96.24 50, 12.38 49.5 M163.12 49.5 C113.92 48.78, 63.87 50.35, 12.38 49.5 M12.38 49.5 C4.36 49.63, -0.9 44.1, 0 37.13 M12.38 49.5 C1.95 48.65, 2.26 45.36, 0 37.13 M0 37.13 C-1.22 29.85, 1.55 25.7, 0 12.38 M0 37.13 C-0.15 29.4, -0.51 20.68, 0 12.38 M0 12.38 C-1.33 5.91, 3.66 1.68, 12.38 0 M0 12.38 C-0.58 1.85, 5.68 -1.47, 12.38 0" stroke="#e67700" stroke-width="1" fill="none"></path></g><g stroke-linecap="round" transform="translate(489.5917261386942 397.0079862732348) rotate(0 46.5 18)"><path d="M9 0 L84 0 L87.94 0.56 L90.75 2.25 L92.44 5.06 L93 9 L92.44 30.94 L90.75 33.75 L87.94 35.44 L84 36 L9 36 L5.06 35.44 L2.25 33.75 L0.56 30.94 L0 9 L0.56 5.06 L2.25 2.25 L5.06 0.56 L9 0" stroke="none" stroke-width="0" fill="#ffffff"></path><path d="M9 0 M9 0 C32.58 0, 56.16 0, 84 0 M84 0 C90 0, 93 3, 93 9 M93 9 C93 15.25, 93 21.49, 93 27 M93 27 C93 33, 90 36, 84 36 M84 36 C61.11 36, 38.21 36, 9 36 M9 36 C3 36, 0 33, 0 27 M0 27 C0 23.03, 0 19.06, 0 9 M0 9 C0 3, 3 0, 9 0" stroke="#e67700" stroke-width="1.5" fill="none" stroke-dasharray="1.5 7"></path></g><g transform="translate(499.3156488681864 405.40798627323477) rotate(0 36.77607727050781 9.600000000000023)"><text x="36.77607727050781" y="0" font-family="Virgil, Segoe UI Emoji" font-size="16px" fill="#e67700" text-anchor="middle" style="white-space: pre;" direction="ltr" dominant-baseline="text-before-edge">allocated</text></g><g stroke-linecap="round" transform="translate(458.5917261386942 397.0079862732348) rotate(0 11.75 17.75)"><path d="M7.45 -0.49 L18.7 0.37 L21.89 2.57 L22.53 30.67 L21.54 31.02 L20.83 35.75 L1.55 34.92 L-0.86 32.06 L1.28 4.66 L4.07 -1.09 L5.83 -1.68" stroke="none" stroke-width="0" fill="#fff"></path><path d="M5.88 0 M5.88 0 C8.78 0.6, 11.68 -0.22, 17.63 0 M17.63 0 C21.17 -0.14, 25.06 2.21, 23.5 5.88 M23.5 5.88 C23.64 16.73, 22.21 23.9, 23.5 29.63 M23.5 29.63 C25.48 33.17, 22.37 34.91, 17.63 35.5 M17.63 35.5 C15.64 34.99, 13.67 36.15, 5.88 35.5 M5.88 35.5 C3.22 36.87, 1.99 32.14, 0 29.63 M0 29.63 C0.28 22.01, -0.46 11.59, 0 5.88 M0 5.88 C0 2.86, 3.26 0.44, 5.88 0" stroke="#e67700" stroke-width="1.5" fill="none" stroke-dasharray="1.5 7"></path></g><g stroke-linecap="round" transform="translate(589.8417261386942 396.2579862732348) rotate(0 11.75 17.75)"><path d="M5.39 -1.5 L20.2 -0.87 L22.4 2.33 L24.55 28.03 L21.96 32.83 L20.81 33.38 L3.09 33.9 L0.23 33.11 L1.72 4.07 L1.85 0.32 L4.2 -0.14" stroke="none" stroke-width="0" fill="#fff"></path><path d="M5.88 0 M5.88 0 C10.69 -1.03, 13.99 -0.17, 17.63 0 M17.63 0 C21.4 1.56, 23.75 3.47, 23.5 5.88 M23.5 5.88 C25.59 10.41, 23.83 19.22, 23.5 29.63 M23.5 29.63 C23.13 34.37, 20.95 33.82, 17.63 35.5 M17.63 35.5 C13.05 36.68, 10.12 36.3, 5.88 35.5 M5.88 35.5 C3.33 37.49, -1.41 35.02, 0 29.63 M0 29.63 C1.46 23.58, -0.08 18.79, 0 5.88 M0 5.88 C0.9 3.26, 2.4 0.49, 5.88 0" stroke="#e67700" stroke-width="1.5" fill="none" stroke-dasharray="1.5 7"></path></g><g stroke-linecap="round" transform="translate(225.09172613869418 390.0079862732348) rotate(0 102.75 24.75)"><path d="M12.6 0.93 L194.56 2.06 L200.7 3.28 L206.27 7.9 L206.88 39.54 L200.91 46.41 L191.89 48.77 L8.5 50.35 L3.24 46.58 L1.41 43.15 L-1.75 12.16 L1.87 2.96 L13.29 1.35" stroke="none" stroke-width="0" fill="#fff"></path><path d="M12.38 0 M12.38 0 C71.83 -0.1, 135.62 1.84, 193.13 0 M12.38 0 C58.26 1.48, 104.26 2.44, 193.13 0 M193.13 0 C201.63 1.52, 204.28 5.45, 205.5 12.38 M193.13 0 C201.71 2.22, 204.18 4.32, 205.5 12.38 M205.5 12.38 C204.86 20.58, 206.42 31.54, 205.5 37.13 M205.5 12.38 C205.98 21.6, 206.08 30.54, 205.5 37.13 M205.5 37.13 C204.09 46.85, 199.94 47.85, 193.13 49.5 M205.5 37.13 C205.62 46.83, 200.65 49.18, 193.13 49.5 M193.13 49.5 C139.36 51.17, 83.98 51.46, 12.38 49.5 M193.13 49.5 C152.81 49.92, 113.19 49.66, 12.38 49.5 M12.38 49.5 C4.68 49.29, 0.24 45.73, 0 37.13 M12.38 49.5 C2.06 48.36, 1.56 45.64, 0 37.13 M0 37.13 C-1.78 28.8, 2.08 21.95, 0 12.38 M0 37.13 C-0.58 30.75, 0.81 25.94, 0 12.38 M0 12.38 C0.36 5.2, 5.12 -0.03, 12.38 0 M0 12.38 C0.33 3.26, 2.48 -1.53, 12.38 0" stroke="#1864ab" stroke-width="1" fill="none"></path></g><g stroke-linecap="round" transform="translate(289.5917261386942 398.7579862732348) rotate(0 38.5 16.5)"><path d="M8.25 0 L72.36 0.52 L74.94 2.06 L76.48 4.64 L77 8.25 L76.48 28.36 L74.94 30.94 L72.36 32.48 L68.75 33 L4.64 32.48 L2.06 30.94 L0.52 28.36 L0 8.25 L0.52 4.64 L2.06 2.06 L4.64 0.52 L8.25 0" stroke="none" stroke-width="0" fill="#ffffff"></path><path d="M8.25 0 M8.25 0 C20.83 0, 33.42 0, 68.75 0 M68.75 0 C74.25 0, 77 2.75, 77 8.25 M77 8.25 C77 12.25, 77 16.25, 77 24.75 M77 24.75 C77 30.25, 74.25 33, 68.75 33 M68.75 33 C44.82 33, 20.9 33, 8.25 33 M8.25 33 C2.75 33, 0 30.25, 0 24.75 M0 24.75 C0 20.32, 0 15.89, 0 8.25 M0 8.25 C0 2.75, 2.75 0, 8.25 0" stroke="#1864ab" stroke-width="1.5" fill="none" stroke-dasharray="1.5 7"></path></g><g transform="translate(312.0116937900614 405.65798627323477) rotate(0 16.080032348632812 9.600000000000023)"><text x="16.080032348632812" y="0" font-family="Virgil, Segoe UI Emoji" font-size="16px" fill="#1864ab" text-anchor="middle" style="white-space: pre;" direction="ltr" dominant-baseline="text-before-edge">free</text></g><g stroke-linecap="round" transform="translate(233.59172613869418 398.7579862732348) rotate(0 10.25 17.75)"><path d="M6.99 0.04 L19.15 1.87 L21.11 4.46 L20.01 28.88 L17.62 33.94 L2.15 34.21 L1.37 31.03 L-0.86 3.52 L5.74 -1.75" stroke="none" stroke-width="0" fill="#fff"></path><path d="M5.13 0 M5.13 0 C8.56 0.7, 11.44 -0.74, 15.38 0 M15.38 0 C18.74 -1.68, 20.36 2.71, 20.5 5.13 M20.5 5.13 C18.54 14.78, 20.01 24.68, 20.5 30.38 M20.5 30.38 C22.06 34.05, 20.31 34.28, 15.38 35.5 M15.38 35.5 C11.03 35.69, 8.88 35.41, 5.13 35.5 M5.13 35.5 C2.54 34.91, -1.68 34.76, 0 30.38 M0 30.38 C1.79 24.71, 1.15 18.1, 0 5.13 M0 5.13 C1.99 0.3, 3.19 -1.44, 5.13 0" stroke="#1864ab" stroke-width="1.5" fill="none" stroke-dasharray="1.5 7"></path></g><g stroke-linecap="round" transform="translate(404.3417261386942 398.7579862732348) rotate(0 9.25 17.5)"><path d="M4.66 1.54 L17.45 1.22 L19.79 2.11 L17 30.38 L14.66 33.98 L1.63 35.76 L-1.3 31.22 L0.64 5.24 L-0.59 0.94 L3.4 -0.14" stroke="none" stroke-width="0" fill="#fff"></path><path d="M4.63 0 M4.63 0 C7.15 -0.06, 10.25 -0.1, 13.88 0 M13.88 0 C17.96 1.8, 17.59 2.75, 18.5 4.63 M18.5 4.63 C18.34 11.54, 18.73 16.85, 18.5 30.38 M18.5 30.38 C17.28 34.79, 17.25 36.93, 13.88 35 M13.88 35 C11.46 35.47, 9.12 34.32, 4.63 35 M4.63 35 C2.51 34.4, 0.94 32.65, 0 30.38 M0 30.38 C1.22 22.18, -1.55 11.49, 0 4.63 M0 4.63 C-1.44 -0.11, 1.65 1.26, 4.63 0" stroke="#1864ab" stroke-width="1.5" fill="none" stroke-dasharray="1.5 7"></path></g><g stroke-linecap="round" transform="translate(260.1444840924628 398.7579862732348) rotate(0 10.25 17.75)"><path d="M4.93 0.04 L16.11 2.04 L21 3.28 L20.17 28.68 L18.79 33.95 L4.37 33.62 L1.93 34.08 L0.54 2.53 L5.57 -1.32" stroke="none" stroke-width="0" fill="#fff"></path><path d="M5.13 0 M5.13 0 C6.81 0.28, 9.88 -0.69, 15.38 0 M15.38 0 C19.9 -0.4, 20.81 2.26, 20.5 5.13 M20.5 5.13 C18.47 14.9, 19.28 22.8, 20.5 30.38 M20.5 30.38 C20.17 35.45, 17.09 35.38, 15.38 35.5 M15.38 35.5 C12.24 36.44, 10.37 35.82, 5.13 35.5 M5.13 35.5 C1.41 34.28, -1.81 33.83, 0 30.38 M0 30.38 C-0.19 18.51, 0.25 12.28, 0 5.13 M0 5.13 C-1 1.54, 2.71 0.18, 5.13 0" stroke="#1864ab" stroke-width="1.5" fill="none" stroke-dasharray="1.5 7"></path></g><g stroke-linecap="round" transform="translate(375.1444840924628 398.7579862732348) rotate(0 9.25 17.5)"><path d="M5.06 -1.31 L16.63 0.28 L18.4 3.54 L17.21 29.61 L15.16 34.43 L0.65 33.8 L1.02 33.2 L0.55 4.47 L-0.27 2.7 L6.5 -1.59" stroke="none" stroke-width="0" fill="#fff"></path><path d="M4.63 0 M4.63 0 C6.46 0.78, 10.54 0.51, 13.88 0 M13.88 0 C16.52 -0.26, 17.73 -0.23, 18.5 4.63 M18.5 4.63 C18.18 15.22, 16.49 21.74, 18.5 30.38 M18.5 30.38 C19.72 33.1, 15.46 34.73, 13.88 35 M13.88 35 C12.21 34.89, 8.62 34.61, 4.63 35 M4.63 35 C1.69 36.14, 0.67 32.54, 0 30.38 M0 30.38 C-0.91 18.76, -0.18 9.31, 0 4.63 M0 4.63 C0.57 0.54, -0.28 1.31, 4.63 0" stroke="#1864ab" stroke-width="1.5" fill="none" stroke-dasharray="1.5 7"></path></g><g stroke-linecap="round"><g transform="translate(183.40321191806754 491.1255830249228) rotate(0 22.42731628357376 -21.608975102346562)"><path d="M0 0 C4.29 -1.8, 18.24 -3.59, 25.72 -10.8 C33.2 -18, 41.67 -37.81, 44.85 -43.22" stroke="#1864ab" stroke-width="1.5" fill="none" stroke-dasharray="8 9"></path></g><g transform="translate(183.40321191806754 491.1255830249228) rotate(0 22.42731628357376 -21.608975102346562)"><path d="M42.49 -24.54 C43.02 -28.75, 43.55 -32.95, 44.85 -43.22" stroke="#1864ab" stroke-width="1.5" fill="none"></path></g><g transform="translate(183.40321191806754 491.1255830249228) rotate(0 22.42731628357376 -21.608975102346562)"><path d="M31.04 -30.43 C34.15 -33.31, 37.26 -36.19, 44.85 -43.22" stroke="#1864ab" stroke-width="1.5" fill="none"></path></g></g><mask></mask><g transform="translate(18.531123699710406 479) rotate(0 76.44015502929688 9.600000000000023)"><text x="0" y="0" font-family="Virgil, Segoe UI Emoji" font-size="16px" fill="#1864ab" text-anchor="start" style="white-space: pre;" direction="ltr" dominant-baseline="text-before-edge">next free block pos</text></g><g stroke-linecap="round"><g transform="translate(275.40321191806765 446.1255830249228) rotate(0 185.42731628357376 23.876638906053586)"><path d="M0 0 C13.37 7.45, 18.41 37.41, 80.22 44.7 C142.03 52, 322.42 43.94, 370.85 43.78" stroke="#1864ab" stroke-width="1.5" fill="none" stroke-dasharray="8 9"></path></g><g transform="translate(275.40321191806765 446.1255830249228) rotate(0 185.42731628357376 23.876638906053586)"><path d="M342.9 54.68 C352.05 51.12, 361.19 47.55, 370.85 43.78" stroke="#1864ab" stroke-width="1.5" fill="none"></path></g><g transform="translate(275.40321191806765 446.1255830249228) rotate(0 185.42731628357376 23.876638906053586)"><path d="M342.44 34.16 C351.73 37.31, 361.03 40.46, 370.85 43.78" stroke="#1864ab" stroke-width="1.5" fill="none"></path></g></g><mask></mask><g transform="translate(451.5311236997104 506.5) rotate(0 76.44015502929688 9.600000000000023)"><text x="0" y="0" font-family="Virgil, Segoe UI Emoji" font-size="16px" fill="#1864ab" text-anchor="start" style="white-space: pre;" direction="ltr" dominant-baseline="text-before-edge">next free block pos</text></g><g stroke-linecap="round"><g transform="translate(319.8944840924628 237.10000000000002) rotate(0 0.9590346314385556 25.44098520427943)"><path d="M-1.29 1.07 C-1.18 8.85, 1 40.46, 1.16 48.93 M3.21 -0.82 C3.09 7.11, 0.92 43.71, 0.1 51.71" stroke="#862e9c" stroke-width="1" fill="none"></path></g><g transform="translate(319.8944840924628 237.10000000000002) rotate(0 0.9590346314385556 25.44098520427943)"><path d="M-5.2 30.48 C-6.41 36.17, 0 41.89, 3.5 55.17 M-8.52 28.81 C-3.52 36.88, 0.31 43.37, -1.89 51.64" stroke="#862e9c" stroke-width="1" fill="none"></path></g><g transform="translate(319.8944840924628 237.10000000000002) rotate(0 0.9590346314385556 25.44098520427943)"><path d="M12.03 31.78 C5.31 36.9, 6.23 42.2, 3.5 55.17 M8.71 30.12 C7.45 37.67, 5.04 43.69, -1.89 51.64" stroke="#862e9c" stroke-width="1" fill="none"></path></g></g><mask></mask><g stroke-linecap="round"><g transform="translate(383.8944840924628 382.1) rotate(0 -176.75 -23.047292584427396)"><path d="M0 0 C-11.5 -6.92, -10.08 -33.92, -69 -41.5 C-127.92 -49.08, -306.08 -44.83, -353.5 -45.5" stroke="#5c940d" stroke-width="1.5" fill="none" stroke-dasharray="8 9"></path></g><g transform="translate(383.8944840924628 382.1) rotate(0 -176.75 -23.047292584427396)"><path d="M-325.35 -55.87 C-332.8 -53.12, -340.25 -50.38, -353.5 -45.5" stroke="#5c940d" stroke-width="1.5" fill="none"></path></g><g transform="translate(383.8944840924628 382.1) rotate(0 -176.75 -23.047292584427396)"><path d="M-325.27 -35.35 C-332.74 -38.04, -340.21 -40.72, -353.5 -45.5" stroke="#5c940d" stroke-width="1.5" fill="none"></path></g></g><mask></mask><g transform="translate(30.454329063165915 301.5) rotate(0 90.32817840576172 9.599999999999994)"><text x="0" y="0" font-family="Virgil, Segoe UI Emoji" font-size="16px" fill="#5c940d" text-anchor="start" style="white-space: pre;" direction="ltr" dominant-baseline="text-before-edge">previous free block pos</text></g><g transform="translate(431.06630568670107 299.5) rotate(0 90.32817840576172 9.599999999999994)"><text x="0" y="0" font-family="Virgil, Segoe UI Emoji" font-size="16px" fill="#5c940d" text-anchor="start" style="white-space: pre;" direction="ltr" dominant-baseline="text-before-edge">previous free block pos</text></g><g stroke-linecap="round"><g transform="translate(618.3944840924628 329.1156733890376) rotate(0 -187.75 19.4282225938596)"><path d="M0 0 C-42.75 0.31, -193.92 -4.9, -256.5 1.85 C-319.08 8.6, -355.67 34.05, -375.5 40.48" stroke="#5c940d" stroke-width="1.5" fill="none" stroke-dasharray="8 9"></path></g><g transform="translate(618.3944840924628 329.1156733890376) rotate(0 -187.75 19.4282225938596)"><path d="M-353.79 19.77 C-361.48 27.1, -369.16 34.43, -375.5 40.48" stroke="#5c940d" stroke-width="1.5" fill="none"></path></g><g transform="translate(618.3944840924628 329.1156733890376) rotate(0 -187.75 19.4282225938596)"><path d="M-345.56 38.57 C-356.15 39.25, -366.75 39.93, -375.5 40.48" stroke="#5c940d" stroke-width="1.5" fill="none"></path></g></g><mask></mask><g transform="translate(440.56630568670107 10) rotate(0 90.32817840576172 9.599999999999994)"><text x="0" y="0" font-family="Virgil, Segoe UI Emoji" font-size="16px" fill="#5c940d" text-anchor="start" style="white-space: pre;" direction="ltr" dominant-baseline="text-before-edge">previous free block pos</text></g><g stroke-linecap="round"><g transform="translate(628.8944840924628 43.60000000000002) rotate(0 -305.5 -2.5462962962962905)"><path d="M0 0 C-53.83 0, -221.17 0.92, -323 0 C-424.83 -0.92, -563 -4.58, -611 -5.5" stroke="#5c940d" stroke-width="1.5" fill="none" stroke-dasharray="8 9"></path></g><g transform="translate(628.8944840924628 43.60000000000002) rotate(0 -305.5 -2.5462962962962905)"><path d="M-582.59 -15.13 C-588.89 -13, -595.19 -10.86, -611 -5.5" stroke="#5c940d" stroke-width="1.5" fill="none"></path></g><g transform="translate(628.8944840924628 43.60000000000002) rotate(0 -305.5 -2.5462962962962905)"><path d="M-583.04 5.38 C-589.24 2.97, -595.44 0.56, -611 -5.5" stroke="#5c940d" stroke-width="1.5" fill="none"></path></g></g><mask></mask></svg>