<svg version="1.1" xmlns="http://www.w3.org/2000/svg" viewBox="0 0 614.220223110951 459.6150579752365" width="1228.440446221902" height="919.230115950473">
  <!-- svg-source:excalidraw -->
  
  <defs>
    <style class="style-fonts">
      @font-face {
        font-family: "Virgil";
        src: url("https://excalidraw.com/Virgil.woff2");
      }
      @font-face {
        font-family: "Cascadia";
        src: url("https://excalidraw.com/Cascadia.woff2");
      }
    </style>
  </defs>
  <rect x="0" y="0" width="614.220223110951" height="459.6150579752365" fill="#ffffff"></rect><g stroke-linecap="round" transform="translate(65.00000000000006 256.6575289876182) rotate(0 263.5000000000001 75.74999999999994)"><path d="M31.97 -1.68 L493.5 1.19 L507.52 1.83 L519.05 6.11 L522.24 12.16 L526.15 24.55 L525.04 120.47 L523.23 131.89 L521.89 139.8 L515.84 148.36 L508.38 149.62 L496.09 151.65 L33.17 153.3 L16.21 148.32 L14.03 147.61 L4.49 139.35 L1.31 128.23 L-1.14 25.13 L2.97 18.26 L7.8 6.44 L17.56 2.18 L31.4 1.48" stroke="none" stroke-width="0" fill="#fab00533"></path><path d="M32 0 M32 0 C164.2 1.28, 295.25 1.43, 495 0 M32 0 C138.15 -1.25, 243.54 -0.59, 495 0 M495 0 C514.47 -0.38, 525.47 12.61, 527 32 M495 0 C516.04 -0.01, 528.48 8.77, 527 32 M527 32 C524.97 53.7, 524.58 70.63, 527 119.5 M527 32 C527.43 59.08, 527.35 85.76, 527 119.5 M527 119.5 C527.15 141.05, 515.87 152.41, 495 151.5 M527 119.5 C528.37 142.86, 515.06 149.98, 495 151.5 M495 151.5 C367.69 151.96, 240 150.95, 32 151.5 M495 151.5 C343.39 149.93, 192.72 149.64, 32 151.5 M32 151.5 C11.94 153.37, 0.78 140.98, 0 119.5 M32 151.5 C11.38 150.21, 1.54 143.1, 0 119.5 M0 119.5 C-0.73 97.07, 0.84 69.58, 0 32 M0 119.5 C-1.54 94.41, -1.53 70.06, 0 32 M0 32 C1.52 12.1, 12.21 -1.27, 32 0 M0 32 C-2.14 8.59, 11.75 -1.83, 32 0" stroke="#e67700" stroke-width="1" fill="none"></path></g><g stroke-linecap="round" transform="translate(67 53.39999999999998) rotate(0 263.50000000000006 63.5)"><path d="M31.09 -1.77 L503.34 2.13 L516.44 3.42 L522.29 12.05 L524.95 18.48 L525.8 30.84 L526.3 102.07 L524.67 110.84 L519.56 120.06 L509.24 124.79 L495.26 125.85 L24.11 124.72 L13.62 122.4 L2.83 115.14 L3.9 107.75 L1.28 94.08 L0.8 30.95 L3.92 17.62 L7.41 9.33 L17.51 0.62 L32.19 -1.5" stroke="none" stroke-width="0" fill="#fab00533"></path><path d="M31.75 0 M31.75 0 C208.42 -0.73, 384.78 -1.27, 495.25 0 M31.75 0 C142.09 1.24, 252.02 1.53, 495.25 0 M495.25 0 C517.6 -1.58, 528.19 8.86, 527 31.75 M495.25 0 C515.26 2.07, 528.63 9.27, 527 31.75 M527 31.75 C528.43 55.22, 525.57 78.56, 527 95.25 M527 31.75 C527.52 52.83, 527.28 74.32, 527 95.25 M527 95.25 C528.11 115.98, 516.89 128.46, 495.25 127 M527 95.25 C526.79 116.36, 518.16 127.05, 495.25 127 M495.25 127 C358.38 128.56, 220.12 129.3, 31.75 127 M495.25 127 C386.73 126.34, 277.9 126.33, 31.75 127 M31.75 127 C8.65 127.28, 0.93 117.16, 0 95.25 M31.75 127 C11.22 128.16, -0.5 115.93, 0 95.25 M0 95.25 C0.58 73.31, 0.08 52.98, 0 31.75 M0 95.25 C-0.62 79.36, -0.28 62.13, 0 31.75 M0 31.75 C-1.77 9.07, 11.77 0.54, 31.75 0 M0 31.75 C2.13 9.85, 12.65 -0.88, 31.75 0" stroke="#e67700" stroke-width="1" fill="none"></path></g><g transform="translate(275 425.5) rotate(359.8962637780171 63.55992889404297 12)"><text x="0" y="0" font-family="Virgil, Segoe UI Emoji" font-size="20px" fill="#e6770033" text-anchor="start" style="white-space: pre;" direction="ltr" dominant-baseline="text-before-edge">@hemashushu</text></g><g stroke-linecap="round" transform="translate(89 273.9) rotate(0 70.5 15)"><path d="M9.24 -0.2 L137.23 2.4 L139.16 3.17 L138.91 24.33 L138.14 28.45 L134.81 28.61 L5.87 28.79 L0.7 24.26 L-0.77 7.14 L0.89 1.97 L7.83 -0.03" stroke="none" stroke-width="0" fill="#fff"></path><path d="M7.5 0 M7.5 0 C47.57 0.61, 89.32 -0.66, 133.5 0 M133.5 0 C137.95 1.04, 141.88 1.77, 141 7.5 M141 7.5 C141.23 12.08, 139.66 13.08, 141 22.5 M141 22.5 C141.74 29.4, 139.22 30.69, 133.5 30 M133.5 30 C106.8 30.13, 81.39 31.47, 7.5 30 M7.5 30 C2.73 29.67, 0.6 29.24, 0 22.5 M0 22.5 C-1.43 20.33, -0.47 16.46, 0 7.5 M0 7.5 C1.14 3.53, 3.88 1.28, 7.5 0" stroke="#e67700" stroke-width="1.5" fill="none" stroke-dasharray="8 9"></path></g><g transform="translate(123.70792388916016 279.29999999999995) rotate(0 35.792076110839844 9.600000000000023)"><text x="35.792076110839844" y="0" font-family="Virgil, Segoe UI Emoji" font-size="16px" fill="#e67700" text-anchor="middle" style="white-space: pre;" direction="ltr" dominant-baseline="text-before-edge">free item</text></g><g transform="translate(423.49999999999994 10) rotate(0 63.259925842285185 12)"><text x="0" y="0" font-family="Virgil, Segoe UI Emoji" font-size="20px" fill="#e67700" text-anchor="start" style="white-space: pre;" direction="ltr" dominant-baseline="text-before-edge">Data Page 1</text></g><g stroke-linecap="round" transform="translate(417.49999999999994 276.4) rotate(0 70.50000000000003 15)"><path d="M8.48 -0.14 L135.02 -1.33 L140.12 5.58 L140.14 24.65 L137.61 29.89 L131.74 31.44 L5.07 27.99 L0.98 27.15 L1.76 6.97 L1.59 3.56 L5.71 1.36" stroke="none" stroke-width="0" fill="#fff"></path><path d="M7.5 0 M7.5 0 C32.33 1.17, 60.15 -0.18, 133.5 0 M133.5 0 C139.68 1.42, 140.42 3.87, 141 7.5 M141 7.5 C139.65 11.84, 139.86 17.97, 141 22.5 M141 22.5 C142.85 26.06, 139.5 29.37, 133.5 30 M133.5 30 C102.48 29.76, 66.33 30.24, 7.5 30 M7.5 30 C0.53 31.71, -0.24 27.59, 0 22.5 M0 22.5 C0.79 15.33, -0.53 10.84, 0 7.5 M0 7.5 C0.82 4.42, 1.93 -0.99, 7.5 0" stroke="#e67700" stroke-width="1.5" fill="none" stroke-dasharray="8 9"></path></g><g transform="translate(452.20792388916016 281.79999999999995) rotate(0 35.792076110839844 9.600000000000023)"><text x="35.792076110839844" y="0" font-family="Virgil, Segoe UI Emoji" font-size="16px" fill="#e67700" text-anchor="middle" style="white-space: pre;" direction="ltr" dominant-baseline="text-before-edge">free item</text></g><g stroke-linecap="round" transform="translate(252.00000000000006 356.9) rotate(0 70.5 15)"><path d="M6.76 1.18 L138.2 -0.12 L141.9 5.47 L141.92 27.45 L137.18 26.65 L131.84 29.45 L6.07 28.09 L1.47 25.15 L-0.82 7.02 L0.87 3.51 L7.89 -1.87" stroke="none" stroke-width="0" fill="#fff"></path><path d="M7.5 0 M7.5 0 C50.59 -0.99, 96.12 -1.77, 133.5 0 M133.5 0 C138.83 0.98, 139.4 1.72, 141 7.5 M141 7.5 C140.63 11.54, 140.88 16.09, 141 22.5 M141 22.5 C140.78 27.47, 137.38 30.5, 133.5 30 M133.5 30 C93.94 30.81, 55.67 27.33, 7.5 30 M7.5 30 C0.69 29.07, 0.8 27.14, 0 22.5 M0 22.5 C-1.18 19.05, 0.64 13.48, 0 7.5 M0 7.5 C-1.87 2.62, 0.52 1.28, 7.5 0" stroke="#e67700" stroke-width="1.5" fill="none" stroke-dasharray="8 9"></path></g><g transform="translate(286.7079238891602 362.29999999999995) rotate(0 35.792076110839844 9.600000000000023)"><text x="35.792076110839844" y="0" font-family="Virgil, Segoe UI Emoji" font-size="16px" fill="#e67700" text-anchor="middle" style="white-space: pre;" direction="ltr" dominant-baseline="text-before-edge">free item</text></g><g stroke-linecap="round" transform="translate(255 74.39999999999998) rotate(0 70.5 15)"><path d="M7.4 0.2 L136.23 1.65 L140.09 3.32 L141.46 25.03 L140.18 27.47 L131.83 30.32 L2.51 28.66 L2.24 25.38 L-0.92 8.72 L0.12 3.81 L6.63 -1" stroke="none" stroke-width="0" fill="#fff"></path><path d="M7.5 0 M7.5 0 C54.26 -1.16, 103.19 -0.66, 133.5 0 M133.5 0 C138.59 -0.41, 142.43 3.04, 141 7.5 M141 7.5 C140.03 13.76, 141.61 18.07, 141 22.5 M141 22.5 C140.61 28.34, 140.12 29.14, 133.5 30 M133.5 30 C96.04 29.96, 57.63 30.74, 7.5 30 M7.5 30 C2.11 29.37, -1.27 27.91, 0 22.5 M0 22.5 C-1.25 17.2, 0.52 14.36, 0 7.5 M0 7.5 C1.87 1.28, 3.13 1.1, 7.5 0" stroke="#2b8a3e" stroke-width="1.5" fill="none" stroke-dasharray="8 9"></path></g><g transform="translate(269.01187896728516 79.79999999999995) rotate(0 56.488121032714844 9.599999999999994)"><text x="56.488121032714844" y="0" font-family="Virgil, Segoe UI Emoji" font-size="16px" fill="#2b8a3e" text-anchor="middle" style="white-space: pre;" direction="ltr" dominant-baseline="text-before-edge">allocated item</text></g><g stroke-linecap="round" transform="translate(93.5 75.39999999999998) rotate(0 70.5 15)"><path d="M7.25 -0.06 L137.64 2.28 L139.77 4.87 L140.6 26.96 L139.8 29.42 L134.9 28.26 L2.55 30.43 L-1.37 25.57 L-0.98 6.93 L3.11 2.3 L7.7 -0.28" stroke="none" stroke-width="0" fill="#fff"></path><path d="M7.5 0 M7.5 0 C53.87 1.94, 98.3 -1.22, 133.5 0 M133.5 0 C138.05 -0.84, 141.05 4.39, 141 7.5 M141 7.5 C141.79 14.02, 140.9 18.76, 141 22.5 M141 22.5 C142.14 26.5, 137.44 28, 133.5 30 M133.5 30 C90.45 29.89, 51.29 32.49, 7.5 30 M7.5 30 C2.8 29.25, -0.85 28.26, 0 22.5 M0 22.5 C-1.06 20.09, 0.78 16.69, 0 7.5 M0 7.5 C-0.43 0.8, 0.55 -1.22, 7.5 0" stroke="#2b8a3e" stroke-width="1.5" fill="none" stroke-dasharray="8 9"></path></g><g transform="translate(107.51187896728516 80.79999999999995) rotate(0 56.488121032714844 9.599999999999994)"><text x="56.488121032714844" y="0" font-family="Virgil, Segoe UI Emoji" font-size="16px" fill="#2b8a3e" text-anchor="middle" style="white-space: pre;" direction="ltr" dominant-baseline="text-before-edge">allocated item</text></g><g stroke-linecap="round" transform="translate(97.50000000000006 126.39999999999998) rotate(0 70.5 15)"><path d="M6.99 1.05 L135.81 0.09 L140.8 5.69 L141.19 25.31 L139.96 29.05 L132.89 31.13 L5.92 29.72 L-0.77 26.68 L-0.05 8.47 L1.78 1.12 L6.78 -0.14" stroke="none" stroke-width="0" fill="#fff"></path><path d="M7.5 0 M7.5 0 C40.97 0.1, 78.47 0.89, 133.5 0 M133.5 0 C139.45 -0.66, 139.33 3.95, 141 7.5 M141 7.5 C140.92 11.44, 140.91 18.6, 141 22.5 M141 22.5 C139.56 26.13, 139.3 28.01, 133.5 30 M133.5 30 C103.84 29.01, 71.12 29.95, 7.5 30 M7.5 30 C2.31 28.75, -1.36 28.74, 0 22.5 M0 22.5 C-0.36 17.61, 0.76 10.57, 0 7.5 M0 7.5 C1.2 4.12, 1.69 -0.99, 7.5 0" stroke="#2b8a3e" stroke-width="1.5" fill="none" stroke-dasharray="8 9"></path></g><g transform="translate(111.51187896728521 131.79999999999995) rotate(0 56.488121032714844 9.599999999999994)"><text x="56.488121032714844" y="0" font-family="Virgil, Segoe UI Emoji" font-size="16px" fill="#2b8a3e" text-anchor="middle" style="white-space: pre;" direction="ltr" dominant-baseline="text-before-edge">allocated item</text></g><g stroke-linecap="round" transform="translate(86.50000000000006 355.15) rotate(0 70.5 15)"><path d="M6.12 -1.72 L137.58 2.42 L140.67 3.83 L141.85 26.57 L139.06 28.34 L134.19 28.68 L5.83 31.34 L0.68 26.69 L1.68 7.23 L2.96 1.22 L7.05 0.9" stroke="none" stroke-width="0" fill="#fff"></path><path d="M7.5 0 M7.5 0 C37.33 -0.41, 64.83 1.2, 133.5 0 M133.5 0 C137.11 0.6, 140.56 2.27, 141 7.5 M141 7.5 C140.3 11.38, 142.26 17.83, 141 22.5 M141 22.5 C140.01 28.67, 137.51 28.12, 133.5 30 M133.5 30 C107.42 30.15, 80.52 29.32, 7.5 30 M7.5 30 C1.68 30.51, -0.58 29.36, 0 22.5 M0 22.5 C0.16 16.66, -0.85 13.09, 0 7.5 M0 7.5 C-0.55 0.72, 1.91 -1.54, 7.5 0" stroke="#e67700" stroke-width="1.5" fill="none" stroke-dasharray="8 9"></path></g><g transform="translate(121.20792388916021 360.54999999999995) rotate(0 35.792076110839844 9.600000000000023)"><text x="35.792076110839844" y="0" font-family="Virgil, Segoe UI Emoji" font-size="16px" fill="#e67700" text-anchor="middle" style="white-space: pre;" direction="ltr" dominant-baseline="text-before-edge">free item</text></g><g stroke-linecap="round" transform="translate(253.50000000000006 273.9) rotate(0 70.5 15)"><path d="M6.66 -0.63 L138.58 1.42 L141.71 4.74 L141.5 26.64 L140.01 28.18 L133.01 31.67 L3.28 28.5 L0.72 26.86 L-0.92 8.68 L3.51 0.58 L8.41 -0.49" stroke="none" stroke-width="0" fill="#fff"></path><path d="M7.5 0 M7.5 0 C44.79 2.48, 79.32 1.4, 133.5 0 M133.5 0 C138.86 1.64, 140.7 2.35, 141 7.5 M141 7.5 C139.82 9.94, 139.62 15.26, 141 22.5 M141 22.5 C142.64 28.68, 137.93 31.96, 133.5 30 M133.5 30 C103.25 27.63, 70.39 28.9, 7.5 30 M7.5 30 C1.51 30.74, 0.19 26.04, 0 22.5 M0 22.5 C-0.15 18.18, -0.01 12.18, 0 7.5 M0 7.5 C1.78 2.83, 2.02 1.32, 7.5 0" stroke="#e67700" stroke-width="1.5" fill="none" stroke-dasharray="8 9"></path></g><g transform="translate(288.2079238891602 279.29999999999995) rotate(0 35.792076110839844 9.600000000000023)"><text x="35.792076110839844" y="0" font-family="Virgil, Segoe UI Emoji" font-size="16px" fill="#e67700" text-anchor="middle" style="white-space: pre;" direction="ltr" dominant-baseline="text-before-edge">free item</text></g><g stroke-linecap="round"><g transform="translate(573.4749694824219 288.1000152587891) rotate(0 -256.8132268913463 42.98936316874432)"><path d="M0 0 C4.58 1.25, 24 1.24, 27.5 7.5 C31 13.76, 34.69 31.72, 21.03 37.56 C7.36 43.39, 24.58 42.25, -54.5 42.5 C-133.58 42.75, -373.23 37.88, -453.47 39.06 C-533.72 40.23, -522.14 43.31, -535.97 49.56 C-549.81 55.81, -544.05 70.49, -536.47 76.56 C-528.9 82.63, -498.16 84.41, -490.5 85.98" stroke="#e67700" stroke-width="1.5" fill="none" stroke-dasharray="8 9"></path></g><g transform="translate(573.4749694824219 288.1000152587891) rotate(0 -256.8132268913463 42.98936316874432)"><path d="M-513.42 91.03 C-505.19 89.21, -496.95 87.4, -490.5 85.98" stroke="#e67700" stroke-width="1.5" fill="none"></path></g><g transform="translate(573.4749694824219 288.1000152587891) rotate(0 -256.8132268913463 42.98936316874432)"><path d="M-511.3 75.12 C-503.83 79.02, -496.36 82.92, -490.5 85.98" stroke="#e67700" stroke-width="1.5" fill="none"></path></g></g><mask></mask><g stroke-linecap="round"><g transform="translate(224.00000000000006 287.9) rotate(0 17 0.25)"><path d="M0 0 C5.67 0.08, 28.33 0.42, 34 0.5" stroke="#e67700" stroke-width="1.5" fill="none" stroke-dasharray="8 9"></path></g><g transform="translate(224.00000000000006 287.9) rotate(0 17 0.25)"><path d="M17.94 6.08 C23.76 4.06, 29.57 2.04, 34 0.5" stroke="#e67700" stroke-width="1.5" fill="none"></path></g><g transform="translate(224.00000000000006 287.9) rotate(0 17 0.25)"><path d="M18.11 -5.55 C23.87 -3.36, 29.62 -1.17, 34 0.5" stroke="#e67700" stroke-width="1.5" fill="none"></path></g></g><mask></mask><g stroke-linecap="round"><g transform="translate(16.336766318931765 43.299999999999955) rotate(0 29.354124753798622 121.18270589770003)"><path d="M0 0 C3.69 5.48, 17.89 -3.99, 22.16 32.86 C26.44 69.71, 19.57 186.56, 25.66 221.1 C31.75 255.64, 53.2 236.93, 58.71 240.1" stroke="#e67700" stroke-width="1.5" fill="none" stroke-dasharray="8 9"></path></g><g transform="translate(16.336766318931765 43.299999999999955) rotate(0 29.354124753798622 121.18270589770003)"><path d="M41.72 248.74 C47.82 245.64, 53.92 242.54, 58.71 240.1" stroke="#e67700" stroke-width="1.5" fill="none"></path></g><g transform="translate(16.336766318931765 43.299999999999955) rotate(0 29.354124753798622 121.18270589770003)"><path d="M40.14 235.8 C46.81 237.34, 53.47 238.89, 58.71 240.1" stroke="#e67700" stroke-width="1.5" fill="none"></path></g></g><mask></mask><g transform="translate(10 12.099999999999966) rotate(0 67.37614440917969 9.599999999999994)"><text x="0" y="0" font-family="Virgil, Segoe UI Emoji" font-size="16px" fill="#e67700" text-anchor="start" style="white-space: pre;" direction="ltr" dominant-baseline="text-before-edge">head item offset</text></g><g stroke-linecap="round" transform="translate(254.5 127.1575289876182) rotate(0 70.5 15)"><path d="M7.69 -1.29 L136.3 1.04 L140.74 3.55 L141.09 26 L140.2 26.58 L132.11 30.07 L2.81 30.18 L1.64 24.01 L1.45 7.55 L1.51 1.26 L8.75 -1.62" stroke="none" stroke-width="0" fill="#fff"></path><path d="M7.5 0 M7.5 0 C39.91 2.35, 72.78 1.57, 133.5 0 M133.5 0 C139.25 1.04, 141.6 2.44, 141 7.5 M141 7.5 C140.85 13.3, 140.3 16.59, 141 22.5 M141 22.5 C140.96 25.78, 137.48 28.45, 133.5 30 M133.5 30 C98.35 29.33, 61.04 31.01, 7.5 30 M7.5 30 C1.22 31.08, 0.59 25.58, 0 22.5 M0 22.5 C-0.11 19.09, 1.29 15.44, 0 7.5 M0 7.5 C0.95 2.81, 1.5 0.71, 7.5 0" stroke="#2b8a3e" stroke-width="1.5" fill="none" stroke-dasharray="8 9"></path></g><g transform="translate(268.51187896728516 132.55752898761818) rotate(0 56.488121032714844 9.599999999999994)"><text x="56.488121032714844" y="0" font-family="Virgil, Segoe UI Emoji" font-size="16px" fill="#2b8a3e" text-anchor="middle" style="white-space: pre;" direction="ltr" dominant-baseline="text-before-edge">allocated item</text></g><g stroke-linecap="round" transform="translate(414.5 128.1575289876182) rotate(0 70.5 15)"><path d="M5.55 -1.87 L136.21 -1.01 L140.08 3.3 L141.29 24.11 L138.72 30.1 L135.06 31.11 L6.16 29.9 L1.11 25.91 L-1.05 8.2 L0.27 2.39 L9.04 0.32" stroke="none" stroke-width="0" fill="#fff"></path><path d="M7.5 0 M7.5 0 C39.18 -1.36, 69.44 -0.6, 133.5 0 M133.5 0 C139.88 1.44, 139.05 3.57, 141 7.5 M141 7.5 C141.89 10.93, 141.22 14.21, 141 22.5 M141 22.5 C139.56 26.11, 138.01 30.37, 133.5 30 M133.5 30 C84.6 29.76, 40.07 31.49, 7.5 30 M7.5 30 C2.78 29.53, 1.24 28.78, 0 22.5 M0 22.5 C-0.09 17.09, -0.63 15.42, 0 7.5 M0 7.5 C-1.68 3.24, 3.11 -0.44, 7.5 0" stroke="#2b8a3e" stroke-width="1.5" fill="none" stroke-dasharray="8 9"></path></g><g transform="translate(428.51187896728516 133.55752898761818) rotate(0 56.488121032714844 9.599999999999994)"><text x="56.488121032714844" y="0" font-family="Virgil, Segoe UI Emoji" font-size="16px" fill="#2b8a3e" text-anchor="middle" style="white-space: pre;" direction="ltr" dominant-baseline="text-before-edge">allocated item</text></g><g stroke-linecap="round" transform="translate(413.49999999999994 358.1575289876181) rotate(0 70.50000000000003 15)"><path d="M7.77 -0.99 L135.67 1.34 L141.54 2.59 L140.49 26.9 L137.64 29.56 L132.54 29.17 L3.96 30.07 L1.28 24.7 L0.6 9.16 L3.73 0.75 L7.37 -1.68" stroke="none" stroke-width="0" fill="#fff"></path><path d="M7.5 0 M7.5 0 C51.18 -1.12, 89.89 -1.46, 133.5 0 M133.5 0 C136.93 -0.88, 142.83 4.12, 141 7.5 M141 7.5 C139.86 13.54, 139.61 16.9, 141 22.5 M141 22.5 C142.45 27.98, 136.52 31.53, 133.5 30 M133.5 30 C91.12 28.02, 50.05 28.82, 7.5 30 M7.5 30 C3.98 28.68, -1.31 26.72, 0 22.5 M0 22.5 C-0.87 18, 0.81 12.2, 0 7.5 M0 7.5 C1.76 3.02, 2.6 1.04, 7.5 0" stroke="#e67700" stroke-width="1.5" fill="none" stroke-dasharray="8 9"></path></g><g transform="translate(448.20792388916016 363.55752898761807) rotate(0 35.792076110839844 9.600000000000023)"><text x="35.792076110839844" y="0" font-family="Virgil, Segoe UI Emoji" font-size="16px" fill="#e67700" text-anchor="middle" style="white-space: pre;" direction="ltr" dominant-baseline="text-before-edge">free item</text></g><g stroke-linecap="round"><g transform="translate(390.00000000000006 288.4075289876181) rotate(0 17 0.25)"><path d="M0 0 C5.67 0.08, 28.33 0.42, 34 0.5" stroke="#e67700" stroke-width="1.5" fill="none" stroke-dasharray="8 9"></path></g><g transform="translate(390.00000000000006 288.4075289876181) rotate(0 17 0.25)"><path d="M17.94 6.08 C21.68 4.78, 25.42 3.48, 34 0.5" stroke="#e67700" stroke-width="1.5" fill="none"></path></g><g transform="translate(390.00000000000006 288.4075289876181) rotate(0 17 0.25)"><path d="M18.11 -5.55 C21.81 -4.14, 25.51 -2.73, 34 0.5" stroke="#e67700" stroke-width="1.5" fill="none"></path></g></g><mask></mask><g stroke-linecap="round"><g transform="translate(386 371.9075289876181) rotate(0 17 0.25)"><path d="M0 0 C5.67 0.08, 28.33 0.42, 34 0.5" stroke="#e67700" stroke-width="1.5" fill="none" stroke-dasharray="8 9"></path></g><g transform="translate(386 371.9075289876181) rotate(0 17 0.25)"><path d="M17.94 6.08 C22.24 4.59, 26.54 3.09, 34 0.5" stroke="#e67700" stroke-width="1.5" fill="none"></path></g><g transform="translate(386 371.9075289876181) rotate(0 17 0.25)"><path d="M18.11 -5.55 C22.36 -3.93, 26.62 -2.31, 34 0.5" stroke="#e67700" stroke-width="1.5" fill="none"></path></g></g><mask></mask><g stroke-linecap="round"><g transform="translate(221.00000000000006 369.4075289876181) rotate(0 17 0.25)"><path d="M0 0 C5.67 0.08, 28.33 0.42, 34 0.5" stroke="#e67700" stroke-width="1.5" fill="none" stroke-dasharray="8 9"></path></g><g transform="translate(221.00000000000006 369.4075289876181) rotate(0 17 0.25)"><path d="M17.94 6.08 C21.77 4.75, 25.61 3.41, 34 0.5" stroke="#e67700" stroke-width="1.5" fill="none"></path></g><g transform="translate(221.00000000000006 369.4075289876181) rotate(0 17 0.25)"><path d="M18.11 -5.55 C21.91 -4.1, 25.7 -2.66, 34 0.5" stroke="#e67700" stroke-width="1.5" fill="none"></path></g></g><mask></mask><g transform="translate(421.2400741577149 217.6575289876182) rotate(0 67.66992187499997 12)"><text x="0" y="0" font-family="Virgil, Segoe UI Emoji" font-size="20px" fill="#e67700" text-anchor="start" style="white-space: pre;" direction="ltr" dominant-baseline="text-before-edge">Data Page 2</text></g><g stroke-linecap="round" transform="translate(415 77.1575289876182) rotate(0 70.5 15)"><path d="M6.44 -1.13 L136.5 -0.76 L140.18 4.35 L139.71 24.39 L137.13 29.1 L133.34 31.32 L3.46 28.74 L-1.07 25.69 L-1.81 8.05 L0.3 0.18 L8.76 0.61" stroke="none" stroke-width="0" fill="#fff"></path><path d="M7.5 0 M7.5 0 C42.32 0.55, 79.99 -0.86, 133.5 0 M133.5 0 C139.39 1.02, 142.02 1.85, 141 7.5 M141 7.5 C141.91 11.28, 139.67 16.13, 141 22.5 M141 22.5 C139.81 29.31, 136.65 31.89, 133.5 30 M133.5 30 C104.36 30.25, 75.44 29.17, 7.5 30 M7.5 30 C1.62 28.82, -1.65 28.59, 0 22.5 M0 22.5 C0.58 15.83, 0.84 12.81, 0 7.5 M0 7.5 C1.87 0.83, 1.55 1.96, 7.5 0" stroke="#2b8a3e" stroke-width="1.5" fill="none" stroke-dasharray="8 9"></path></g><g transform="translate(429.01187896728516 82.55752898761818) rotate(0 56.488121032714844 9.599999999999994)"><text x="56.488121032714844" y="0" font-family="Virgil, Segoe UI Emoji" font-size="16px" fill="#2b8a3e" text-anchor="middle" style="white-space: pre;" direction="ltr" dominant-baseline="text-before-edge">allocated item</text></g></svg>